<svg version="1.1" xmlns="http://www.w3.org/2000/svg" viewBox="0 0 445.00000000000006 721.7500076293945" width="890.0000000000001" height="1443.500015258789">
  <!-- svg-source:excalidraw -->
  
  <defs>
    <style class="style-fonts">
      @font-face {
        font-family: "Virgil";
        src: url("https://excalidraw.com/Virgil.woff2");
      }
      @font-face {
        font-family: "Cascadia";
        src: url("https://excalidraw.com/Cascadia.woff2");
      }
    </style>
  </defs>
  <rect x="0" y="0" width="445.00000000000006" height="721.7500076293945" fill="#ffffff"></rect><g stroke-linecap="round" transform="translate(93.9444580078125 10) rotate(0 116.50000000000003 44)"><path d="M0.03 -1.87 L232.57 1.24 L234.43 86.02 L0.37 86.05" stroke="none" stroke-width="0" fill="#fa5252"></path><path d="M-0.35 1.49 C64.88 -0.32, 129.26 0.78, 233.45 -0.29 M-0.28 -0.12 C71.41 1.48, 144.42 1.32, 232.88 -0.53 M233.22 1.54 C234.07 25.96, 234.1 52.92, 234.19 87.26 M233.74 -0.02 C232.35 30.64, 232.72 63.82, 233.92 88.48 M233.09 88.59 C168.35 90.38, 105.18 89.16, 0.98 87.13 M233.16 88.81 C185.31 85.87, 137.69 86.12, 0.69 88.24 M-0.99 86.16 C0.07 56.05, 1.55 24.1, 1.45 -0.68 M0.47 88.65 C-1.26 55.6, 0.39 21.51, -0.22 -0.25" stroke="#000000" stroke-width="1" fill="none"></path></g><g transform="translate(114.9444580078125 37) rotate(0 95.50000000000003 17)"><text x="95.5" y="23" font-family="Virgil, Segoe UI Emoji" font-size="28px" fill="#000000" text-anchor="middle" style="white-space: pre;" direction="ltr">Training data</text></g><g stroke-linecap="round" transform="translate(10 151.44442749023438) rotate(0 212.50000000000003 207)"><path d="M-0.43 1.24 L426.43 -1.98 L425.37 412.05 L1.41 413.56" stroke="none" stroke-width="0" fill="#15aabf"></path><path d="M0.47 0.17 C140.91 -1.11, 280.84 -2.14, 425.1 -0.13 M-0.4 0.31 C106.72 0.52, 212.99 -0.02, 424.97 0.08 M425.51 0.01 C425.77 107.09, 425.9 212.67, 425.64 413.1 M425.04 -0.53 C426.9 155.36, 427.15 310.35, 424.85 413.89 M424.35 414.67 C269 414.69, 114.38 414.24, -1.02 414.91 M424.72 413.87 C338.72 416.16, 253.87 416.28, 0.36 413.95 M-0.01 414.27 C1.91 297.37, 1.9 179.28, 0.79 0.63 M-0.41 414.21 C-0.56 271.17, -1.17 129.2, 0.01 -0.51" stroke="#000000" stroke-width="1" fill="none"></path></g><g transform="translate(118.27777099609375 165.111083984375) rotate(0 121.50000000000003 17)"><text x="0" y="24" font-family="Virgil, Segoe UI Emoji" font-size="28px" fill="#000000" text-anchor="start" style="white-space: pre;" direction="ltr">Feature selection</text></g><g stroke-linecap="round"><g transform="translate(211.7222290039062 101.11111450195312) rotate(0 0.1043375339359045 25.758712629787624)"><path d="M1.2 1.63 C0.76 19.44, 0.41 39.33, -0.99 50.33 M0.36 0.41 C-0.53 13.97, -0.44 29.34, -0.43 51.11" stroke="#000000" stroke-width="1" fill="none"></path></g><g transform="translate(211.7222290039062 101.11111450195312) rotate(0 0.1043375339359045 25.758712629787624)"><path d="M1 49.13 L-6.4 35.57 L7.32 37.08 L0.05 50.92" stroke="none" stroke-width="0" fill="#000000" fill-rule="evenodd"></path><path d="M0.47 52.33 C-2.55 45.59, -5.27 40.39, -7.51 37.01 M-0.15 51.42 C-2.24 46.79, -3.99 43.49, -7.09 37.6 M-6.16 38.16 C-1.23 37.04, 3.55 36.46, 6.85 38.45 M-6.48 37.89 C-2.41 37.94, 0.61 37.51, 6.33 37.55 M5.36 37.39 C4.57 41.34, 0.12 47.97, -1.9 51.39 M5.19 37.56 C3.95 43.09, 1.34 48.18, -0.55 50.74 M-0.43 51.11 C-0.43 51.11, -0.43 51.11, -0.43 51.11 M-0.43 51.11 C-0.43 51.11, -0.43 51.11, -0.43 51.11" stroke="#000000" stroke-width="1" fill="none"></path></g></g><mask></mask><g stroke-linecap="round" transform="translate(114.50368980254075 227.94447326660156) rotate(0 116.50000000000003 44)"><path d="M-1.98 0.37 L231.05 1.41 L232.56 88.47 L-0.19 87.08" stroke="none" stroke-width="0" fill="#228be6"></path><path d="M1.37 0.45 C80.08 -1.02, 160.54 -2.01, 232.43 -0.24 M0.34 -0.12 C51.58 -0.76, 104.34 -1.08, 233.09 0.65 M234.02 1.19 C232.26 31.68, 231.34 62.47, 234.47 87.96 M233.59 0.92 C232.62 26.86, 231.93 54.92, 233.05 88.35 M232.86 88.98 C176.66 85.64, 123.52 85.62, 0.32 89.61 M233.05 88.69 C175.59 86.7, 117.61 85.97, -0.42 87.22 M1.01 89.45 C-0.9 63.12, 0.94 36.21, 0.93 1.29 M-0.91 87.78 C-0.59 68.24, -1.27 48.22, 0.62 0.71" stroke="#000000" stroke-width="1" fill="none"></path></g><g transform="translate(184.5036898025407 254.94447326660156) rotate(0 46.5 17)"><text x="46.5" y="23" font-family="Virgil, Segoe UI Emoji" font-size="28px" fill="#000000" text-anchor="middle" style="white-space: pre;" direction="ltr">Search</text></g><g stroke-linecap="round" transform="translate(114.11114501953125 413.9999694824219) rotate(0 116.50000000000003 44)"><path d="M-1.95 1.41 L232.56 0.47 L232.81 87.08 L-0.69 89.05" stroke="none" stroke-width="0" fill="#228be6"></path><path d="M-0.29 0.16 C83.63 -1.35, 167.09 -0.75, 231.71 1.01 M-0.53 -0.04 C78.5 -0.09, 156.83 0.92, 233.39 0 M232.26 1.19 C231.78 32.11, 234.92 61.2, 233.17 86.05 M233.48 -0.27 C233.3 31.04, 233.57 61.1, 232.38 88.64 M232.13 86.36 C173.06 87.48, 110.5 90.75, -0.89 87.6 M233.24 88.58 C185.29 89.47, 137.33 88.84, -0.01 88.21 M-0.68 89.45 C0.71 56, 0.49 23.55, -1.5 0.77 M-0.25 88.02 C-0.13 53.49, 1.42 20.12, -0.99 0.19" stroke="#000000" stroke-width="1" fill="none"></path></g><g transform="translate(125.61114501953125 423.9999694824219) rotate(0 105.00000000000003 34)"><text x="105" y="23" font-family="Virgil, Segoe UI Emoji" font-size="28px" fill="#000000" text-anchor="middle" style="white-space: pre;" direction="ltr">Evaluate</text><text x="105" y="57" font-family="Virgil, Segoe UI Emoji" font-size="28px" fill="#000000" text-anchor="middle" style="white-space: pre;" direction="ltr">on an objective</text></g><g transform="translate(65.77777099609375 332.4408717646925) rotate(0 62.00000000000003 34.5)"><text x="0" y="24.5" font-family="Virgil, Segoe UI Emoji" font-size="28px" fill="#000000" text-anchor="start" style="white-space: pre;" direction="ltr">Feature </text><text x="0" y="59" font-family="Virgil, Segoe UI Emoji" font-size="28px" fill="#000000" text-anchor="start" style="white-space: pre;" direction="ltr">subset</text></g><g transform="translate(280.8333129882812 332.6109924316406) rotate(0 73.5 34.5)"><text x="0" y="24.5" font-family="Virgil, Segoe UI Emoji" font-size="28px" fill="#000000" text-anchor="start" style="white-space: pre;" direction="ltr">"Goodness"</text><text x="0" y="59" font-family="Virgil, Segoe UI Emoji" font-size="28px" fill="#000000" text-anchor="start" style="white-space: pre;" direction="ltr">of subset</text></g><g stroke-linecap="round"><g transform="translate(200.6111450195312 313.2222595214844) rotate(0 -0.1550031589771379 51.45143071435382)"><path d="M-0.67 -0.28 C-1.65 33.22, 0.6 64.86, -0.27 102.31 M0.11 0.77 C0.63 30.55, 0.64 61.59, 0.6 103.18" stroke="#000000" stroke-width="1" fill="none"></path></g><g transform="translate(200.6111450195312 313.2222595214844) rotate(0 -0.1550031589771379 51.45143071435382)"><path d="M0.4 102.26 L-6.42 90.63 L7.18 88.77 L-0.73 103.11" stroke="none" stroke-width="0" fill="#000000" fill-rule="evenodd"></path><path d="M0.09 102.97 C-2.49 99.84, -2.76 95.35, -5.94 88.65 M0.68 103.76 C-0.94 99.15, -2.8 95.52, -5.29 89.31 M-4.81 89.56 C-1.08 88.26, 3.95 90.24, 8.1 90.19 M-5.7 89.81 C-2.67 89.9, 0.95 89.45, 7.31 89.26 M7.22 91.02 C4.98 91.93, 3.05 95.13, 1.83 103.62 M6.57 88.9 C4.58 94.78, 2.8 99.98, 1.14 102.93 M0.6 103.18 C0.6 103.18, 0.6 103.18, 0.6 103.18 M0.6 103.18 C0.6 103.18, 0.6 103.18, 0.6 103.18" stroke="#000000" stroke-width="1" fill="none"></path></g></g><mask></mask><g stroke-linecap="round"><g transform="translate(251.7222290039062 412.1111145019531) rotate(0 -0.48363296292723135 -47.04064665501937)"><path d="M-0.28 -1.53 C1.52 -26.48, 0.99 -54.68, -1.74 -94.55 M0.77 0.46 C0.25 -29.35, 0.6 -59.07, -0.87 -93.85" stroke="#000000" stroke-width="1" fill="none"></path></g><g transform="translate(251.7222290039062 412.1111145019531) rotate(0 -0.48363296292723135 -47.04064665501937)"><path d="M-1.79 -94.54 L6.93 -80.21 L-7.62 -81.4 L-0.94 -94.92" stroke="none" stroke-width="0" fill="#000000" fill-rule="evenodd"></path><path d="M-1.08 -95 C1.91 -89.42, 3.56 -86.32, 4.94 -80.53 M-0.29 -93.5 C1.21 -89.27, 3.72 -84.95, 5.6 -80.01 M5.85 -80.35 C1.9 -79.7, 1.13 -79.03, -6.19 -80.42 M6.1 -80.85 C2.75 -80.57, -1.24 -79.87, -7.12 -80.69 M-5.37 -80.86 C-4.72 -86.85, -1.99 -89.52, -0.43 -92.82 M-7.49 -80.08 C-4.86 -83.5, -2.95 -87.51, -1.12 -93.31 M-0.87 -93.85 C-0.87 -93.85, -0.87 -93.85, -0.87 -93.85 M-0.87 -93.85 C-0.87 -93.85, -0.87 -93.85, -0.87 -93.85" stroke="#000000" stroke-width="1" fill="none"></path></g></g><mask></mask><g stroke-linecap="round"><g transform="translate(209.17896331569267 564.0413102484308) rotate(0 -0.5314246541820467 24.605990608688444)"><path d="M-1.53 1.2 C0.3 13.07, -0.97 23.26, -1.16 49.21 M0.46 0.01 C0.26 13.1, 0.1 24.8, -0.47 48.06" stroke="#000000" stroke-width="1" fill="none"></path></g><g transform="translate(209.17896331569267 564.0413102484308) rotate(0 -0.5314246541820467 24.605990608688444)"><path d="M-1.16 49.11 L-6.25 33.5 L4.85 34.53 L-1.54 46.16" stroke="none" stroke-width="0" fill="#000000" fill-rule="evenodd"></path><path d="M-1.62 48.95 C-1.39 45.22, -3.65 40.23, -6.57 34.56 M-0.12 48.06 C-1.68 44.95, -3.14 40.75, -6.05 33.7 M-6.39 33.09 C-1.17 35.17, 4.16 35.14, 5.84 34.34 M-6.89 34.72 C-2.09 34.33, 3.15 34.16, 5.56 35.16 M5.39 34.25 C3.43 37.47, 4.75 40.54, 0.56 47.92 M6.17 34.8 C4.78 38.73, 2.89 41.91, 0.08 48.49 M-0.47 48.06 C-0.47 48.06, -0.47 48.06, -0.47 48.06 M-0.47 48.06 C-0.47 48.06, -0.47 48.06, -0.47 48.06" stroke="#000000" stroke-width="1" fill="none"></path></g></g><mask></mask><g transform="translate(225.55554199218744 107.77777099609375) rotate(0 85.5 17)"><text x="0" y="24" font-family="Virgil, Segoe UI Emoji" font-size="28px" fill="#000000" text-anchor="start" style="white-space: pre;" direction="ltr">All features</text></g><g transform="translate(227.22216796874994 576.6666564941406) rotate(0 84.5 17)"><text x="0" y="24" font-family="Virgil, Segoe UI Emoji" font-size="28px" fill="#000000" text-anchor="start" style="white-space: pre;" direction="ltr">Final subset</text></g><g stroke-linecap="round" transform="translate(94.27772521972656 623.7500076293945) rotate(0 116.50000000000003 44)"><path d="M-0.82 -1.33 L232.92 -1.07 L231.11 89.89 L1.58 87.29" stroke="none" stroke-width="0" fill="#be4bdb"></path><path d="M0.69 -0.23 C51.05 -0.8, 104.47 -1.44, 233.19 1.3 M0.43 0.5 C80.42 -0.44, 160.76 -0.32, 233.62 -0.02 M234.17 1.83 C233.09 26.59, 231.72 55.58, 233.1 88.7 M232.92 0.58 C233.04 19.98, 234.43 40.92, 233.19 88.95 M233.1 89.39 C175.83 87.28, 117.53 85.83, -0.84 86.44 M233.43 88.61 C162.99 90.06, 94.05 89.82, 0.39 88.55 M-1.82 87.57 C-0.85 68.25, -2.21 48.01, 1.24 1.43 M0.71 87.78 C0.07 70.21, -0.62 52.26, 0.52 0.12" stroke="#000000" stroke-width="1" fill="none"></path></g><g transform="translate(126.77772521972656 650.7500076293945) rotate(0 84.00000000000003 17)"><text x="84" y="23" font-family="Virgil, Segoe UI Emoji" font-size="28px" fill="#000000" text-anchor="middle" style="white-space: pre;" direction="ltr">ML model   </text></g><g stroke-linecap="round"><g transform="translate(284.773709921342 647.2889692832982) rotate(376.85473525232663 -0.9147793656772478 -4.362492887544022)"><path d="M-0.54 -0.04 C-0.47 -3.25, -1.08 -5.09, -1.3 -8.55 M-0.16 0.26 C-1 -2.64, -0.91 -5.96, -1.67 -8.98" stroke="#000000" stroke-width="1" fill="none"></path></g></g><mask></mask><g stroke-linecap="round" transform="translate(283.121812073271 634.1438483924353) rotate(376.85473525232663 1.8436416873424832 2.1272788700106275)"><path d="M1.49 0.44 C1.94 0.25, 3.88 -0.33, 4.2 -0.08 C4.53 0.18, 3.63 1.52, 3.47 1.97 C3.31 2.42, 3.49 2.15, 3.22 2.63 C2.95 3.11, 2.15 4.81, 1.87 4.86 C1.59 4.91, 1.83 3.44, 1.57 2.93 C1.3 2.42, 0.39 2.1, 0.27 1.79 C0.15 1.48, 0.69 1.37, 0.85 1.09 C1.01 0.82, 1 0.34, 1.23 0.14 C1.46 -0.06, 1.84 -0.2, 2.23 -0.1 C2.63 -0.01, 3.59 0.73, 3.59 0.71 M3.22 1.18 C3.64 1.63, 2.64 1.93, 2.47 1.92 C2.29 1.9, 2.2 0.83, 2.19 1.08 C2.17 1.33, 2.45 2.87, 2.38 3.43 C2.32 3.99, 1.77 4.23, 1.81 4.44 C1.86 4.66, 2.7 4.69, 2.66 4.72 C2.62 4.75, 2 5.36, 1.58 4.65 C1.16 3.94, 0.1 1.31, 0.16 0.45 C0.21 -0.41, 1.6 -0.6, 1.91 -0.51 C2.22 -0.42, 2.09 1.1, 1.99 0.99 C1.9 0.88, 1.54 -0.85, 1.35 -1.17" stroke="none" stroke-width="0" fill="#ffff"></path><path d="M2.76 0.47 C3.21 0.54, 2.9 0.75, 3.14 1.09 C3.38 1.43, 4.21 2.05, 4.19 2.52 C4.16 2.99, 3.44 3.53, 2.99 3.93 C2.54 4.33, 1.7 4.9, 1.5 4.92 C1.31 4.94, 2.02 4.52, 1.81 4.04 C1.61 3.56, 0.48 2.38, 0.26 2.07 C0.04 1.76, 0.27 2.38, 0.51 2.18 C0.75 1.98, 1.46 1.26, 1.69 0.87 C1.92 0.48, 1.69 -0.06, 1.91 -0.18 C2.13 -0.29, 2.92 0.21, 3.02 0.18 M3.29 -0.67 C3.5 -0.32, 2.13 1.75, 1.95 2.31 C1.77 2.87, 1.77 2.61, 2.2 2.71 C2.62 2.81, 4.61 2.91, 4.5 2.92 C4.39 2.94, 2.16 2.47, 1.54 2.82 C0.93 3.17, 0.97 4.9, 0.79 5.03 C0.61 5.16, 0.59 4.29, 0.47 3.59 C0.36 2.9, 0.09 1.67, 0.08 0.87 C0.07 0.06, 0.03 -1.17, 0.42 -1.23 C0.81 -1.29, 1.89 0.13, 2.41 0.48 C2.92 0.84, 3.34 1.02, 3.51 0.9" stroke="#000000" stroke-width="1" fill="none"></path></g><g stroke-linecap="round"><g transform="translate(287.754455334802 665.7294752426478) rotate(356.02471234182775 -0.7944133814709176 18.50973196019197)" fill-rule="evenodd"><path d="M1.47 -0.04 L6.93 1.45 L8.92 13.3 L5.63 33.13 L-1.31 36.51 L-1.93 37.11 L-6.06 28.71 L-7.4 7.18 L-7.32 5.55 L-1.03 -1.94" stroke="none" stroke-width="0" fill="#ffff" fill-rule="evenodd"></path><path d="M-0.06 0.19 C1.23 1.42, 6.8 1.24, 7.59 6.66 C8.39 12.08, 6.86 27.9, 4.72 32.73 C2.59 37.57, -3.09 39.68, -5.22 35.66 C-7.35 31.64, -8.86 14.45, -8.06 8.62 C-7.27 2.8, -1.62 2, -0.45 0.71 M-1.55 -0.76 C-0.45 0.76, 5.38 3.03, 6.38 8.27 C7.38 13.51, 6.33 26.49, 4.44 30.68 C2.55 34.87, -2.69 36.95, -4.97 33.4 C-7.24 29.86, -10.16 14.95, -9.21 9.39 C-8.26 3.83, -0.66 1.61, 0.73 0.05" stroke="#000000" stroke-width="1" fill="none"></path></g></g><mask></mask><g stroke-linecap="round"><g transform="translate(296.4537622994655 673.8828789486156) rotate(7.182594496707925 6.389376072375967 -15.957542608451604)"><path d="M0.19 -0.51 C2.63 -2.79, 13.16 -8.56, 13.9 -13.7 C14.64 -18.85, 6.19 -28.55, 4.65 -31.4 M-1.17 -1.83 C1.19 -4.42, 12.13 -10.63, 13.02 -15.34 C13.91 -20.05, 5.47 -27.13, 4.17 -30.08" stroke="#000000" stroke-width="1" fill="none"></path></g></g><mask></mask><g stroke-linecap="round"><g transform="translate(275.2442651989065 675.2858141397041) rotate(348.60478902668814 -6.466279885225447 -15.510172833008482)"><path d="M-0.51 0.13 C-2.75 -1.13, -12.16 -2.53, -13.52 -7.4 C-14.88 -12.28, -9.58 -25.52, -8.67 -29.11 M1.42 -0.84 C-0.89 -2.48, -12.17 -4.18, -13.98 -9.23 C-15.79 -14.28, -10.51 -27.5, -9.43 -31.15" stroke="#000000" stroke-width="1" fill="none"></path></g></g><mask></mask><g stroke-linecap="round" transform="translate(272.20944352191253 647.6192723059189) rotate(350.1341930569157 12.043813694595144 7.916386918540638)"><path d="M4.28 -0.85 L23.32 2.53 L24.03 14.85 L1.95 15.86 L1.44 1.48 L5.14 -1.66" stroke="none" stroke-width="0" fill="#ffff"></path><path d="M3.96 0 M3.96 0 C10.15 -1.57, 16.8 0.95, 20.13 0 M3.96 0 C10.12 0.58, 16.67 0.33, 20.13 0 M20.13 0 C21.53 1.27, 23.36 1.15, 24.09 3.96 M20.13 0 C24.1 -1.18, 21.85 3.32, 24.09 3.96 M24.09 3.96 C23.69 5.37, 23.35 7.2, 24.09 11.87 M24.09 3.96 C24.07 6.92, 23.91 9.64, 24.09 11.87 M24.09 11.87 C24.07 15.02, 24.24 16.84, 20.13 15.83 M24.09 11.87 C25.75 13.74, 24.44 17.16, 20.13 15.83 M20.13 15.83 C13.35 16.56, 10.46 14.46, 3.96 15.83 M20.13 15.83 C14.87 15.66, 11.63 16.41, 3.96 15.83 M3.96 15.83 C-0.66 16.21, -1.95 15.93, 0 11.87 M3.96 15.83 C0.82 16.38, -0.22 13.46, 0 11.87 M0 11.87 C-0.37 9.25, -0.07 7.24, 0 3.96 M0 11.87 C-0.22 10.63, -0.46 8.46, 0 3.96 M0 3.96 C-1.43 1.68, 0.39 0.44, 3.96 0 M0 3.96 C2.17 2.21, 3.34 2.18, 3.96 0" stroke="#000000" stroke-width="1" fill="none"></path></g><g stroke-linecap="round"><g transform="translate(288.4833241413248 658.5292892727903) rotate(0 -4.172709924431672 1.9200778162014558)" fill-rule="evenodd"><path d="M0.9 1.17 L-10.47 0.94 L-4.06 4.2 L4.45 -1.66 L0.7 -1.24" stroke="none" stroke-width="0" fill="#ffff" fill-rule="evenodd"></path><path d="M0.93 0.56 C0.05 0.7, -3.68 0.94, -5.78 0.96 C-7.89 0.98, -11.99 -0.03, -11.69 0.7 C-11.39 1.43, -6.27 5.6, -3.97 5.34 C-1.67 5.08, 1.32 0.02, 2.13 -0.87 C2.94 -1.76, 1.22 0.02, 0.88 -0.03 M-0.05 -0.19 C-1.04 -0.42, -4.71 -0.68, -6.73 -0.86 C-8.74 -1.04, -12.6 -1.93, -12.14 -1.26 C-11.68 -0.6, -6.61 2.95, -3.96 3.16 C-1.3 3.36, 3.28 0.7, 3.79 -0.01 C4.3 -0.72, -0.4 -1.17, -0.9 -1.08" stroke="#000000" stroke-width="1" fill="none"></path></g></g><mask></mask><g stroke-linecap="round" transform="translate(276.7972649039711 649.999272680665) rotate(0 2.472667749080074 2.7457634552328045)"><path d="M1.4 -0.65 C1.84 -0.79, 2.22 0.57, 2.85 0.7 C3.49 0.83, 4.81 -0.07, 5.19 0.14 C5.56 0.35, 5.16 1.24, 5.13 1.96 C5.09 2.67, 5.32 3.86, 4.96 4.43 C4.6 5, 3.69 5.34, 2.97 5.38 C2.25 5.42, 1.02 4.97, 0.63 4.68 C0.24 4.39, 0.76 4.25, 0.62 3.63 C0.48 3.01, -0.43 1.66, -0.2 0.97 C0.03 0.28, 1.66 -0.5, 1.98 -0.49 C2.31 -0.48, 1.59 0.93, 1.74 1.01 M2.55 0.58 C3.13 0.97, 3.45 1.44, 4.06 2.03 C4.68 2.63, 6.07 3.41, 6.24 4.16 C6.42 4.9, 5.77 6.49, 5.11 6.49 C4.45 6.48, 2.81 4.6, 2.28 4.12 C1.75 3.63, 2.27 3.61, 1.93 3.56 C1.58 3.52, 0.5 4.47, 0.19 3.85 C-0.13 3.23, -0.08 0.68, 0.06 -0.15 C0.19 -0.97, 0.62 -1.1, 0.98 -1.08 C1.34 -1.05, 1.76 -0.19, 2.2 0.01 C2.65 0.21, 3.68 -0.14, 3.65 0.12" stroke="none" stroke-width="0" fill="#ffff"></path><path d="M2.69 0.67 C2.96 0.8, 3.14 1.5, 3.63 1.87 C4.13 2.24, 5.56 2.6, 5.68 2.9 C5.79 3.2, 4.76 3.14, 4.34 3.67 C3.93 4.2, 3.58 5.76, 3.19 6.06 C2.81 6.37, 2.58 5.96, 2.02 5.5 C1.46 5.04, 0.02 3.94, -0.17 3.3 C-0.36 2.67, 0.55 2.3, 0.87 1.69 C1.19 1.09, 1.19 -0.03, 1.73 -0.34 C2.26 -0.64, 3.75 -0.37, 4.08 -0.14 C4.41 0.09, 3.9 1.12, 3.7 1.06 M4.94 -0.53 C5.6 -0.61, 4.35 -0.72, 4.36 0.15 C4.36 1.02, 4.95 3.71, 4.95 4.69 C4.94 5.66, 4.8 5.94, 4.33 6.03 C3.86 6.12, 2.84 5.68, 2.12 5.23 C1.4 4.77, 0.34 3.62, -0.02 3.31 C-0.37 3, -0.26 3.6, 0 3.37 C0.26 3.14, 1.06 2.56, 1.55 1.93 C2.04 1.3, 2.41 -0.28, 2.92 -0.41 C3.43 -0.55, 4.4 0.89, 4.6 1.12 C4.81 1.36, 4.19 1.3, 4.15 1.01" stroke="#000000" stroke-width="1" fill="none"></path></g><g stroke-linecap="round" transform="translate(278.00802258471134 651.3182024721077) rotate(0 0.7551260790604033 1.0068347720805377)"><path d="M1.51 1.01 C1.51 1.07, 1.51 1.12, 1.5 1.18 C1.49 1.24, 1.48 1.3, 1.46 1.35 C1.45 1.41, 1.43 1.46, 1.41 1.51 C1.39 1.56, 1.36 1.61, 1.33 1.65 C1.31 1.7, 1.27 1.74, 1.24 1.78 C1.21 1.82, 1.17 1.85, 1.13 1.88 C1.09 1.91, 1.05 1.93, 1.01 1.95 C0.97 1.97, 0.93 1.99, 0.89 2 C0.84 2.01, 0.8 2.01, 0.76 2.01 C0.71 2.01, 0.67 2.01, 0.62 2 C0.58 1.99, 0.54 1.97, 0.5 1.95 C0.46 1.93, 0.42 1.91, 0.38 1.88 C0.34 1.85, 0.3 1.82, 0.27 1.78 C0.24 1.74, 0.2 1.7, 0.18 1.65 C0.15 1.61, 0.12 1.56, 0.1 1.51 C0.08 1.46, 0.06 1.41, 0.05 1.35 C0.03 1.3, 0.02 1.24, 0.01 1.18 C0 1.12, 0 1.07, 0 1.01 C0 0.95, 0 0.89, 0.01 0.83 C0.02 0.77, 0.03 0.72, 0.05 0.66 C0.06 0.61, 0.08 0.55, 0.1 0.5 C0.12 0.45, 0.15 0.4, 0.18 0.36 C0.2 0.32, 0.24 0.27, 0.27 0.24 C0.3 0.2, 0.34 0.16, 0.38 0.13 C0.42 0.11, 0.46 0.08, 0.5 0.06 C0.54 0.04, 0.58 0.03, 0.62 0.02 C0.67 0.01, 0.71 0, 0.76 0 C0.8 0, 0.84 0.01, 0.89 0.02 C0.93 0.03, 0.97 0.04, 1.01 0.06 C1.05 0.08, 1.09 0.11, 1.13 0.13 C1.17 0.16, 1.21 0.2, 1.24 0.24 C1.27 0.27, 1.31 0.32, 1.33 0.36 C1.36 0.4, 1.39 0.45, 1.41 0.5 C1.43 0.55, 1.45 0.61, 1.46 0.66 C1.48 0.72, 1.49 0.77, 1.5 0.83 C1.51 0.89, 1.51 0.98, 1.51 1.01 C1.51 1.04, 1.51 0.98, 1.51 1.01" stroke="none" stroke-width="0" fill="#ffff"></path><path d="M1.51 1.01 C1.51 1.07, 1.51 1.12, 1.5 1.18 C1.49 1.24, 1.48 1.3, 1.46 1.35 C1.45 1.41, 1.43 1.46, 1.41 1.51 C1.39 1.56, 1.36 1.61, 1.33 1.65 C1.31 1.7, 1.27 1.74, 1.24 1.78 C1.21 1.82, 1.17 1.85, 1.13 1.88 C1.09 1.91, 1.05 1.93, 1.01 1.95 C0.97 1.97, 0.93 1.99, 0.89 2 C0.84 2.01, 0.8 2.01, 0.76 2.01 C0.71 2.01, 0.67 2.01, 0.62 2 C0.58 1.99, 0.54 1.97, 0.5 1.95 C0.46 1.93, 0.42 1.91, 0.38 1.88 C0.34 1.85, 0.3 1.82, 0.27 1.78 C0.24 1.74, 0.2 1.7, 0.18 1.65 C0.15 1.61, 0.12 1.56, 0.1 1.51 C0.08 1.46, 0.06 1.41, 0.05 1.35 C0.03 1.3, 0.02 1.24, 0.01 1.18 C0 1.12, 0 1.07, 0 1.01 C0 0.95, 0 0.89, 0.01 0.83 C0.02 0.77, 0.03 0.72, 0.05 0.66 C0.06 0.61, 0.08 0.55, 0.1 0.5 C0.12 0.45, 0.15 0.4, 0.18 0.36 C0.2 0.32, 0.24 0.27, 0.27 0.24 C0.3 0.2, 0.34 0.16, 0.38 0.13 C0.42 0.11, 0.46 0.08, 0.5 0.06 C0.54 0.04, 0.58 0.03, 0.62 0.02 C0.67 0.01, 0.71 0, 0.76 0 C0.8 0, 0.84 0.01, 0.89 0.02 C0.93 0.03, 0.97 0.04, 1.01 0.06 C1.05 0.08, 1.09 0.11, 1.13 0.13 C1.17 0.16, 1.21 0.2, 1.24 0.24 C1.27 0.27, 1.31 0.32, 1.33 0.36 C1.36 0.4, 1.39 0.45, 1.41 0.5 C1.43 0.55, 1.45 0.61, 1.46 0.66 C1.48 0.72, 1.49 0.77, 1.5 0.83 C1.51 0.89, 1.51 0.98, 1.51 1.01 C1.51 1.04, 1.51 0.98, 1.51 1.01" stroke="#000000" stroke-width="1" fill="none"></path></g><g stroke-linecap="round" transform="translate(285.62914886958873 649.4104804162903) rotate(0 2.472667749080074 2.7457634552328045)"><path d="M1.95 0.64 C2.56 0.53, 4.01 -0.6, 4.52 -0.55 C5.04 -0.5, 4.86 0.27, 5.02 0.96 C5.18 1.65, 5.66 2.9, 5.46 3.59 C5.26 4.28, 4.51 4.84, 3.84 5.09 C3.18 5.34, 1.94 5.17, 1.47 5.08 C1 4.99, 1.34 5.05, 1.03 4.53 C0.72 4.01, -0.34 2.65, -0.41 1.95 C-0.48 1.25, 0.32 0.51, 0.62 0.35 C0.92 0.18, 0.96 1.05, 1.41 0.95 C1.86 0.84, 3.02 -0.03, 3.34 -0.3 M1.26 0.39 C2.16 0.29, 4.24 0.44, 5.04 0.9 C5.85 1.36, 6.09 2.91, 6.08 3.13 C6.07 3.36, 5.13 2.09, 4.96 2.24 C4.79 2.39, 5.51 3.33, 5.07 4.04 C4.63 4.74, 3.13 6.57, 2.32 6.46 C1.5 6.34, 0.73 4.16, 0.18 3.37 C-0.37 2.58, -0.78 2.14, -0.96 1.71 C-1.14 1.27, -1.39 1.07, -0.89 0.75 C-0.4 0.44, 1.78 -0.25, 2.01 -0.19 C2.24 -0.12, 0.66 1.21, 0.49 1.12" stroke="none" stroke-width="0" fill="#ffff"></path><path d="M2.37 0.87 C3.04 0.89, 4.84 1.02, 5.28 1.23 C5.72 1.44, 5.12 1.43, 5.01 2.11 C4.9 2.8, 4.86 4.7, 4.61 5.34 C4.36 5.98, 4.17 6.07, 3.52 5.96 C2.87 5.86, 1.18 5.15, 0.71 4.73 C0.25 4.3, 0.74 4.05, 0.72 3.41 C0.71 2.77, 0.38 1.47, 0.62 0.88 C0.86 0.28, 1.64 -0.16, 2.14 -0.15 C2.65 -0.13, 3.39 0.96, 3.64 0.95 C3.88 0.95, 3.49 0.04, 3.63 -0.18 M2.35 -1.42 C2.63 -1.07, 3.81 1.22, 4.32 2.05 C4.82 2.88, 5.37 3.22, 5.37 3.56 C5.38 3.89, 4.85 4, 4.35 4.08 C3.85 4.16, 2.85 3.77, 2.36 4.02 C1.87 4.27, 1.57 5.5, 1.4 5.6 C1.23 5.71, 1.37 5.33, 1.33 4.65 C1.29 3.96, 1.04 2.06, 1.18 1.51 C1.31 0.96, 1.79 1.49, 2.16 1.35 C2.52 1.22, 3.11 1.11, 3.36 0.71 C3.61 0.31, 3.69 -1.21, 3.67 -1.06" stroke="#000000" stroke-width="1" fill="none"></path></g><g stroke-linecap="round" transform="translate(286.8399065503299 650.7294102077335) rotate(0 0.7551260790604033 1.0068347720805377)"><path d="M1.51 1.01 C1.51 1.07, 1.51 1.12, 1.5 1.18 C1.49 1.24, 1.48 1.3, 1.46 1.35 C1.45 1.41, 1.43 1.46, 1.41 1.51 C1.39 1.56, 1.36 1.61, 1.33 1.65 C1.31 1.7, 1.27 1.74, 1.24 1.78 C1.21 1.82, 1.17 1.85, 1.13 1.88 C1.09 1.91, 1.05 1.93, 1.01 1.95 C0.97 1.97, 0.93 1.99, 0.89 2 C0.84 2.01, 0.8 2.01, 0.76 2.01 C0.71 2.01, 0.67 2.01, 0.62 2 C0.58 1.99, 0.54 1.97, 0.5 1.95 C0.46 1.93, 0.42 1.91, 0.38 1.88 C0.34 1.85, 0.3 1.82, 0.27 1.78 C0.24 1.74, 0.2 1.7, 0.18 1.65 C0.15 1.61, 0.12 1.56, 0.1 1.51 C0.08 1.46, 0.06 1.41, 0.05 1.35 C0.03 1.3, 0.02 1.24, 0.01 1.18 C0 1.12, 0 1.07, 0 1.01 C0 0.95, 0 0.89, 0.01 0.83 C0.02 0.77, 0.03 0.72, 0.05 0.66 C0.06 0.61, 0.08 0.55, 0.1 0.5 C0.12 0.45, 0.15 0.4, 0.18 0.36 C0.2 0.32, 0.24 0.27, 0.27 0.24 C0.3 0.2, 0.34 0.16, 0.38 0.13 C0.42 0.11, 0.46 0.08, 0.5 0.06 C0.54 0.04, 0.58 0.03, 0.62 0.02 C0.67 0.01, 0.71 0, 0.76 0 C0.8 0, 0.84 0.01, 0.89 0.02 C0.93 0.03, 0.97 0.04, 1.01 0.06 C1.05 0.08, 1.09 0.11, 1.13 0.13 C1.17 0.16, 1.21 0.2, 1.24 0.24 C1.27 0.27, 1.31 0.32, 1.33 0.36 C1.36 0.4, 1.39 0.45, 1.41 0.5 C1.43 0.55, 1.45 0.61, 1.46 0.66 C1.48 0.72, 1.49 0.77, 1.5 0.83 C1.51 0.89, 1.51 0.98, 1.51 1.01 C1.51 1.04, 1.51 0.98, 1.51 1.01" stroke="none" stroke-width="0" fill="#ffff"></path><path d="M1.51 1.01 C1.51 1.07, 1.51 1.12, 1.5 1.18 C1.49 1.24, 1.48 1.3, 1.46 1.35 C1.45 1.41, 1.43 1.46, 1.41 1.51 C1.39 1.56, 1.36 1.61, 1.33 1.65 C1.31 1.7, 1.27 1.74, 1.24 1.78 C1.21 1.82, 1.17 1.85, 1.13 1.88 C1.09 1.91, 1.05 1.93, 1.01 1.95 C0.97 1.97, 0.93 1.99, 0.89 2 C0.84 2.01, 0.8 2.01, 0.76 2.01 C0.71 2.01, 0.67 2.01, 0.62 2 C0.58 1.99, 0.54 1.97, 0.5 1.95 C0.46 1.93, 0.42 1.91, 0.38 1.88 C0.34 1.85, 0.3 1.82, 0.27 1.78 C0.24 1.74, 0.2 1.7, 0.18 1.65 C0.15 1.61, 0.12 1.56, 0.1 1.51 C0.08 1.46, 0.06 1.41, 0.05 1.35 C0.03 1.3, 0.02 1.24, 0.01 1.18 C0 1.12, 0 1.07, 0 1.01 C0 0.95, 0 0.89, 0.01 0.83 C0.02 0.77, 0.03 0.72, 0.05 0.66 C0.06 0.61, 0.08 0.55, 0.1 0.5 C0.12 0.45, 0.15 0.4, 0.18 0.36 C0.2 0.32, 0.24 0.27, 0.27 0.24 C0.3 0.2, 0.34 0.16, 0.38 0.13 C0.42 0.11, 0.46 0.08, 0.5 0.06 C0.54 0.04, 0.58 0.03, 0.62 0.02 C0.67 0.01, 0.71 0, 0.76 0 C0.8 0, 0.84 0.01, 0.89 0.02 C0.93 0.03, 0.97 0.04, 1.01 0.06 C1.05 0.08, 1.09 0.11, 1.13 0.13 C1.17 0.16, 1.21 0.2, 1.24 0.24 C1.27 0.27, 1.31 0.32, 1.33 0.36 C1.36 0.4, 1.39 0.45, 1.41 0.5 C1.43 0.55, 1.45 0.61, 1.46 0.66 C1.48 0.72, 1.49 0.77, 1.5 0.83 C1.51 0.89, 1.51 0.98, 1.51 1.01 C1.51 1.04, 1.51 0.98, 1.51 1.01" stroke="#000000" stroke-width="1" fill="none"></path></g></svg>