<?xml version="1.0" encoding="UTF-8" standalone="no"?>
<svg
   xmlns:dc="http://purl.org/dc/elements/1.1/"
   xmlns:cc="http://creativecommons.org/ns#"
   xmlns:rdf="http://www.w3.org/1999/02/22-rdf-syntax-ns#"
   xmlns:svg="http://www.w3.org/2000/svg"
   xmlns="http://www.w3.org/2000/svg"
   xmlns:sodipodi="http://sodipodi.sourceforge.net/DTD/sodipodi-0.dtd"
   xmlns:inkscape="http://www.inkscape.org/namespaces/inkscape"
   version="1.1"
   viewBox="0 0 781.30971 225.9362"
   stroke-miterlimit="10"
   id="svg121"
   sodipodi:docname="machine-learning-development-process.svg"
   inkscape:version="0.92.2pre0 (973e216, 2017-07-25)"
   width="781.30969"
   height="254.38397"
   style="fill:none;stroke:none;stroke-linecap:square;stroke-miterlimit:10">
  <metadata
     id="metadata127">
    <rdf:RDF>
      <cc:Work
         rdf:about="">
        <dc:format>image/svg+xml</dc:format>
        <dc:type
           rdf:resource="http://purl.org/dc/dcmitype/StillImage" />
        <dc:title></dc:title>
      </cc:Work>
    </rdf:RDF>
  </metadata>
  <defs
     id="defs125" />
  <sodipodi:namedview
     pagecolor="#ffffff"
     bordercolor="#666666"
     borderopacity="1"
     objecttolerance="10"
     gridtolerance="10"
     guidetolerance="10"
     inkscape:pageopacity="0"
     inkscape:pageshadow="2"
     inkscape:window-width="1348"
     inkscape:window-height="757"
     id="namedview123"
     showgrid="false"
     inkscape:zoom="0.73722367"
     inkscape:cx="456.87907"
     inkscape:cy="103.80761"
     inkscape:window-x="0"
     inkscape:window-y="0"
     inkscape:window-maximized="1"
     inkscape:current-layer="g119"
     fit-margin-top="0"
     fit-margin-left="0"
     fit-margin-right="0"
     fit-margin-bottom="5.3"
     viewbox-height="200.28" />
  <clipPath
     id="p.0">
    <path
       d="M 0,0 H 781.3097 V 389.08398 H 0 Z"
       id="path2"
       inkscape:connector-curvature="0"
       style="clip-rule:nonzero" />
  </clipPath>
  <g
     clip-path="url(#p.0)"
     id="g119"
     transform="translate(0,-140.00001)">
    <path
       d="M 0,0 H 781.3097 V 389.08398 H 0 Z"
       id="path5"
       inkscape:connector-curvature="0"
       style="fill:#000000;fill-opacity:0;fill-rule:evenodd" />
    <path
       d="M 14.813648,218.98425 H 164.8294 V 351.99212 H 14.813648 Z"
       id="path7"
       style="fill:#cfe2f3;fill-opacity:1;fill-rule:evenodd"
       inkscape:connector-curvature="0" />
    <path
       d="M 14.813648,218.98425 H 164.8294 V 351.99212 H 14.813648 Z"
       id="path9"
       inkscape:connector-curvature="0"
       style="fill-rule:evenodd;stroke:#000000;stroke-width:1;stroke-linecap:butt;stroke-linejoin:round" />
    <path
       d="m 48.182697,251.39507 h 3.453125 q 1.765625,0 3.078125,0.73437 1.3125,0.71875 2.015625,2.01563 0.703125,1.29687 0.703125,2.96875 0,1.6875 -0.703125,2.98437 -0.703125,1.29688 -2.015625,2.03125 -1.3125,0.71875 -3.078125,0.71875 h -3.453125 z m 3.453125,10.15625 q 2.03125,0 3.21875,-1.15625 1.203125,-1.17188 1.203125,-3.28125 0,-2.09375 -1.203125,-3.25 -1.1875,-1.17188 -3.21875,-1.17188 h -2.109375 v 8.85938 z m 11.154266,1.54687 q -1.171875,0 -2.109375,-0.54688 -0.921875,-0.5625 -1.4375,-1.54687 -0.515625,-0.98438 -0.515625,-2.21875 0,-1.1875 0.484375,-2.17188 0.484375,-1 1.375,-1.59375 0.90625,-0.59375 2.09375,-0.59375 1.203125,0 2.078129,0.54688 0.875,0.53125 1.34375,1.48437 0.484375,0.9375 0.484375,2.15625 0,0.23438 -0.04687,0.40625 h -6.453129 q 0.04687,0.9375 0.4375,1.57813 0.40625,0.64062 1.015625,0.96875 0.625,0.3125 1.296875,0.3125 1.562504,0 2.421879,-1.48438 l 1.140625,0.5625 q -0.515625,1 -1.421875,1.57813 -0.90625,0.5625 -2.187504,0.5625 z m 2.343754,-5.1875 q -0.03125,-0.51563 -0.28125,-1.03125 -0.25,-0.51563 -0.8125,-0.85938 -0.546879,-0.35937 -1.375004,-0.35937 -0.96875,0 -1.640625,0.625 -0.65625,0.60937 -0.859375,1.625 z m 3.976761,-1.98438 h -1.5 v -1.23437 h 1.5 v -0.89063 q 0,-0.76562 0.34375,-1.32812 0.359375,-0.57813 0.953125,-0.89063 0.59375,-0.3125 1.3125,-0.3125 0.6875,0 1.203125,0.1875 v 1.32813 q -0.296875,-0.10938 -0.5625,-0.17188 -0.25,-0.0781 -0.59375,-0.0781 -0.53125,0 -0.921875,0.375 -0.375,0.375 -0.375,1.04687 v 0.73438 h 2.09375 v 1.23437 h -2.09375 v 6.92188 h -1.359375 z m 5.923385,-2.73437 q -0.40625,0 -0.703125,-0.28125 -0.28125,-0.29688 -0.28125,-0.70313 0,-0.40625 0.28125,-0.67187 0.296875,-0.28125 0.703125,-0.28125 0.390625,0 0.671875,0.28125 0.296875,0.26562 0.296875,0.67187 0,0.40625 -0.28125,0.70313 -0.28125,0.28125 -0.6875,0.28125 z m -0.671875,1.5 h 1.34375 v 8.15625 h -1.34375 z m 3.491013,0 h 1.28125 v 1.20312 h 0.07813 q 0.328125,-0.60937 1.0625,-1.03125 0.734375,-0.4375 1.578125,-0.4375 1.46875,0 2.234375,0.85938 0.78125,0.85937 0.78125,2.32812 v 5.23438 h -1.359375 v -5.03125 q 0,-1.125 -0.546875,-1.64063 -0.546875,-0.51562 -1.484375,-0.51562 -0.65625,0 -1.1875,0.375 -0.515625,0.35937 -0.796875,0.96875 -0.28125,0.59375 -0.28125,1.25 v 4.59375 h -1.359375 z m 12.601013,8.40625 q -1.171875,0 -2.109375,-0.54688 -0.921875,-0.5625 -1.4375,-1.54687 -0.515625,-0.98438 -0.515625,-2.21875 0,-1.1875 0.484375,-2.17188 0.484375,-1 1.375,-1.59375 0.90625,-0.59375 2.09375,-0.59375 1.203125,0 2.078125,0.54688 0.875,0.53125 1.34375,1.48437 0.484375,0.9375 0.484375,2.15625 0,0.23438 -0.04687,0.40625 h -6.453125 q 0.04687,0.9375 0.4375,1.57813 0.40625,0.64062 1.015625,0.96875 0.625,0.3125 1.296875,0.3125 1.5625,0 2.421875,-1.48438 l 1.140625,0.5625 q -0.515625,1 -1.421875,1.57813 -0.90625,0.5625 -2.1875,0.5625 z m 2.34375,-5.1875 q -0.03125,-0.51563 -0.28125,-1.03125 -0.25,-0.51563 -0.8125,-0.85938 -0.546875,-0.35937 -1.375,-0.35937 -0.96875,0 -1.640625,0.625 -0.65625,0.60937 -0.859375,1.625 z m 2.023636,4.9375 z m 7.321385,0.25 q -0.89063,0 -1.59375,-0.34375 -0.70313,-0.35938 -1.093755,-0.96875 -0.375,-0.625 -0.375,-1.40625 0,-1.29688 0.968755,-2.01563 0.98437,-0.73437 2.46875,-0.73437 0.73437,0 1.35937,0.17187 0.64063,0.15625 0.96875,0.35938 v -0.5 q 0,-0.90625 -0.64062,-1.45313 -0.625,-0.5625 -1.60938,-0.5625 -0.6875,0 -1.26562,0.29688 -0.57813,0.29687 -0.90625,0.82812 l -1.031255,-0.76562 q 0.484375,-0.73438 1.328125,-1.15625 0.84375,-0.42188 1.85938,-0.42188 1.67187,0 2.60937,0.875 0.95313,0.875 0.95313,2.375 v 5.17188 h -1.29688 v -1.17188 h -0.0625 q -0.34375,0.59375 -1.04687,1.01563 -0.70313,0.40625 -1.59375,0.40625 z m 0.14062,-1.1875 q 0.6875,0 1.26563,-0.34375 0.59375,-0.35938 0.9375,-0.95313 0.35937,-0.59375 0.35937,-1.29687 -0.375,-0.26563 -0.9375,-0.42188 -0.5625,-0.15625 -1.1875,-0.15625 -1.10937,0 -1.6875,0.46875 -0.5625,0.45313 -0.5625,1.1875 0,0.67188 0.5,1.09375 0.51563,0.42188 1.3125,0.42188 z m 4.74602,0.9375 z m 4.99325,-11.45313 h 1.96875 l 3.64063,9.39063 h 0.0625 l 3.65625,-9.39063 h 1.96875 v 11.45313 h -1.34375 v -7.28125 l 0.0625,-2.17188 h -0.0625 l -3.75,9.45313 h -1.10938 l -3.75,-9.45313 h -0.0625 l 0.0625,2.17188 v 7.28125 h -1.34375 z m 13.85604,0 h 1.34375 v 10.15625 h 5.01561 v 1.29688 h -6.35936 z m 6.86275,11.45313 z"
       id="path11"
       inkscape:connector-curvature="0"
       style="fill:#000000;fill-rule:nonzero" />
    <path
       d="m 44.790928,273.69194 h 1.296875 v 1.21875 h 0.0625 q 0.375,-0.625 1.109375,-1.04688 0.75,-0.4375 1.6875,-0.4375 1.078125,0 1.96875,0.5625 0.90625,0.5625 1.40625,1.5625 0.515625,0.98438 0.515625,2.21875 0,1.25 -0.515625,2.23438 -0.5,0.98437 -1.40625,1.54687 -0.890625,0.54688 -1.96875,0.54688 -0.9375,0 -1.6875,-0.42188 -0.734375,-0.42187 -1.109375,-1.03125 h -0.0625 l 0.0625,1.125 v 3.53125 h -1.359375 z m 3.984375,7.1875 q 0.703125,0 1.328125,-0.39063 0.625,-0.39062 1,-1.09375 0.375,-0.71875 0.375,-1.625 0,-0.90625 -0.375,-1.625 -0.375,-0.71875 -1,-1.09375 -0.625,-0.39062 -1.328125,-0.39062 -0.703125,0 -1.328125,0.39062 -0.625,0.375 -1,1.07813 -0.359375,0.70312 -0.359375,1.64062 0,0.92188 0.359375,1.625 0.375,0.70313 1,1.09375 0.625,0.39063 1.328125,0.39063 z m 5.661774,-7.1875 h 1.28125 v 1.3125 h 0.07813 q 0.234375,-0.67188 0.921875,-1.10938 0.6875,-0.45312 1.4375,-0.45312 0.5625,0 0.96875,0.17187 v 1.46875 q -0.515625,-0.26562 -1.15625,-0.26562 -0.59375,0 -1.09375,0.34375 -0.5,0.32812 -0.796875,0.90625 -0.28125,0.5625 -0.28125,1.21875 v 4.5625 h -1.359375 z m 9.750019,8.40625 q -1.203129,0 -2.171879,-0.5625 -0.953125,-0.57813 -1.484375,-1.5625 -0.53125,-1 -0.53125,-2.20313 0,-1.20312 0.53125,-2.1875 0.53125,-1 1.484375,-1.57812 0.96875,-0.57813 2.171879,-0.57813 1.203125,0 2.15625,0.57813 0.96875,0.57812 1.5,1.57812 0.53125,0.98438 0.53125,2.1875 0,1.20313 -0.53125,2.20313 -0.53125,0.98437 -1.5,1.5625 -0.953125,0.5625 -2.15625,0.5625 z m 0,-1.21875 q 0.75,0 1.390625,-0.375 0.65625,-0.39063 1.046875,-1.09375 0.390625,-0.70313 0.390625,-1.64063 0,-0.95312 -0.390625,-1.65625 -0.390625,-0.70312 -1.046875,-1.07812 -0.640625,-0.375 -1.390625,-0.375 -0.750004,0 -1.406254,0.375 -0.65625,0.375 -1.046875,1.07812 -0.390625,0.70313 -0.390625,1.65625 0,0.9375 0.390625,1.64063 0.390625,0.70312 1.046875,1.09375 0.65625,0.375 1.406254,0.375 z m 9.926651,1.21875 q -0.9375,0 -1.6875,-0.42188 -0.734375,-0.42187 -1.09375,-1.03125 h -0.07813 v 1.20313 h -1.28125 v -11.45313 h 1.359375 v 3.375 l -0.07813,1.14063 h 0.07813 q 0.359375,-0.625 1.09375,-1.04688 0.75,-0.4375 1.6875,-0.4375 1.078125,0 1.96875,0.5625 0.90625,0.5625 1.421875,1.5625 0.515625,0.98438 0.515625,2.21875 0,1.25 -0.515625,2.23438 -0.515625,0.98437 -1.421875,1.54687 -0.890625,0.54688 -1.96875,0.54688 z m -0.171875,-1.21875 q 0.71875,0 1.328125,-0.39063 0.625,-0.39062 1,-1.09375 0.390625,-0.71875 0.390625,-1.625 0,-0.90625 -0.390625,-1.625 -0.375,-0.71875 -1,-1.09375 -0.609375,-0.39062 -1.328125,-0.39062 -0.703125,0 -1.328125,0.39062 -0.609375,0.375 -0.984375,1.07813 -0.375,0.70312 -0.375,1.64062 0,0.92188 0.375,1.625 0.375,0.70313 0.984375,1.09375 0.625,0.39063 1.328125,0.39063 z m 5.663269,-10.48438 h 1.359375 v 11.45313 h -1.359375 z m 7.001007,11.70313 q -1.171875,0 -2.109375,-0.54688 -0.921875,-0.5625 -1.4375,-1.54687 -0.515625,-0.98438 -0.515625,-2.21875 0,-1.1875 0.484375,-2.17188 0.484375,-1 1.375,-1.59375 0.90625,-0.59375 2.09375,-0.59375 1.203125,0 2.078125,0.54688 0.875,0.53125 1.34375,1.48437 0.484375,0.9375 0.484375,2.15625 0,0.23438 -0.04687,0.40625 h -6.453125 q 0.04687,0.9375 0.4375,1.57813 0.40625,0.64062 1.015625,0.96875 0.625,0.3125 1.296875,0.3125 1.5625,0 2.421875,-1.48438 l 1.140625,0.5625 q -0.515625,1 -1.421875,1.57813 -0.90625,0.5625 -2.1875,0.5625 z m 2.34375,-5.1875 q -0.03125,-0.51563 -0.28125,-1.03125 -0.25,-0.51563 -0.8125,-0.85938 -0.546875,-0.35937 -1.375,-0.35937 -0.96875,0 -1.640625,0.625 -0.65625,0.60937 -0.859375,1.625 z m 3.039261,-3.21875 h 1.28125 v 1.20312 h 0.07813 q 0.34375,-0.625 1.046875,-1.04687 0.703125,-0.42188 1.484375,-0.42188 0.90625,0 1.5625,0.4375 0.671875,0.4375 0.953125,1.15625 0.4375,-0.71875 1.140625,-1.15625 0.718741,-0.4375 1.656241,-0.4375 1.40625,0 2.125,0.85938 0.71875,0.85937 0.71875,2.32812 v 5.23438 h -1.34375 v -5.03125 q 0,-1.125 -0.46875,-1.64063 -0.46875,-0.51562 -1.375,-0.51562 -0.60937,0 -1.109366,0.35937 -0.5,0.34375 -0.78125,0.9375 -0.265625,0.59375 -0.265625,1.28125 v 4.60938 h -1.359375 v -5.01563 q 0,-1.14062 -0.46875,-1.65625 -0.46875,-0.51562 -1.359375,-0.51562 -0.609375,0 -1.109375,0.35937 -0.5,0.35938 -0.78125,0.96875 -0.265625,0.59375 -0.265625,1.28125 v 4.57813 h -1.359375 z m 12.984401,8.15625 z m 7.32138,0.25 q -0.89062,0 -1.59375,-0.34375 -0.70312,-0.35938 -1.09375,-0.96875 -0.375,-0.625 -0.375,-1.40625 0,-1.29688 0.96875,-2.01563 0.98438,-0.73437 2.46875,-0.73437 0.73438,0 1.35938,0.17187 0.64062,0.15625 0.96875,0.35938 v -0.5 q 0,-0.90625 -0.64063,-1.45313 -0.625,-0.5625 -1.60937,-0.5625 -0.6875,0 -1.26563,0.29688 -0.57812,0.29687 -0.90625,0.82812 l -1.03125,-0.76562 q 0.48438,-0.73438 1.32813,-1.15625 0.84375,-0.42188 1.85937,-0.42188 1.67188,0 2.60938,0.875 0.95312,0.875 0.95312,2.375 v 5.17188 h -1.29687 v -1.17188 h -0.0625 q -0.34375,0.59375 -1.04688,1.01563 -0.70312,0.40625 -1.59375,0.40625 z m 0.14063,-1.1875 q 0.6875,0 1.26562,-0.34375 0.59375,-0.35938 0.9375,-0.95313 0.35938,-0.59375 0.35938,-1.29687 -0.375,-0.26563 -0.9375,-0.42188 -0.5625,-0.15625 -1.1875,-0.15625 -1.10938,0 -1.6875,0.46875 -0.5625,0.45313 -0.5625,1.1875 0,0.67188 0.5,1.09375 0.51562,0.42188 1.3125,0.42188 z m 5.76164,-7.21875 h 1.28125 v 1.20312 h 0.0781 q 0.32812,-0.60937 1.0625,-1.03125 0.73437,-0.4375 1.57812,-0.4375 1.46875,0 2.23438,0.85938 0.78125,0.85937 0.78125,2.32812 v 5.23438 h -1.35938 v -5.03125 q 0,-1.125 -0.54687,-1.64063 -0.54688,-0.51562 -1.48438,-0.51562 -0.65625,0 -1.1875,0.375 -0.51562,0.35937 -0.79687,0.96875 -0.28125,0.59375 -0.28125,1.25 v 4.59375 h -1.35938 z m 12.42913,8.40625 q -1.09375,0 -1.98437,-0.54688 -0.89062,-0.5625 -1.40624,-1.54687 -0.5,-0.98438 -0.5,-2.23438 0,-1.23437 0.5,-2.21875 0.51562,-1 1.40624,-1.5625 0.89062,-0.5625 1.98437,-0.5625 0.9375,0 1.67188,0.4375 0.73437,0.42188 1.125,1.04688 h 0.0625 l -0.0625,-1.14063 v -3.375 h 1.35937 v 11.45313 h -1.29687 v -1.20313 h -0.0625 q -0.39063,0.60938 -1.125,1.03125 -0.73438,0.42188 -1.67188,0.42188 z m 0.15625,-1.21875 q 0.71875,0 1.32813,-0.39063 0.625,-0.39062 1,-1.09375 0.375,-0.70312 0.375,-1.625 0,-0.9375 -0.375,-1.64062 -0.375,-0.70313 -1,-1.07813 -0.60938,-0.39062 -1.32813,-0.39062 -0.70312,0 -1.32812,0.39062 -0.625,0.375 -1,1.09375 -0.375,0.71875 -0.375,1.625 0,0.90625 0.375,1.625 0.375,0.70313 1,1.09375 0.625,0.39063 1.32812,0.39063 z m 5.00702,0.96875 z"
       id="path13"
       inkscape:connector-curvature="0"
       style="fill:#000000;fill-rule:nonzero" />
    <path
       d="m 54.262943,292.69194 h 1.296875 v 1.21875 h 0.0625 q 0.375,-0.625 1.109375,-1.04688 0.75,-0.4375 1.6875,-0.4375 1.078125,0 1.96875,0.5625 0.90625,0.5625 1.40625,1.5625 0.515625,0.98438 0.515625,2.21875 0,1.25 -0.515625,2.23438 -0.5,0.98437 -1.40625,1.54687 -0.890625,0.54688 -1.96875,0.54688 -0.9375,0 -1.6875,-0.42188 -0.734375,-0.42187 -1.109375,-1.03125 h -0.0625 l 0.0625,1.125 v 3.53125 h -1.359375 z m 3.984375,7.1875 q 0.703125,0 1.328125,-0.39063 0.625,-0.39062 1,-1.09375 0.375,-0.71875 0.375,-1.625 0,-0.90625 -0.375,-1.625 -0.375,-0.71875 -1,-1.09375 -0.625,-0.39062 -1.328125,-0.39062 -0.703125,0 -1.328125,0.39062 -0.625,0.375 -1,1.07813 -0.359375,0.70312 -0.359375,1.64062 0,0.92188 0.359375,1.625 0.375,0.70313 1,1.09375 0.625,0.39063 1.328125,0.39063 z m 5.661774,-7.1875 h 1.281253 v 1.3125 h 0.07813 q 0.234375,-0.67188 0.921875,-1.10938 0.6875,-0.45312 1.4375,-0.45312 0.5625,0 0.96875,0.17187 v 1.46875 q -0.515625,-0.26562 -1.15625,-0.26562 -0.59375,0 -1.09375,0.34375 -0.5,0.32812 -0.796875,0.90625 -0.28125,0.5625 -0.28125,1.21875 v 4.5625 h -1.359378 z m 9.750019,8.40625 q -1.203125,0 -2.171875,-0.5625 -0.953125,-0.57813 -1.484375,-1.5625 -0.53125,-1 -0.53125,-2.20313 0,-1.20312 0.53125,-2.1875 0.53125,-1 1.484375,-1.57812 0.96875,-0.57813 2.171875,-0.57813 1.203125,0 2.15625,0.57813 0.96875,0.57812 1.5,1.57812 0.53125,0.98438 0.53125,2.1875 0,1.20313 -0.53125,2.20313 -0.53125,0.98437 -1.5,1.5625 -0.953125,0.5625 -2.15625,0.5625 z m 0,-1.21875 q 0.75,0 1.390625,-0.375 0.65625,-0.39063 1.046875,-1.09375 0.390625,-0.70313 0.390625,-1.64063 0,-0.95312 -0.390625,-1.65625 -0.390625,-0.70312 -1.046875,-1.07812 -0.640625,-0.375 -1.390625,-0.375 -0.75,0 -1.40625,0.375 -0.65625,0.375 -1.046875,1.07812 -0.390625,0.70313 -0.390625,1.65625 0,0.9375 0.390625,1.64063 0.390625,0.70312 1.046875,1.09375 0.65625,0.375 1.40625,0.375 z m 5.707901,-7.1875 h 1.296875 v 1.21875 h 0.0625 q 0.375,-0.625 1.109375,-1.04688 0.75,-0.4375 1.6875,-0.4375 1.078125,0 1.96875,0.5625 0.90625,0.5625 1.40625,1.5625 0.515625,0.98438 0.515625,2.21875 0,1.25 -0.515625,2.23438 -0.5,0.98437 -1.40625,1.54687 -0.890625,0.54688 -1.96875,0.54688 -0.9375,0 -1.6875,-0.42188 -0.734375,-0.42187 -1.109375,-1.03125 h -0.0625 l 0.0625,1.125 v 3.53125 h -1.359375 z m 3.984375,7.1875 q 0.703125,0 1.328125,-0.39063 0.625,-0.39062 1,-1.09375 0.375,-0.71875 0.375,-1.625 0,-0.90625 -0.375,-1.625 -0.375,-0.71875 -1,-1.09375 -0.625,-0.39062 -1.328125,-0.39062 -0.703125,0 -1.328125,0.39062 -0.625,0.375 -1,1.07813 -0.359375,0.70312 -0.359375,1.64062 0,0.92188 0.359375,1.625 0.375,0.70313 1,1.09375 0.625,0.39063 1.328125,0.39063 z m 9.411774,1.21875 q -1.203125,0 -2.171875,-0.5625 -0.953125,-0.57813 -1.484375,-1.5625 -0.53125,-1 -0.53125,-2.20313 0,-1.20312 0.53125,-2.1875 0.53125,-1 1.484375,-1.57812 0.96875,-0.57813 2.171875,-0.57813 1.203125,0 2.15625,0.57813 0.96875,0.57812 1.5,1.57812 0.53125,0.98438 0.53125,2.1875 0,1.20313 -0.53125,2.20313 -0.53125,0.98437 -1.5,1.5625 -0.953125,0.5625 -2.15625,0.5625 z m 0,-1.21875 q 0.75,0 1.390625,-0.375 0.65625,-0.39063 1.046875,-1.09375 0.390625,-0.70313 0.390625,-1.64063 0,-0.95312 -0.390625,-1.65625 -0.390625,-0.70312 -1.046875,-1.07812 -0.640625,-0.375 -1.390625,-0.375 -0.75,0 -1.40625,0.375 -0.65625,0.375 -1.046875,1.07812 -0.390625,0.70313 -0.390625,1.65625 0,0.9375 0.390625,1.64063 0.390625,0.70312 1.046875,1.09375 0.65625,0.375 1.40625,0.375 z m 8.629779,1.21875 q -1.3125,0 -2.203128,-0.60938 -0.875,-0.60937 -1.234375,-1.57812 l 1.203125,-0.54688 q 0.3125,0.73438 0.906248,1.14063 0.60938,0.40625 1.32813,0.40625 0.76562,0 1.3125,-0.3125 0.54687,-0.3125 0.54687,-0.89063 0,-0.51562 -0.4375,-0.82812 -0.4375,-0.3125 -1.35937,-0.53125 l -1,-0.26563 q -0.968753,-0.23437 -1.593753,-0.8125 -0.625,-0.57812 -0.625,-1.48437 0,-0.70313 0.421875,-1.23438 0.421875,-0.54687 1.125,-0.82812 0.703128,-0.29688 1.531248,-0.29688 1.0625,0 1.90625,0.46875 0.84375,0.46875 1.1875,1.29688 l -1.17187,0.54687 q -0.54688,-1.09375 -1.9375,-1.09375 -0.67188,0 -1.1875,0.3125 -0.500003,0.3125 -0.500003,0.79688 0,0.45312 0.34375,0.73437 0.359373,0.26563 1.062503,0.45313 l 1.1875,0.29687 q 1.20312,0.3125 1.8125,0.90625 0.60937,0.59375 0.60937,1.46875 0,0.75 -0.4375,1.3125 -0.4375,0.5625 -1.17187,0.875 -0.73438,0.29688 -1.625,0.29688 z m 8.34925,0 q -1.17187,0 -2.10937,-0.54688 -0.92188,-0.5625 -1.4375,-1.54687 -0.51563,-0.98438 -0.51563,-2.21875 0,-1.1875 0.48438,-2.17188 0.48437,-1 1.375,-1.59375 0.90625,-0.59375 2.09375,-0.59375 1.20312,0 2.07812,0.54688 0.875,0.53125 1.34375,1.48437 0.48438,0.9375 0.48438,2.15625 0,0.23438 -0.0469,0.40625 h -6.45312 q 0.0469,0.9375 0.4375,1.57813 0.40625,0.64062 1.01562,0.96875 0.625,0.3125 1.29688,0.3125 1.5625,0 2.42187,-1.48438 l 1.14063,0.5625 q -0.51563,1 -1.42188,1.57813 -0.90625,0.5625 -2.1875,0.5625 z m 2.34375,-5.1875 q -0.0312,-0.51563 -0.28125,-1.03125 -0.25,-0.51563 -0.8125,-0.85938 -0.54687,-0.35937 -1.375,-0.35937 -0.96875,0 -1.64062,0.625 -0.65625,0.60937 -0.85938,1.625 z m 2.02364,4.9375 z m 7.32138,0.25 q -0.89062,0 -1.59375,-0.34375 -0.70312,-0.35938 -1.09375,-0.96875 -0.375,-0.625 -0.375,-1.40625 0,-1.29688 0.96875,-2.01563 0.98438,-0.73437 2.46875,-0.73437 0.73438,0 1.35938,0.17187 0.64062,0.15625 0.96875,0.35938 v -0.5 q 0,-0.90625 -0.64063,-1.45313 -0.625,-0.5625 -1.60937,-0.5625 -0.6875,0 -1.26563,0.29688 -0.57812,0.29687 -0.90625,0.82812 l -1.03125,-0.76562 q 0.48438,-0.73438 1.32813,-1.15625 0.84375,-0.42188 1.85937,-0.42188 1.67188,0 2.60938,0.875 0.95312,0.875 0.95312,2.375 v 5.17188 h -1.29687 v -1.17188 h -0.0625 q -0.34375,0.59375 -1.04688,1.01563 -0.70312,0.40625 -1.59375,0.40625 z m 0.14063,-1.1875 q 0.6875,0 1.26562,-0.34375 0.59375,-0.35938 0.9375,-0.95313 0.35938,-0.59375 0.35938,-1.29687 -0.375,-0.26563 -0.9375,-0.42188 -0.5625,-0.15625 -1.1875,-0.15625 -1.10938,0 -1.6875,0.46875 -0.5625,0.45313 -0.5625,1.1875 0,0.67188 0.5,1.09375 0.51562,0.42188 1.3125,0.42188 z m 4.74601,0.9375 z"
       id="path15"
       inkscape:connector-curvature="0"
       style="fill:#000000;fill-rule:nonzero" />
    <path
       d="m 64.96084,320.09819 q -1.312504,0 -2.203129,-0.60938 -0.875,-0.60937 -1.234375,-1.57812 l 1.203125,-0.54688 q 0.3125,0.73438 0.90625,1.14063 0.609379,0.40625 1.328129,0.40625 0.765625,0 1.3125,-0.3125 0.546875,-0.3125 0.546875,-0.89063 0,-0.51562 -0.4375,-0.82812 -0.4375,-0.3125 -1.359375,-0.53125 l -1,-0.26563 q -0.968754,-0.23437 -1.593754,-0.8125 -0.625,-0.57812 -0.625,-1.48437 0,-0.70313 0.421875,-1.23438 0.421875,-0.54687 1.125,-0.82812 0.703129,-0.29688 1.531254,-0.29688 1.0625,0 1.90625,0.46875 0.84375,0.46875 1.1875,1.29688 l -1.171875,0.54687 q -0.546875,-1.09375 -1.9375,-1.09375 -0.671875,0 -1.187504,0.3125 -0.5,0.3125 -0.5,0.79688 0,0.45312 0.34375,0.73437 0.359375,0.26563 1.062504,0.45313 l 1.1875,0.29687 q 1.203125,0.3125 1.8125,0.90625 0.609375,0.59375 0.609375,1.46875 0,0.75 -0.4375,1.3125 -0.4375,0.5625 -1.171875,0.875 -0.734375,0.29688 -1.625,0.29688 z m 8.474258,0 q -1.203125,0 -2.171875,-0.5625 -0.953125,-0.57813 -1.484375,-1.5625 -0.53125,-1 -0.53125,-2.20313 0,-1.20312 0.53125,-2.1875 0.53125,-1 1.484375,-1.57812 0.96875,-0.57813 2.171875,-0.57813 1.203125,0 2.15625,0.57813 0.96875,0.57812 1.5,1.57812 0.53125,0.98438 0.53125,2.1875 0,1.20313 -0.53125,2.20313 -0.53125,0.98437 -1.5,1.5625 -0.953125,0.5625 -2.15625,0.5625 z m 0,-1.21875 q 0.75,0 1.390625,-0.375 0.65625,-0.39063 1.046875,-1.09375 0.390625,-0.70313 0.390625,-1.64063 0,-0.95312 -0.390625,-1.65625 -0.390625,-0.70312 -1.046875,-1.07812 -0.640625,-0.375 -1.390625,-0.375 -0.75,0 -1.40625,0.375 -0.65625,0.375 -1.046875,1.07812 -0.390625,0.70313 -0.390625,1.65625 0,0.9375 0.390625,1.64063 0.390625,0.70312 1.046875,1.09375 0.65625,0.375 1.40625,0.375 z m 5.786026,-10.48438 h 1.359375 v 11.45313 h -1.359375 z m 6.329132,11.70313 q -1.46875,0 -2.25,-0.85938 -0.78125,-0.85937 -0.78125,-2.42187 v -5.125 h 1.359375 v 4.92187 q 0,1.17188 0.53125,1.71875 0.53125,0.54688 1.421875,0.54688 0.6875,0 1.21875,-0.375 0.546875,-0.375 0.84375,-0.95313 0.296875,-0.59375 0.296875,-1.25 v -4.60937 h 1.359375 v 8.15625 h -1.296875 v -1.1875 h -0.0625 q -0.34375,0.60937 -1.078125,1.03125 -0.734375,0.40625 -1.5625,0.40625 z m 9.147888,-0.125 q -0.5,0 -0.921875,-0.15625 -0.421875,-0.15625 -0.703125,-0.4375 -0.328125,-0.29688 -0.484375,-0.6875 -0.15625,-0.40625 -0.15625,-0.98438 v -4.78125 h -1.421875 v -1.23437 h 1.421875 v -2.3125 h 1.359375 v 2.3125 h 1.984375 v 1.23437 h -1.984375 v 4.4375 q 0,0.67188 0.25,1 0.3125,0.34375 0.890625,0.34375 0.453125,0 0.890625,-0.26562 v 1.32812 q -0.234375,0.10938 -0.484375,0.15625 -0.25,0.0469 -0.640625,0.0469 z m 3.527893,-9.78125 q -0.40625,0 -0.703125,-0.28125 -0.28125,-0.29688 -0.28125,-0.70313 0,-0.40625 0.28125,-0.67187 0.296875,-0.28125 0.703125,-0.28125 0.390625,0 0.671875,0.28125 0.296875,0.26562 0.296875,0.67187 0,0.40625 -0.28125,0.70313 -0.28125,0.28125 -0.6875,0.28125 z m -0.671875,1.5 h 1.34375 v 8.15625 h -1.34375 z m 7.241008,8.40625 q -1.20312,0 -2.17187,-0.5625 -0.95313,-0.57813 -1.48438,-1.5625 -0.53125,-1 -0.53125,-2.20313 0,-1.20312 0.53125,-2.1875 0.53125,-1 1.48438,-1.57812 0.96875,-0.57813 2.17187,-0.57813 1.20313,0 2.15625,0.57813 0.96875,0.57812 1.5,1.57812 0.53125,0.98438 0.53125,2.1875 0,1.20313 -0.53125,2.20313 -0.53125,0.98437 -1.5,1.5625 -0.95312,0.5625 -2.15625,0.5625 z m 0,-1.21875 q 0.75,0 1.39063,-0.375 0.65625,-0.39063 1.04687,-1.09375 0.39063,-0.70313 0.39063,-1.64063 0,-0.95312 -0.39063,-1.65625 -0.39062,-0.70312 -1.04687,-1.07812 -0.64063,-0.375 -1.39063,-0.375 -0.75,0 -1.40625,0.375 -0.65625,0.375 -1.04687,1.07812 -0.39063,0.70313 -0.39063,1.65625 0,0.9375 0.39063,1.64063 0.39062,0.70312 1.04687,1.09375 0.65625,0.375 1.40625,0.375 z m 5.78603,-7.1875 h 1.28125 v 1.20312 h 0.0781 q 0.32812,-0.60937 1.0625,-1.03125 0.73437,-0.4375 1.57812,-0.4375 1.46875,0 2.23438,0.85938 0.78125,0.85937 0.78125,2.32812 v 5.23438 h -1.35938 v -5.03125 q 0,-1.125 -0.54687,-1.64063 -0.54688,-0.51562 -1.48438,-0.51562 -0.65625,0 -1.1875,0.375 -0.51562,0.35937 -0.79687,0.96875 -0.28125,0.59375 -0.28125,1.25 v 4.59375 h -1.35938 z"
       id="path17"
       inkscape:connector-curvature="0"
       style="fill:#000000;fill-rule:nonzero" />
    <path
       d="M 193.07939,218.98425 H 308.07153 V 351.99212 H 193.07939 Z"
       id="path19"
       inkscape:connector-curvature="0"
       style="fill:#cfe2f3;fill-rule:evenodd" />
    <path
       d="M 193.07939,218.98425 H 308.07153 V 351.99212 H 193.07939 Z"
       id="path21"
       inkscape:connector-curvature="0"
       style="fill-rule:evenodd;stroke:#000000;stroke-width:1;stroke-linecap:butt;stroke-linejoin:round" />
    <path
       d="m 220.55164,282.09819 q -1.67188,0 -3.03125,-0.78125 -1.35938,-0.78125 -2.14063,-2.14063 -0.76562,-1.375 -0.76562,-3.0625 0,-1.67187 0.76562,-3.03125 0.78125,-1.375 2.14063,-2.15625 1.35937,-0.79687 3.03125,-0.79687 1.28125,0 2.34375,0.5 1.0625,0.48437 1.84375,1.375 l -0.96875,0.95312 q -0.65625,-0.79687 -1.4375,-1.15625 -0.78125,-0.375 -1.78125,-0.375 -1.25,0 -2.29688,0.59375 -1.03125,0.57813 -1.65625,1.64063 -0.60937,1.0625 -0.60937,2.45312 0,1.39063 0.60937,2.46875 0.625,1.0625 1.65625,1.64063 1.04688,0.57812 2.29688,0.57812 2.07812,0 3.53125,-1.70312 l 1,0.95312 q -0.79688,0.95313 -1.96875,1.5 -1.17188,0.54688 -2.5625,0.54688 z m 9.96539,0 q -1.20312,0 -2.17187,-0.5625 -0.95313,-0.57813 -1.48438,-1.5625 -0.53125,-1 -0.53125,-2.20313 0,-1.20312 0.53125,-2.1875 0.53125,-1 1.48438,-1.57812 0.96875,-0.57813 2.17187,-0.57813 1.20313,0 2.15625,0.57813 0.96875,0.57812 1.5,1.57812 0.53125,0.98438 0.53125,2.1875 0,1.20313 -0.53125,2.20313 -0.53125,0.98437 -1.5,1.5625 -0.95312,0.5625 -2.15625,0.5625 z m 0,-1.21875 q 0.75,0 1.39063,-0.375 0.65625,-0.39063 1.04687,-1.09375 0.39063,-0.70313 0.39063,-1.64063 0,-0.95312 -0.39063,-1.65625 -0.39062,-0.70312 -1.04687,-1.07812 -0.64063,-0.375 -1.39063,-0.375 -0.75,0 -1.40625,0.375 -0.65625,0.375 -1.04687,1.07812 -0.39063,0.70313 -0.39063,1.65625 0,0.9375 0.39063,1.64063 0.39062,0.70312 1.04687,1.09375 0.65625,0.375 1.40625,0.375 z m 5.78603,-7.1875 h 1.28125 v 1.20312 h 0.0781 q 0.32813,-0.60937 1.0625,-1.03125 0.73438,-0.4375 1.57813,-0.4375 1.46875,0 2.23437,0.85938 0.78125,0.85937 0.78125,2.32812 v 5.23438 h -1.35937 v -5.03125 q 0,-1.125 -0.54688,-1.64063 -0.54687,-0.51562 -1.48437,-0.51562 -0.65625,0 -1.1875,0.375 -0.51563,0.35937 -0.79688,0.96875 -0.28125,0.59375 -0.28125,1.25 v 4.59375 h -1.35937 z m 11.81976,8.40625 q -1.3125,0 -2.20312,-0.60938 -0.875,-0.60937 -1.23438,-1.57812 l 1.20313,-0.54688 q 0.3125,0.73438 0.90625,1.14063 0.60937,0.40625 1.32812,0.40625 0.76563,0 1.3125,-0.3125 0.54688,-0.3125 0.54688,-0.89063 0,-0.51562 -0.4375,-0.82812 -0.4375,-0.3125 -1.35938,-0.53125 l -1,-0.26563 q -0.96875,-0.23437 -1.59375,-0.8125 -0.625,-0.57812 -0.625,-1.48437 0,-0.70313 0.42188,-1.23438 0.42187,-0.54687 1.125,-0.82812 0.70312,-0.29688 1.53125,-0.29688 1.0625,0 1.90625,0.46875 0.84375,0.46875 1.1875,1.29688 l -1.17188,0.54687 q -0.54687,-1.09375 -1.9375,-1.09375 -0.67187,0 -1.1875,0.3125 -0.5,0.3125 -0.5,0.79688 0,0.45312 0.34375,0.73437 0.35938,0.26563 1.0625,0.45313 l 1.1875,0.29687 q 1.20313,0.3125 1.8125,0.90625 0.60938,0.59375 0.60938,1.46875 0,0.75 -0.4375,1.3125 -0.4375,0.5625 -1.17188,0.875 -0.73437,0.29688 -1.625,0.29688 z m 7.84926,-0.125 q -0.5,0 -0.92187,-0.15625 -0.42188,-0.15625 -0.70313,-0.4375 -0.32812,-0.29688 -0.48437,-0.6875 -0.15625,-0.40625 -0.15625,-0.98438 v -4.78125 h -1.42188 v -1.23437 h 1.42188 v -2.3125 h 1.35937 v 2.3125 h 1.98438 v 1.23437 h -1.98438 v 4.4375 q 0,0.67188 0.25,1 0.3125,0.34375 0.89063,0.34375 0.45312,0 0.89062,-0.26562 v 1.32812 q -0.23437,0.10938 -0.48437,0.15625 -0.25,0.0469 -0.64063,0.0469 z m 2.73102,-8.28125 h 1.28125 v 1.3125 h 0.0781 q 0.23438,-0.67188 0.92188,-1.10938 0.6875,-0.45312 1.4375,-0.45312 0.5625,0 0.96875,0.17187 v 1.46875 q -0.51563,-0.26562 -1.15625,-0.26562 -0.59375,0 -1.09375,0.34375 -0.5,0.32812 -0.79688,0.90625 -0.28125,0.5625 -0.28125,1.21875 v 4.5625 h -1.35937 z m 8.95312,8.40625 q -1.46875,0 -2.25,-0.85938 -0.78125,-0.85937 -0.78125,-2.42187 v -5.125 h 1.35938 v 4.92187 q 0,1.17188 0.53125,1.71875 0.53125,0.54688 1.42187,0.54688 0.6875,0 1.21875,-0.375 0.54688,-0.375 0.84375,-0.95313 0.29688,-0.59375 0.29688,-1.25 v -4.60937 h 1.35937 v 8.15625 h -1.29687 v -1.1875 h -0.0625 q -0.34375,0.60937 -1.07813,1.03125 -0.73437,0.40625 -1.5625,0.40625 z m 9.71039,0 q -1.1875,0 -2.14062,-0.5625 -0.9375,-0.5625 -1.46875,-1.54688 -0.51563,-0.98437 -0.51563,-2.21875 0,-1.23437 0.51563,-2.21875 0.53125,-1 1.46875,-1.5625 0.95312,-0.5625 2.14062,-0.5625 1.32813,0 2.23438,0.625 0.90625,0.60938 1.28125,1.64063 l -1.23438,0.51562 q -0.29687,-0.76562 -0.90625,-1.15625 -0.59375,-0.39062 -1.4375,-0.39062 -0.71875,0 -1.34375,0.39062 -0.625,0.39063 -1,1.10938 -0.375,0.70312 -0.375,1.60937 0,0.90625 0.375,1.60938 0.375,0.70312 1,1.10937 0.625,0.39063 1.34375,0.39063 0.85938,0 1.48438,-0.40625 0.625,-0.40625 0.9375,-1.14063 l 1.20312,0.51563 q -0.40625,1.01562 -1.32812,1.64062 -0.92188,0.60938 -2.23438,0.60938 z m 8.17352,-0.125 q -0.5,0 -0.92187,-0.15625 -0.42188,-0.15625 -0.70313,-0.4375 -0.32812,-0.29688 -0.48437,-0.6875 -0.15625,-0.40625 -0.15625,-0.98438 v -4.78125 h -1.42188 v -1.23437 h 1.42188 v -2.3125 h 1.35937 v 2.3125 h 1.98438 v 1.23437 h -1.98438 v 4.4375 q 0,0.67188 0.25,1 0.3125,0.34375 0.89063,0.34375 0.45312,0 0.89062,-0.26562 v 1.32812 q -0.23437,0.10938 -0.48437,0.15625 -0.25,0.0469 -0.64063,0.0469 z m 1.7154,-0.125 z"
       id="path23"
       inkscape:connector-curvature="0"
       style="fill:#000000;fill-rule:nonzero" />
    <path
       d="m 208.37936,300.33257 -3.375,-7.64063 h 1.46875 l 2.5625,6.0625 h 0.0312 l 2.46875,-6.0625 h 1.46875 l -5.03125,11.60938 h -1.40625 z m 9.52164,0.76562 q -1.20313,0 -2.17188,-0.5625 -0.95312,-0.57812 -1.48437,-1.5625 -0.53125,-1 -0.53125,-2.20312 0,-1.20313 0.53125,-2.1875 0.53125,-1 1.48437,-1.57813 0.96875,-0.57812 2.17188,-0.57812 1.20312,0 2.15625,0.57812 0.96875,0.57813 1.5,1.57813 0.53125,0.98437 0.53125,2.1875 0,1.20312 -0.53125,2.20312 -0.53125,0.98438 -1.5,1.5625 -0.95313,0.5625 -2.15625,0.5625 z m 0,-1.21875 q 0.75,0 1.39062,-0.375 0.65625,-0.39062 1.04688,-1.09375 0.39062,-0.70312 0.39062,-1.64062 0,-0.95313 -0.39062,-1.65625 -0.39063,-0.70313 -1.04688,-1.07813 -0.64062,-0.375 -1.39062,-0.375 -0.75,0 -1.40625,0.375 -0.65625,0.375 -1.04688,1.07813 -0.39062,0.70312 -0.39062,1.65625 0,0.9375 0.39062,1.64062 0.39063,0.70313 1.04688,1.09375 0.65625,0.375 1.40625,0.375 z m 8.73915,1.21875 q -1.46875,0 -2.25,-0.85937 -0.78125,-0.85938 -0.78125,-2.42188 v -5.125 h 1.35937 v 4.92188 q 0,1.17187 0.53125,1.71875 0.53125,0.54687 1.42188,0.54687 0.6875,0 1.21875,-0.375 0.54687,-0.375 0.84375,-0.95312 0.29687,-0.59375 0.29687,-1.25 v -4.60938 h 1.35938 v 8.15625 h -1.29688 v -1.1875 h -0.0625 q -0.34375,0.60938 -1.07812,1.03125 -0.73438,0.40625 -1.5625,0.40625 z m 6.02289,-8.40625 h 1.28125 v 1.3125 h 0.0781 q 0.23438,-0.67187 0.92188,-1.10937 0.6875,-0.45313 1.4375,-0.45313 0.5625,0 0.96875,0.17188 v 1.46875 q -0.51563,-0.26563 -1.15625,-0.26563 -0.59375,0 -1.09375,0.34375 -0.5,0.32813 -0.79688,0.90625 -0.28125,0.5625 -0.28125,1.21875 v 4.5625 h -1.35937 z m 4.98439,8.15625 z m 8.18075,0.25 q -1.09375,0 -1.98437,-0.54687 -0.89063,-0.5625 -1.40625,-1.54688 -0.5,-0.98437 -0.5,-2.23437 0,-1.23438 0.5,-2.21875 0.51562,-1 1.40625,-1.5625 0.89062,-0.5625 1.98437,-0.5625 0.9375,0 1.67188,0.4375 0.73437,0.42187 1.125,1.04687 h 0.0625 l -0.0625,-1.14062 v -3.375 h 1.35937 v 11.45312 h -1.29687 v -1.20312 h -0.0625 q -0.39063,0.60937 -1.125,1.03125 -0.73438,0.42187 -1.67188,0.42187 z m 0.15625,-1.21875 q 0.71875,0 1.32813,-0.39062 0.625,-0.39063 1,-1.09375 0.375,-0.70313 0.375,-1.625 0,-0.9375 -0.375,-1.64063 -0.375,-0.70312 -1,-1.07812 -0.60938,-0.39063 -1.32813,-0.39063 -0.70312,0 -1.32812,0.39063 -0.625,0.375 -1,1.09375 -0.375,0.71875 -0.375,1.625 0,0.90625 0.375,1.625 0.375,0.70312 1,1.09375 0.625,0.39062 1.32812,0.39062 z m 8.6164,1.21875 q -0.89063,0 -1.59375,-0.34375 -0.70313,-0.35937 -1.09375,-0.96875 -0.375,-0.625 -0.375,-1.40625 0,-1.29687 0.96875,-2.01562 0.98437,-0.73438 2.46875,-0.73438 0.73437,0 1.35937,0.17188 0.64063,0.15625 0.96875,0.35937 v -0.5 q 0,-0.90625 -0.64062,-1.45312 -0.625,-0.5625 -1.60938,-0.5625 -0.6875,0 -1.26562,0.29687 -0.57813,0.29688 -0.90625,0.82813 l -1.03125,-0.76563 q 0.48437,-0.73437 1.32812,-1.15625 0.84375,-0.42187 1.85938,-0.42187 1.67187,0 2.60937,0.875 0.95313,0.875 0.95313,2.375 v 5.17187 h -1.29688 v -1.17187 h -0.0625 q -0.34375,0.59375 -1.04687,1.01562 -0.70313,0.40625 -1.59375,0.40625 z m 0.14062,-1.1875 q 0.6875,0 1.26563,-0.34375 0.59375,-0.35937 0.9375,-0.95312 0.35937,-0.59375 0.35937,-1.29688 -0.375,-0.26562 -0.9375,-0.42187 -0.5625,-0.15625 -1.1875,-0.15625 -1.10937,0 -1.6875,0.46875 -0.5625,0.45312 -0.5625,1.1875 0,0.67187 0.5,1.09375 0.51563,0.42187 1.3125,0.42187 z m 8.88666,1.0625 q -0.5,0 -0.92188,-0.15625 -0.42187,-0.15625 -0.70312,-0.4375 -0.32813,-0.29687 -0.48438,-0.6875 -0.15625,-0.40625 -0.15625,-0.98437 v -4.78125 h -1.42187 v -1.23438 h 1.42187 v -2.3125 h 1.35938 v 2.3125 h 1.98437 v 1.23438 h -1.98437 v 4.4375 q 0,0.67187 0.25,1 0.3125,0.34375 0.89062,0.34375 0.45313,0 0.89063,-0.26563 v 1.32813 q -0.23438,0.10937 -0.48438,0.15625 -0.25,0.0469 -0.64062,0.0469 z m 5.32477,0.125 q -0.89063,0 -1.59375,-0.34375 -0.70313,-0.35937 -1.09375,-0.96875 -0.375,-0.625 -0.375,-1.40625 0,-1.29687 0.96875,-2.01562 0.98437,-0.73438 2.46875,-0.73438 0.73437,0 1.35937,0.17188 0.64063,0.15625 0.96875,0.35937 v -0.5 q 0,-0.90625 -0.64062,-1.45312 -0.625,-0.5625 -1.60938,-0.5625 -0.6875,0 -1.26562,0.29687 -0.57813,0.29688 -0.90625,0.82813 l -1.03125,-0.76563 q 0.48437,-0.73437 1.32812,-1.15625 0.84375,-0.42187 1.85938,-0.42187 1.67187,0 2.60937,0.875 0.95313,0.875 0.95313,2.375 v 5.17187 H 271.656 v -1.17187 h -0.0625 q -0.34375,0.59375 -1.04687,1.01562 -0.70313,0.40625 -1.59375,0.40625 z m 0.14062,-1.1875 q 0.6875,0 1.26563,-0.34375 0.59375,-0.35937 0.9375,-0.95312 0.35937,-0.59375 0.35937,-1.29688 -0.375,-0.26562 -0.9375,-0.42187 -0.5625,-0.15625 -1.1875,-0.15625 -1.10937,0 -1.6875,0.46875 -0.5625,0.45312 -0.5625,1.1875 0,0.67187 0.5,1.09375 0.51563,0.42187 1.3125,0.42187 z m 8.60538,1.1875 q -1.3125,0 -2.20313,-0.60937 -0.875,-0.60938 -1.23437,-1.57813 l 1.20312,-0.54687 q 0.3125,0.73437 0.90625,1.14062 0.60938,0.40625 1.32813,0.40625 0.76562,0 1.3125,-0.3125 0.54687,-0.3125 0.54687,-0.89062 0,-0.51563 -0.4375,-0.82813 -0.4375,-0.3125 -1.35937,-0.53125 l -1,-0.26562 q -0.96875,-0.23438 -1.59375,-0.8125 -0.625,-0.57813 -0.625,-1.48438 0,-0.70312 0.42187,-1.23437 0.42188,-0.54688 1.125,-0.82813 0.70313,-0.29687 1.53125,-0.29687 1.0625,0 1.90625,0.46875 0.84375,0.46875 1.1875,1.29687 l -1.17187,0.54688 q -0.54688,-1.09375 -1.9375,-1.09375 -0.67188,0 -1.1875,0.3125 -0.5,0.3125 -0.5,0.79687 0,0.45313 0.34375,0.73438 0.35937,0.26562 1.0625,0.45312 l 1.1875,0.29688 q 1.20312,0.3125 1.8125,0.90625 0.60937,0.59375 0.60937,1.46875 0,0.75 -0.4375,1.3125 -0.4375,0.5625 -1.17187,0.875 -0.73438,0.29687 -1.625,0.29687 z m 8.34927,0 q -1.17187,0 -2.10937,-0.54687 -0.92188,-0.5625 -1.4375,-1.54688 -0.51563,-0.98437 -0.51563,-2.21875 0,-1.1875 0.48438,-2.17187 0.48437,-1 1.375,-1.59375 0.90625,-0.59375 2.09375,-0.59375 1.20312,0 2.07812,0.54687 0.875,0.53125 1.34375,1.48438 0.48438,0.9375 0.48438,2.15625 0,0.23437 -0.0469,0.40625 h -6.45312 q 0.0469,0.9375 0.4375,1.57812 0.40625,0.64063 1.01562,0.96875 0.625,0.3125 1.29688,0.3125 1.5625,0 2.42187,-1.48437 l 1.14063,0.5625 q -0.51563,1 -1.42188,1.57812 -0.90625,0.5625 -2.1875,0.5625 z m 2.34375,-5.1875 q -0.0312,-0.51562 -0.28125,-1.03125 -0.25,-0.51562 -0.8125,-0.85937 -0.54687,-0.35938 -1.375,-0.35938 -0.96875,0 -1.64062,0.625 -0.65625,0.60938 -0.85938,1.625 z m 6.16425,5.0625 q -0.5,0 -0.92188,-0.15625 -0.42187,-0.15625 -0.70312,-0.4375 -0.32813,-0.29687 -0.48438,-0.6875 -0.15625,-0.40625 -0.15625,-0.98437 v -4.78125 h -1.42187 v -1.23438 h 1.42187 v -2.3125 h 1.35938 v 2.3125 h 1.98437 v 1.23438 h -1.98437 v 4.4375 q 0,0.67187 0.25,1 0.3125,0.34375 0.89062,0.34375 0.45313,0 0.89063,-0.26563 v 1.32813 q -0.23438,0.10937 -0.48438,0.15625 -0.25,0.0469 -0.64062,0.0469 z"
       id="path25"
       inkscape:connector-curvature="0"
       style="fill:#000000;fill-rule:nonzero" />
    <path
       d="M 336.32153,218.98425 H 451.31366 V 351.99212 H 336.32153 Z"
       id="path27"
       inkscape:connector-curvature="0"
       style="fill:#cfe2f3;fill-rule:evenodd" />
    <path
       d="M 336.32153,218.98425 H 451.31366 V 351.99212 H 336.32153 Z"
       id="path29"
       inkscape:connector-curvature="0"
       style="fill-rule:evenodd;stroke:#000000;stroke-width:1;stroke-linecap:butt;stroke-linejoin:round" />
    <path
       d="m 359.81052,271.69194 h -3.20313 v -1.29688 h 7.76563 v 1.29688 h -3.20313 v 10.15625 h -1.35937 z m 6.01465,2 h 1.28125 v 1.3125 h 0.0781 q 0.23438,-0.67188 0.92188,-1.10938 0.6875,-0.45312 1.4375,-0.45312 0.5625,0 0.96875,0.17187 v 1.46875 q -0.51563,-0.26562 -1.15625,-0.26562 -0.59375,0 -1.09375,0.34375 -0.5,0.32812 -0.79688,0.90625 -0.28125,0.5625 -0.28125,1.21875 v 4.5625 h -1.35937 z m 8.59375,8.40625 q -0.89063,0 -1.59375,-0.34375 -0.70313,-0.35938 -1.09375,-0.96875 -0.375,-0.625 -0.375,-1.40625 0,-1.29688 0.96875,-2.01563 0.98437,-0.73437 2.46875,-0.73437 0.73437,0 1.35937,0.17187 0.64063,0.15625 0.96875,0.35938 v -0.5 q 0,-0.90625 -0.64062,-1.45313 -0.625,-0.5625 -1.60938,-0.5625 -0.6875,0 -1.26562,0.29688 -0.57813,0.29687 -0.90625,0.82812 l -1.03125,-0.76562 q 0.48437,-0.73438 1.32812,-1.15625 0.84375,-0.42188 1.85938,-0.42188 1.67187,0 2.60937,0.875 0.95313,0.875 0.95313,2.375 v 5.17188 h -1.29688 v -1.17188 h -0.0625 q -0.34375,0.59375 -1.04687,1.01563 -0.70313,0.40625 -1.59375,0.40625 z m 0.14062,-1.1875 q 0.6875,0 1.26563,-0.34375 0.59375,-0.35938 0.9375,-0.95313 0.35937,-0.59375 0.35937,-1.29687 -0.375,-0.26563 -0.9375,-0.42188 -0.5625,-0.15625 -1.1875,-0.15625 -1.10937,0 -1.6875,0.46875 -0.5625,0.45313 -0.5625,1.1875 0,0.67188 0.5,1.09375 0.51563,0.42188 1.3125,0.42188 z m 5.76166,-7.21875 h 1.28125 v 1.20312 h 0.0781 q 0.32812,-0.60937 1.0625,-1.03125 0.73437,-0.4375 1.57812,-0.4375 1.46875,0 2.23438,0.85938 0.78125,0.85937 0.78125,2.32812 v 5.23438 h -1.35938 v -5.03125 q 0,-1.125 -0.54687,-1.64063 -0.54688,-0.51562 -1.48438,-0.51562 -0.65625,0 -1.1875,0.375 -0.51562,0.35937 -0.79687,0.96875 -0.28125,0.59375 -0.28125,1.25 v 4.59375 h -1.35938 z m 11.81976,8.40625 q -1.3125,0 -2.20312,-0.60938 -0.875,-0.60937 -1.23438,-1.57812 l 1.20313,-0.54688 q 0.3125,0.73438 0.90625,1.14063 0.60937,0.40625 1.32812,0.40625 0.76563,0 1.3125,-0.3125 0.54688,-0.3125 0.54688,-0.89063 0,-0.51562 -0.4375,-0.82812 -0.4375,-0.3125 -1.35938,-0.53125 l -1,-0.26563 q -0.96875,-0.23437 -1.59375,-0.8125 -0.625,-0.57812 -0.625,-1.48437 0,-0.70313 0.42188,-1.23438 0.42187,-0.54687 1.125,-0.82812 0.70312,-0.29688 1.53125,-0.29688 1.0625,0 1.90625,0.46875 0.84375,0.46875 1.1875,1.29688 l -1.17188,0.54687 q -0.54687,-1.09375 -1.9375,-1.09375 -0.67187,0 -1.1875,0.3125 -0.5,0.3125 -0.5,0.79688 0,0.45312 0.34375,0.73437 0.35938,0.26563 1.0625,0.45313 l 1.1875,0.29687 q 1.20313,0.3125 1.8125,0.90625 0.60938,0.59375 0.60938,1.46875 0,0.75 -0.4375,1.3125 -0.4375,0.5625 -1.17188,0.875 -0.73437,0.29688 -1.625,0.29688 z m 5.66175,-7.17188 h -1.5 v -1.23437 h 1.5 v -0.89063 q 0,-0.76562 0.34375,-1.32812 0.35937,-0.57813 0.95312,-0.89063 0.59375,-0.3125 1.3125,-0.3125 0.6875,0 1.20313,0.1875 v 1.32813 q -0.29688,-0.10938 -0.5625,-0.17188 -0.25,-0.0781 -0.59375,-0.0781 -0.53125,0 -0.92188,0.375 -0.375,0.375 -0.375,1.04687 v 0.73438 h 2.09375 v 1.23437 h -2.09375 v 6.92188 h -1.35937 z m 8.87652,7.17188 q -1.20312,0 -2.17187,-0.5625 -0.95313,-0.57813 -1.48438,-1.5625 -0.53125,-1 -0.53125,-2.20313 0,-1.20312 0.53125,-2.1875 0.53125,-1 1.48438,-1.57812 0.96875,-0.57813 2.17187,-0.57813 1.20313,0 2.15625,0.57813 0.96875,0.57812 1.5,1.57812 0.53125,0.98438 0.53125,2.1875 0,1.20313 -0.53125,2.20313 -0.53125,0.98437 -1.5,1.5625 -0.95312,0.5625 -2.15625,0.5625 z m 0,-1.21875 q 0.75,0 1.39063,-0.375 0.65625,-0.39063 1.04687,-1.09375 0.39063,-0.70313 0.39063,-1.64063 0,-0.95312 -0.39063,-1.65625 -0.39062,-0.70312 -1.04687,-1.07812 -0.64063,-0.375 -1.39063,-0.375 -0.75,0 -1.40625,0.375 -0.65625,0.375 -1.04687,1.07812 -0.39063,0.70313 -0.39063,1.65625 0,0.9375 0.39063,1.64063 0.39062,0.70312 1.04687,1.09375 0.65625,0.375 1.40625,0.375 z m 5.78601,-7.1875 h 1.28125 v 1.3125 h 0.0781 q 0.23437,-0.67188 0.92187,-1.10938 0.6875,-0.45312 1.4375,-0.45312 0.5625,0 0.96875,0.17187 v 1.46875 q -0.51562,-0.26562 -1.15625,-0.26562 -0.59375,0 -1.09375,0.34375 -0.5,0.32812 -0.79687,0.90625 -0.28125,0.5625 -0.28125,1.21875 v 4.5625 h -1.35938 z m 6.00003,0 h 1.28125 v 1.20312 h 0.0781 q 0.34375,-0.625 1.04687,-1.04687 0.70313,-0.42188 1.48438,-0.42188 0.90625,0 1.5625,0.4375 0.67187,0.4375 0.95312,1.15625 0.4375,-0.71875 1.14063,-1.15625 0.71875,-0.4375 1.65625,-0.4375 1.40625,0 2.125,0.85938 0.71875,0.85937 0.71875,2.32812 v 5.23438 h -1.34375 v -5.03125 q 0,-1.125 -0.46875,-1.64063 -0.46875,-0.51562 -1.375,-0.51562 -0.60938,0 -1.10938,0.35937 -0.5,0.34375 -0.78125,0.9375 -0.26562,0.59375 -0.26562,1.28125 v 4.60938 h -1.35938 v -5.01563 q 0,-1.14062 -0.46875,-1.65625 -0.46875,-0.51562 -1.35937,-0.51562 -0.60938,0 -1.10938,0.35937 -0.5,0.35938 -0.78125,0.96875 -0.26562,0.59375 -0.26562,1.28125 v 4.57813 h -1.35938 z m 12.98441,8.15625 z"
       id="path31"
       inkscape:connector-curvature="0"
       style="fill:#000000;fill-rule:nonzero" />
    <path
       d="m 382.0463,301.09819 q -1.09375,0 -1.98438,-0.54688 -0.89062,-0.5625 -1.40625,-1.54687 -0.5,-0.98438 -0.5,-2.23438 0,-1.23437 0.5,-2.21875 0.51563,-1 1.40625,-1.5625 0.89063,-0.5625 1.98438,-0.5625 0.9375,0 1.67187,0.4375 0.73438,0.42188 1.125,1.04688 h 0.0625 l -0.0625,-1.14063 v -3.375 h 1.35938 v 11.45313 h -1.29688 v -1.20313 h -0.0625 q -0.39062,0.60938 -1.125,1.03125 -0.73437,0.42188 -1.67187,0.42188 z m 0.15625,-1.21875 q 0.71875,0 1.32812,-0.39063 0.625,-0.39062 1,-1.09375 0.375,-0.70312 0.375,-1.625 0,-0.9375 -0.375,-1.64062 -0.375,-0.70313 -1,-1.07813 -0.60937,-0.39062 -1.32812,-0.39062 -0.70313,0 -1.32813,0.39062 -0.625,0.375 -1,1.09375 -0.375,0.71875 -0.375,1.625 0,0.90625 0.375,1.625 0.375,0.70313 1,1.09375 0.625,0.39063 1.32813,0.39063 z m 8.61639,1.21875 q -0.89062,0 -1.59375,-0.34375 -0.70312,-0.35938 -1.09375,-0.96875 -0.375,-0.625 -0.375,-1.40625 0,-1.29688 0.96875,-2.01563 0.98438,-0.73437 2.46875,-0.73437 0.73438,0 1.35938,0.17187 0.64062,0.15625 0.96875,0.35938 v -0.5 q 0,-0.90625 -0.64063,-1.45313 -0.625,-0.5625 -1.60937,-0.5625 -0.6875,0 -1.26563,0.29688 -0.57812,0.29687 -0.90625,0.82812 l -1.03125,-0.76562 q 0.48438,-0.73438 1.32813,-1.15625 0.84375,-0.42188 1.85937,-0.42188 1.67188,0 2.60938,0.875 0.95312,0.875 0.95312,2.375 v 5.17188 h -1.29687 v -1.17188 h -0.0625 q -0.34375,0.59375 -1.04688,1.01563 -0.70312,0.40625 -1.59375,0.40625 z m 0.14063,-1.1875 q 0.6875,0 1.26562,-0.34375 0.59375,-0.35938 0.9375,-0.95313 0.35938,-0.59375 0.35938,-1.29687 -0.375,-0.26563 -0.9375,-0.42188 -0.5625,-0.15625 -1.1875,-0.15625 -1.10938,0 -1.6875,0.46875 -0.5625,0.45313 -0.5625,1.1875 0,0.67188 0.5,1.09375 0.51562,0.42188 1.3125,0.42188 z m 8.88666,1.0625 q -0.5,0 -0.92188,-0.15625 -0.42187,-0.15625 -0.70312,-0.4375 -0.32813,-0.29688 -0.48438,-0.6875 -0.15625,-0.40625 -0.15625,-0.98438 v -4.78125 h -1.42187 v -1.23437 h 1.42187 v -2.3125 h 1.35938 v 2.3125 h 1.98437 v 1.23437 h -1.98437 v 4.4375 q 0,0.67188 0.25,1 0.3125,0.34375 0.89062,0.34375 0.45313,0 0.89063,-0.26562 v 1.32812 q -0.23438,0.10938 -0.48438,0.15625 -0.25,0.0469 -0.64062,0.0469 z m 5.32476,0.125 q -0.89062,0 -1.59375,-0.34375 -0.70312,-0.35938 -1.09375,-0.96875 -0.375,-0.625 -0.375,-1.40625 0,-1.29688 0.96875,-2.01563 0.98438,-0.73437 2.46875,-0.73437 0.73438,0 1.35938,0.17187 0.64062,0.15625 0.96875,0.35938 v -0.5 q 0,-0.90625 -0.64063,-1.45313 -0.625,-0.5625 -1.60937,-0.5625 -0.6875,0 -1.26563,0.29688 -0.57812,0.29687 -0.90625,0.82812 l -1.03125,-0.76562 q 0.48438,-0.73438 1.32813,-1.15625 0.84375,-0.42188 1.85937,-0.42188 1.67188,0 2.60938,0.875 0.95312,0.875 0.95312,2.375 v 5.17188 h -1.29687 v -1.17188 h -0.0625 q -0.34375,0.59375 -1.04688,1.01563 -0.70312,0.40625 -1.59375,0.40625 z m 0.14063,-1.1875 q 0.6875,0 1.26562,-0.34375 0.59375,-0.35938 0.9375,-0.95313 0.35938,-0.59375 0.35938,-1.29687 -0.375,-0.26563 -0.9375,-0.42188 -0.5625,-0.15625 -1.1875,-0.15625 -1.10938,0 -1.6875,0.46875 -0.5625,0.45313 -0.5625,1.1875 0,0.67188 0.5,1.09375 0.51562,0.42188 1.3125,0.42188 z"
       id="path33"
       inkscape:connector-curvature="0"
       style="fill:#000000;fill-rule:nonzero" />
    <path
       d="m 479.56366,218.98425 h 128 v 133.00787 h -128 z"
       id="path35"
       style="fill:#ffe599;fill-opacity:1;fill-rule:evenodd"
       inkscape:connector-curvature="0" />
    <path
       d="m 479.56366,218.98425 h 128 v 133.00787 h -128 z"
       id="path37"
       inkscape:connector-curvature="0"
       style="fill-rule:evenodd;stroke:#000000;stroke-width:1;stroke-linecap:butt;stroke-linejoin:round" />
    <path
       d="m 498.59656,281.19194 h -3.20313 v -1.29688 h 7.76563 v 1.29688 h -3.20313 v 10.15625 h -1.35937 z m 6.01465,2 h 1.28125 v 1.3125 h 0.0781 q 0.23438,-0.67188 0.92188,-1.10938 0.6875,-0.45312 1.4375,-0.45312 0.5625,0 0.96875,0.17187 v 1.46875 q -0.51563,-0.26562 -1.15625,-0.26562 -0.59375,0 -1.09375,0.34375 -0.5,0.32812 -0.79688,0.90625 -0.28125,0.5625 -0.28125,1.21875 v 4.5625 h -1.35937 z m 8.59375,8.40625 q -0.89063,0 -1.59375,-0.34375 -0.70313,-0.35938 -1.09375,-0.96875 -0.375,-0.625 -0.375,-1.40625 0,-1.29688 0.96875,-2.01563 0.98437,-0.73437 2.46875,-0.73437 0.73437,0 1.35937,0.17187 0.64063,0.15625 0.96875,0.35938 v -0.5 q 0,-0.90625 -0.64062,-1.45313 -0.625,-0.5625 -1.60938,-0.5625 -0.6875,0 -1.26562,0.29688 -0.57813,0.29687 -0.90625,0.82812 l -1.03125,-0.76562 q 0.48437,-0.73438 1.32812,-1.15625 0.84375,-0.42188 1.85938,-0.42188 1.67187,0 2.60937,0.875 0.95313,0.875 0.95313,2.375 v 5.17188 h -1.29688 v -1.17188 h -0.0625 q -0.34375,0.59375 -1.04687,1.01563 -0.70313,0.40625 -1.59375,0.40625 z m 0.14062,-1.1875 q 0.6875,0 1.26563,-0.34375 0.59375,-0.35938 0.9375,-0.95313 0.35937,-0.59375 0.35937,-1.29687 -0.375,-0.26563 -0.9375,-0.42188 -0.5625,-0.15625 -1.1875,-0.15625 -1.10937,0 -1.6875,0.46875 -0.5625,0.45313 -0.5625,1.1875 0,0.67188 0.5,1.09375 0.51563,0.42188 1.3125,0.42188 z m 6.55854,-8.71875 q -0.40625,0 -0.70313,-0.28125 -0.28125,-0.29688 -0.28125,-0.70313 0,-0.40625 0.28125,-0.67187 0.29688,-0.28125 0.70313,-0.28125 0.39062,0 0.67187,0.28125 0.29688,0.26562 0.29688,0.67187 0,0.40625 -0.28125,0.70313 -0.28125,0.28125 -0.6875,0.28125 z m -0.67188,1.5 h 1.34375 v 8.15625 h -1.34375 z m 3.49103,0 h 1.28125 v 1.20312 h 0.0781 q 0.32813,-0.60937 1.0625,-1.03125 0.73438,-0.4375 1.57813,-0.4375 1.46875,0 2.23437,0.85938 0.78125,0.85937 0.78125,2.32812 v 5.23438 h -1.35937 v -5.03125 q 0,-1.125 -0.54688,-1.64063 -0.54687,-0.51562 -1.48437,-0.51562 -0.65625,0 -1.1875,0.375 -0.51563,0.35937 -0.79688,0.96875 -0.28125,0.59375 -0.28125,1.25 v 4.59375 h -1.35937 z m 7.96039,8.15625 z m 7.32135,0.25 q -0.89063,0 -1.59375,-0.34375 -0.70313,-0.35938 -1.09375,-0.96875 -0.375,-0.625 -0.375,-1.40625 0,-1.29688 0.96875,-2.01563 0.98437,-0.73437 2.46875,-0.73437 0.73437,0 1.35937,0.17187 0.64063,0.15625 0.96875,0.35938 v -0.5 q 0,-0.90625 -0.64062,-1.45313 -0.625,-0.5625 -1.60938,-0.5625 -0.6875,0 -1.26562,0.29688 -0.57813,0.29687 -0.90625,0.82812 l -1.03125,-0.76562 q 0.48437,-0.73438 1.32812,-1.15625 0.84375,-0.42188 1.85938,-0.42188 1.67187,0 2.60937,0.875 0.95313,0.875 0.95313,2.375 v 5.17188 h -1.29688 v -1.17188 h -0.0625 q -0.34375,0.59375 -1.04687,1.01563 -0.70313,0.40625 -1.59375,0.40625 z m 0.14062,-1.1875 q 0.6875,0 1.26563,-0.34375 0.59375,-0.35938 0.9375,-0.95313 0.35937,-0.59375 0.35937,-1.29687 -0.375,-0.26563 -0.9375,-0.42188 -0.5625,-0.15625 -1.1875,-0.15625 -1.10937,0 -1.6875,0.46875 -0.5625,0.45313 -0.5625,1.1875 0,0.67188 0.5,1.09375 0.51563,0.42188 1.3125,0.42188 z m 4.74603,0.9375 z m 4.7276,-8.15625 h 1.28125 v 1.20312 h 0.0781 q 0.34375,-0.625 1.04687,-1.04687 0.70313,-0.42188 1.48438,-0.42188 0.90625,0 1.5625,0.4375 0.67187,0.4375 0.95312,1.15625 0.4375,-0.71875 1.14063,-1.15625 0.71875,-0.4375 1.65625,-0.4375 1.40625,0 2.125,0.85938 0.71875,0.85937 0.71875,2.32812 v 5.23438 h -1.34375 v -5.03125 q 0,-1.125 -0.46875,-1.64063 -0.46875,-0.51562 -1.375,-0.51562 -0.60938,0 -1.10938,0.35937 -0.5,0.34375 -0.78125,0.9375 -0.26562,0.59375 -0.26562,1.28125 v 4.60938 h -1.35938 v -5.01563 q 0,-1.14062 -0.46875,-1.65625 -0.46875,-0.51562 -1.35937,-0.51562 -0.60938,0 -1.10938,0.35937 -0.5,0.35938 -0.78125,0.96875 -0.26562,0.59375 -0.26562,1.28125 v 4.57813 h -1.35938 z m 17.75007,8.40625 q -1.20313,0 -2.17188,-0.5625 -0.95312,-0.57813 -1.48437,-1.5625 -0.53125,-1 -0.53125,-2.20313 0,-1.20312 0.53125,-2.1875 0.53125,-1 1.48437,-1.57812 0.96875,-0.57813 2.17188,-0.57813 1.20312,0 2.15625,0.57813 0.96875,0.57812 1.5,1.57812 0.53125,0.98438 0.53125,2.1875 0,1.20313 -0.53125,2.20313 -0.53125,0.98437 -1.5,1.5625 -0.95313,0.5625 -2.15625,0.5625 z m 0,-1.21875 q 0.75,0 1.39062,-0.375 0.65625,-0.39063 1.04688,-1.09375 0.39062,-0.70313 0.39062,-1.64063 0,-0.95312 -0.39062,-1.65625 -0.39063,-0.70312 -1.04688,-1.07812 -0.64062,-0.375 -1.39062,-0.375 -0.75,0 -1.40625,0.375 -0.65625,0.375 -1.04688,1.07812 -0.39062,0.70313 -0.39062,1.65625 0,0.9375 0.39062,1.64063 0.39063,0.70312 1.04688,1.09375 0.65625,0.375 1.40625,0.375 z m 9.23913,1.21875 q -1.09375,0 -1.98437,-0.54688 -0.89063,-0.5625 -1.40625,-1.54687 -0.5,-0.98438 -0.5,-2.23438 0,-1.23437 0.5,-2.21875 0.51562,-1 1.40625,-1.5625 0.89062,-0.5625 1.98437,-0.5625 0.9375,0 1.67188,0.4375 0.73437,0.42188 1.125,1.04688 h 0.0625 l -0.0625,-1.14063 v -3.375 h 1.35937 v 11.45313 h -1.29687 v -1.20313 h -0.0625 q -0.39063,0.60938 -1.125,1.03125 -0.73438,0.42188 -1.67188,0.42188 z m 0.15625,-1.21875 q 0.71875,0 1.32813,-0.39063 0.625,-0.39062 1,-1.09375 0.375,-0.70312 0.375,-1.625 0,-0.9375 -0.375,-1.64062 -0.375,-0.70313 -1,-1.07813 -0.60938,-0.39062 -1.32813,-0.39062 -0.70312,0 -1.32812,0.39062 -0.625,0.375 -1,1.09375 -0.375,0.71875 -0.375,1.625 0,0.90625 0.375,1.625 0.375,0.70313 1,1.09375 0.625,0.39063 1.32812,0.39063 z m 9.64765,1.21875 q -1.17188,0 -2.10938,-0.54688 -0.92187,-0.5625 -1.4375,-1.54687 -0.51562,-0.98438 -0.51562,-2.21875 0,-1.1875 0.48437,-2.17188 0.48438,-1 1.375,-1.59375 0.90625,-0.59375 2.09375,-0.59375 1.20313,0 2.07813,0.54688 0.875,0.53125 1.34375,1.48437 0.48437,0.9375 0.48437,2.15625 0,0.23438 -0.0469,0.40625 h -6.45313 q 0.0469,0.9375 0.4375,1.57813 0.40625,0.64062 1.01563,0.96875 0.625,0.3125 1.29687,0.3125 1.5625,0 2.42188,-1.48438 l 1.14062,0.5625 q -0.51562,1 -1.42187,1.57813 -0.90625,0.5625 -2.1875,0.5625 z m 2.34375,-5.1875 q -0.0312,-0.51563 -0.28125,-1.03125 -0.25,-0.51563 -0.8125,-0.85938 -0.54688,-0.35937 -1.375,-0.35937 -0.96875,0 -1.64063,0.625 -0.65625,0.60937 -0.85937,1.625 z m 3.03924,-6.51563 h 1.35938 v 11.45313 h -1.35938 z"
       id="path39"
       inkscape:connector-curvature="0"
       style="fill:#000000;fill-rule:nonzero" />
    <path
       d="m 635.81366,218.98425 h 128 v 133.00787 h -128 z"
       id="path41"
       style="fill:#ffe599;fill-opacity:1;fill-rule:evenodd"
       inkscape:connector-curvature="0" />
    <path
       d="m 635.81366,218.98425 h 128 v 133.00787 h -128 z"
       id="path43"
       inkscape:connector-curvature="0"
       style="fill-rule:evenodd;stroke:#000000;stroke-width:1;stroke-linecap:butt;stroke-linejoin:round" />
    <path
       d="m 653.1588,272.59819 q -1.23437,0 -2.20312,-0.5625 -0.95313,-0.5625 -1.48438,-1.57813 -0.51562,-1.01562 -0.51562,-2.34375 v -7.21875 h 1.35937 v 7.28125 q 0,1.39063 0.73438,2.26563 0.73437,0.85937 2.10937,0.85937 1.375,0 2.10938,-0.85937 0.75,-0.875 0.75,-2.26563 v -7.28125 h 1.34375 v 7.21875 q 0,1.32813 -0.5,2.35938 -0.5,1.01562 -1.45313,1.57812 -0.95312,0.54688 -2.25,0.54688 z m 9.01013,0 q -1.3125,0 -2.20312,-0.60938 -0.875,-0.60937 -1.23438,-1.57812 l 1.20313,-0.54688 q 0.3125,0.73438 0.90625,1.14063 0.60937,0.40625 1.32812,0.40625 0.76563,0 1.3125,-0.3125 0.54688,-0.3125 0.54688,-0.89063 0,-0.51562 -0.4375,-0.82812 -0.4375,-0.3125 -1.35938,-0.53125 l -1,-0.26563 q -0.96875,-0.23437 -1.59375,-0.8125 -0.625,-0.57812 -0.625,-1.48437 0,-0.70313 0.42188,-1.23438 0.42187,-0.54687 1.125,-0.82812 0.70312,-0.29688 1.53125,-0.29688 1.0625,0 1.90625,0.46875 0.84375,0.46875 1.1875,1.29688 l -1.17188,0.54687 q -0.54687,-1.09375 -1.9375,-1.09375 -0.67187,0 -1.1875,0.3125 -0.5,0.3125 -0.5,0.79688 0,0.45312 0.34375,0.73437 0.35938,0.26563 1.0625,0.45313 l 1.1875,0.29687 q 1.20313,0.3125 1.8125,0.90625 0.60938,0.59375 0.60938,1.46875 0,0.75 -0.4375,1.3125 -0.4375,0.5625 -1.17188,0.875 -0.73437,0.29688 -1.625,0.29688 z m 8.34925,0 q -1.17188,0 -2.10938,-0.54688 -0.92187,-0.5625 -1.4375,-1.54687 -0.51562,-0.98438 -0.51562,-2.21875 0,-1.1875 0.48437,-2.17188 0.48438,-1 1.375,-1.59375 0.90625,-0.59375 2.09375,-0.59375 1.20313,0 2.07813,0.54688 0.875,0.53125 1.34375,1.48437 0.48437,0.9375 0.48437,2.15625 0,0.23438 -0.0469,0.40625 h -6.45313 q 0.0469,0.9375 0.4375,1.57813 0.40625,0.64062 1.01563,0.96875 0.625,0.3125 1.29687,0.3125 1.5625,0 2.42188,-1.48438 l 1.14062,0.5625 q -0.51562,1 -1.42187,1.57813 -0.90625,0.5625 -2.1875,0.5625 z m 2.34375,-5.1875 q -0.0312,-0.51563 -0.28125,-1.03125 -0.25,-0.51563 -0.8125,-0.85938 -0.54688,-0.35937 -1.375,-0.35937 -0.96875,0 -1.64063,0.625 -0.65625,0.60937 -0.85937,1.625 z m 2.02368,4.9375 z m 7.8526,0.125 q -0.5,0 -0.92188,-0.15625 -0.42187,-0.15625 -0.70312,-0.4375 -0.32813,-0.29688 -0.48438,-0.6875 -0.15625,-0.40625 -0.15625,-0.98438 v -4.78125 h -1.42187 v -1.23437 h 1.42187 v -2.3125 h 1.35938 v 2.3125 h 1.98437 v 1.23437 h -1.98437 v 4.4375 q 0,0.67188 0.25,1 0.3125,0.34375 0.89062,0.34375 0.45313,0 0.89063,-0.26562 v 1.32812 q -0.23438,0.10938 -0.48438,0.15625 -0.25,0.0469 -0.64062,0.0469 z m 2.73101,-11.57813 h 1.35938 v 3.375 l -0.0781,1.125 h 0.0781 q 0.32812,-0.625 1.04687,-1.04687 0.73438,-0.42188 1.60938,-0.42188 1.48437,0 2.26562,0.875 0.78125,0.875 0.78125,2.3125 v 5.23438 h -1.35937 v -5.03125 q 0,-1.09375 -0.5625,-1.625 -0.5625,-0.53125 -1.45313,-0.53125 -0.64062,0 -1.1875,0.39062 -0.53125,0.375 -0.84375,0.98438 -0.29687,0.60937 -0.29687,1.26562 v 4.54688 h -1.35938 z m 12.64905,11.70313 q -1.17187,0 -2.10937,-0.54688 -0.92188,-0.5625 -1.4375,-1.54687 -0.51563,-0.98438 -0.51563,-2.21875 0,-1.1875 0.48438,-2.17188 0.48437,-1 1.375,-1.59375 0.90625,-0.59375 2.09375,-0.59375 1.20312,0 2.07812,0.54688 0.875,0.53125 1.34375,1.48437 0.48438,0.9375 0.48438,2.15625 0,0.23438 -0.0469,0.40625 h -6.45312 q 0.0469,0.9375 0.4375,1.57813 0.40625,0.64062 1.01562,0.96875 0.625,0.3125 1.29688,0.3125 1.5625,0 2.42187,-1.48438 l 1.14063,0.5625 q -0.51563,1 -1.42188,1.57813 -0.90625,0.5625 -2.1875,0.5625 z m 2.34375,-5.1875 q -0.0312,-0.51563 -0.28125,-1.03125 -0.25,-0.51563 -0.8125,-0.85938 -0.54687,-0.35937 -1.375,-0.35937 -0.96875,0 -1.64062,0.625 -0.65625,0.60937 -0.85938,1.625 z m 2.02362,4.9375 z m 4.7276,-8.15625 h 1.28125 v 1.20312 h 0.0781 q 0.34375,-0.625 1.04687,-1.04687 0.70313,-0.42188 1.48438,-0.42188 0.90625,0 1.5625,0.4375 0.67187,0.4375 0.95312,1.15625 0.4375,-0.71875 1.14063,-1.15625 0.71875,-0.4375 1.65625,-0.4375 1.40625,0 2.125,0.85938 0.71875,0.85937 0.71875,2.32812 v 5.23438 h -1.34375 v -5.03125 q 0,-1.125 -0.46875,-1.64063 -0.46875,-0.51562 -1.375,-0.51562 -0.60938,0 -1.10938,0.35937 -0.5,0.34375 -0.78125,0.9375 -0.26562,0.59375 -0.26562,1.28125 v 4.60938 h -1.35938 v -5.01563 q 0,-1.14062 -0.46875,-1.65625 -0.46875,-0.51562 -1.35937,-0.51562 -0.60938,0 -1.10938,0.35937 -0.5,0.35938 -0.78125,0.96875 -0.26562,0.59375 -0.26562,1.28125 v 4.57813 h -1.35938 z m 17.75006,8.40625 q -1.20312,0 -2.17187,-0.5625 -0.95313,-0.57813 -1.48438,-1.5625 -0.53125,-1 -0.53125,-2.20313 0,-1.20312 0.53125,-2.1875 0.53125,-1 1.48438,-1.57812 0.96875,-0.57813 2.17187,-0.57813 1.20313,0 2.15625,0.57813 0.96875,0.57812 1.5,1.57812 0.53125,0.98438 0.53125,2.1875 0,1.20313 -0.53125,2.20313 -0.53125,0.98437 -1.5,1.5625 -0.95312,0.5625 -2.15625,0.5625 z m 0,-1.21875 q 0.75,0 1.39063,-0.375 0.65625,-0.39063 1.04687,-1.09375 0.39063,-0.70313 0.39063,-1.64063 0,-0.95312 -0.39063,-1.65625 -0.39062,-0.70312 -1.04687,-1.07812 -0.64063,-0.375 -1.39063,-0.375 -0.75,0 -1.40625,0.375 -0.65625,0.375 -1.04687,1.07812 -0.39063,0.70313 -0.39063,1.65625 0,0.9375 0.39063,1.64063 0.39062,0.70312 1.04687,1.09375 0.65625,0.375 1.40625,0.375 z m 9.23914,1.21875 q -1.09375,0 -1.98437,-0.54688 -0.89063,-0.5625 -1.40625,-1.54687 -0.5,-0.98438 -0.5,-2.23438 0,-1.23437 0.5,-2.21875 0.51562,-1 1.40625,-1.5625 0.89062,-0.5625 1.98437,-0.5625 0.9375,0 1.67188,0.4375 0.73437,0.42188 1.125,1.04688 h 0.0625 l -0.0625,-1.14063 v -3.375 h 1.35937 v 11.45313 h -1.29687 v -1.20313 h -0.0625 q -0.39063,0.60938 -1.125,1.03125 -0.73438,0.42188 -1.67188,0.42188 z m 0.15625,-1.21875 q 0.71875,0 1.32813,-0.39063 0.625,-0.39062 1,-1.09375 0.375,-0.70312 0.375,-1.625 0,-0.9375 -0.375,-1.64062 -0.375,-0.70313 -1,-1.07813 -0.60938,-0.39062 -1.32813,-0.39062 -0.70312,0 -1.32812,0.39062 -0.625,0.375 -1,1.09375 -0.375,0.71875 -0.375,1.625 0,0.90625 0.375,1.625 0.375,0.70313 1,1.09375 0.625,0.39063 1.32812,0.39063 z m 9.64764,1.21875 q -1.17187,0 -2.10937,-0.54688 -0.92188,-0.5625 -1.4375,-1.54687 -0.51563,-0.98438 -0.51563,-2.21875 0,-1.1875 0.48438,-2.17188 0.48437,-1 1.375,-1.59375 0.90625,-0.59375 2.09375,-0.59375 1.20312,0 2.07812,0.54688 0.875,0.53125 1.34375,1.48437 0.48438,0.9375 0.48438,2.15625 0,0.23438 -0.0469,0.40625 h -6.45312 q 0.0469,0.9375 0.4375,1.57813 0.40625,0.64062 1.01562,0.96875 0.625,0.3125 1.29688,0.3125 1.5625,0 2.42187,-1.48438 l 1.14063,0.5625 q -0.51563,1 -1.42188,1.57813 -0.90625,0.5625 -2.1875,0.5625 z m 2.34375,-5.1875 q -0.0312,-0.51563 -0.28125,-1.03125 -0.25,-0.51563 -0.8125,-0.85938 -0.54687,-0.35937 -1.375,-0.35937 -0.96875,0 -1.64062,0.625 -0.65625,0.60937 -0.85938,1.625 z m 3.03925,-6.51563 h 1.35937 v 11.45313 h -1.35937 z m 2.36041,11.45313 z"
       id="path45"
       inkscape:connector-curvature="0"
       style="fill:#000000;fill-rule:nonzero" />
    <path
       d="m 674.6102,291.47319 q -0.5,0 -0.92188,-0.15625 -0.42187,-0.15625 -0.70312,-0.4375 -0.32813,-0.29688 -0.48438,-0.6875 -0.15625,-0.40625 -0.15625,-0.98438 v -4.78125 h -1.42187 v -1.23437 h 1.42187 v -2.3125 h 1.35938 v 2.3125 h 1.98437 v 1.23437 h -1.98437 v 4.4375 q 0,0.67188 0.25,1 0.3125,0.34375 0.89062,0.34375 0.45313,0 0.89063,-0.26562 v 1.32812 q -0.23438,0.10938 -0.48438,0.15625 -0.25,0.0469 -0.64062,0.0469 z m 6.48102,0.125 q -1.20313,0 -2.17188,-0.5625 -0.95312,-0.57813 -1.48437,-1.5625 -0.53125,-1 -0.53125,-2.20313 0,-1.20312 0.53125,-2.1875 0.53125,-1 1.48437,-1.57812 0.96875,-0.57813 2.17188,-0.57813 1.20312,0 2.15625,0.57813 0.96875,0.57812 1.5,1.57812 0.53125,0.98438 0.53125,2.1875 0,1.20313 -0.53125,2.20313 -0.53125,0.98437 -1.5,1.5625 -0.95313,0.5625 -2.15625,0.5625 z m 0,-1.21875 q 0.75,0 1.39062,-0.375 0.65625,-0.39063 1.04688,-1.09375 0.39062,-0.70313 0.39062,-1.64063 0,-0.95312 -0.39062,-1.65625 -0.39063,-0.70312 -1.04688,-1.07812 -0.64062,-0.375 -1.39062,-0.375 -0.75,0 -1.40625,0.375 -0.65625,0.375 -1.04688,1.07812 -0.39062,0.70313 -0.39062,1.65625 0,0.9375 0.39062,1.64063 0.39063,0.70312 1.04688,1.09375 0.65625,0.375 1.40625,0.375 z m 4.77038,0.96875 z m 4.7276,-8.15625 h 1.28125 v 1.20312 h 0.0781 q 0.34375,-0.625 1.04687,-1.04687 0.70313,-0.42188 1.48438,-0.42188 0.90625,0 1.5625,0.4375 0.67187,0.4375 0.95312,1.15625 0.4375,-0.71875 1.14063,-1.15625 0.71875,-0.4375 1.65625,-0.4375 1.40625,0 2.125,0.85938 0.71875,0.85937 0.71875,2.32812 v 5.23438 h -1.34375 v -5.03125 q 0,-1.125 -0.46875,-1.64063 -0.46875,-0.51562 -1.375,-0.51562 -0.60938,0 -1.10938,0.35937 -0.5,0.34375 -0.78125,0.9375 -0.26562,0.59375 -0.26562,1.28125 v 4.60938 h -1.35938 v -5.01563 q 0,-1.14062 -0.46875,-1.65625 -0.46875,-0.51562 -1.35937,-0.51562 -0.60938,0 -1.10938,0.35937 -0.5,0.35938 -0.78125,0.96875 -0.26562,0.59375 -0.26562,1.28125 v 4.57813 h -1.35938 z m 16.59381,8.40625 q -0.89062,0 -1.59375,-0.34375 -0.70312,-0.35938 -1.09375,-0.96875 -0.375,-0.625 -0.375,-1.40625 0,-1.29688 0.96875,-2.01563 0.98438,-0.73437 2.46875,-0.73437 0.73438,0 1.35938,0.17187 0.64062,0.15625 0.96875,0.35938 v -0.5 q 0,-0.90625 -0.64063,-1.45313 -0.625,-0.5625 -1.60937,-0.5625 -0.6875,0 -1.26563,0.29688 -0.57812,0.29687 -0.90625,0.82812 l -1.03125,-0.76562 q 0.48438,-0.73438 1.32813,-1.15625 0.84375,-0.42188 1.85937,-0.42188 1.67188,0 2.60938,0.875 0.95312,0.875 0.95312,2.375 v 5.17188 h -1.29687 v -1.17188 h -0.0625 q -0.34375,0.59375 -1.04688,1.01563 -0.70312,0.40625 -1.59375,0.40625 z m 0.14063,-1.1875 q 0.6875,0 1.26562,-0.34375 0.59375,-0.35938 0.9375,-0.95313 0.35938,-0.59375 0.35938,-1.29687 -0.375,-0.26563 -0.9375,-0.42188 -0.5625,-0.15625 -1.1875,-0.15625 -1.10938,0 -1.6875,0.46875 -0.5625,0.45313 -0.5625,1.1875 0,0.67188 0.5,1.09375 0.51562,0.42188 1.3125,0.42188 z m 5.76166,-10.51563 h 1.35937 v 7.20313 l 3.82813,-3.90625 h 1.73437 v 0.0625 l -3.20312,3.23437 3.28125,4.79688 v 0.0625 h -1.60938 l -2.625,-3.92188 -1.40625,1.40625 v 2.51563 h -1.35937 z m 11.70501,11.70313 q -1.17187,0 -2.10937,-0.54688 -0.92188,-0.5625 -1.4375,-1.54687 -0.51563,-0.98438 -0.51563,-2.21875 0,-1.1875 0.48438,-2.17188 0.48437,-1 1.375,-1.59375 0.90625,-0.59375 2.09375,-0.59375 1.20312,0 2.07812,0.54688 0.875,0.53125 1.34375,1.48437 0.48438,0.9375 0.48438,2.15625 0,0.23438 -0.0469,0.40625 h -6.45312 q 0.0469,0.9375 0.4375,1.57813 0.40625,0.64062 1.01562,0.96875 0.625,0.3125 1.29688,0.3125 1.5625,0 2.42187,-1.48438 l 1.14063,0.5625 q -0.51563,1 -1.42188,1.57813 -0.90625,0.5625 -2.1875,0.5625 z m 2.34375,-5.1875 q -0.0312,-0.51563 -0.28125,-1.03125 -0.25,-0.51563 -0.8125,-0.85938 -0.54687,-0.35937 -1.375,-0.35937 -0.96875,0 -1.64062,0.625 -0.65625,0.60937 -0.85938,1.625 z m 2.02362,4.9375 z"
       id="path47"
       inkscape:connector-curvature="0"
       style="fill:#000000;fill-rule:nonzero" />
    <path
       d="m 659.69507,302.19194 h 1.29687 v 1.21875 h 0.0625 q 0.375,-0.625 1.10938,-1.04688 0.75,-0.4375 1.6875,-0.4375 1.07812,0 1.96875,0.5625 0.90625,0.5625 1.40625,1.5625 0.51562,0.98438 0.51562,2.21875 0,1.25 -0.51562,2.23438 -0.5,0.98437 -1.40625,1.54687 -0.89063,0.54688 -1.96875,0.54688 -0.9375,0 -1.6875,-0.42188 -0.73438,-0.42187 -1.10938,-1.03125 h -0.0625 l 0.0625,1.125 v 3.53125 h -1.35937 z m 3.98437,7.1875 q 0.70313,0 1.32813,-0.39063 0.625,-0.39062 1,-1.09375 0.375,-0.71875 0.375,-1.625 0,-0.90625 -0.375,-1.625 -0.375,-0.71875 -1,-1.09375 -0.625,-0.39062 -1.32813,-0.39062 -0.70312,0 -1.32812,0.39062 -0.625,0.375 -1,1.07813 -0.35938,0.70312 -0.35938,1.64062 0,0.92188 0.35938,1.625 0.375,0.70313 1,1.09375 0.625,0.39063 1.32812,0.39063 z m 5.66175,-7.1875 h 1.28125 v 1.3125 h 0.0781 q 0.23438,-0.67188 0.92188,-1.10938 0.6875,-0.45312 1.4375,-0.45312 0.5625,0 0.96875,0.17187 v 1.46875 q -0.51563,-0.26562 -1.15625,-0.26562 -0.59375,0 -1.09375,0.34375 -0.5,0.32812 -0.79688,0.90625 -0.28125,0.5625 -0.28125,1.21875 v 4.5625 h -1.35937 z m 9.62506,8.40625 q -1.17188,0 -2.10938,-0.54688 -0.92187,-0.5625 -1.4375,-1.54687 -0.51562,-0.98438 -0.51562,-2.21875 0,-1.1875 0.48437,-2.17188 0.48438,-1 1.375,-1.59375 0.90625,-0.59375 2.09375,-0.59375 1.20313,0 2.07813,0.54688 0.875,0.53125 1.34375,1.48437 0.48437,0.9375 0.48437,2.15625 0,0.23438 -0.0469,0.40625 h -6.45313 q 0.0469,0.9375 0.4375,1.57813 0.40625,0.64062 1.01563,0.96875 0.625,0.3125 1.29687,0.3125 1.5625,0 2.42188,-1.48438 l 1.14062,0.5625 q -0.51562,1 -1.42187,1.57813 -0.90625,0.5625 -2.1875,0.5625 z m 2.34375,-5.1875 q -0.0312,-0.51563 -0.28125,-1.03125 -0.25,-0.51563 -0.8125,-0.85938 -0.54688,-0.35937 -1.375,-0.35937 -0.96875,0 -1.64063,0.625 -0.65625,0.60937 -0.85937,1.625 z m 6.49237,5.1875 q -1.09375,0 -1.98438,-0.54688 -0.89062,-0.5625 -1.40625,-1.54687 -0.5,-0.98438 -0.5,-2.23438 0,-1.23437 0.5,-2.21875 0.51563,-1 1.40625,-1.5625 0.89063,-0.5625 1.98438,-0.5625 0.9375,0 1.67187,0.4375 0.73438,0.42188 1.125,1.04688 h 0.0625 l -0.0625,-1.14063 v -3.375 h 1.35938 v 11.45313 h -1.29688 v -1.20313 h -0.0625 q -0.39062,0.60938 -1.125,1.03125 -0.73437,0.42188 -1.67187,0.42188 z m 0.15625,-1.21875 q 0.71875,0 1.32812,-0.39063 0.625,-0.39062 1,-1.09375 0.375,-0.70312 0.375,-1.625 0,-0.9375 -0.375,-1.64062 -0.375,-0.70313 -1,-1.07813 -0.60937,-0.39062 -1.32812,-0.39062 -0.70313,0 -1.32813,0.39062 -0.625,0.375 -1,1.09375 -0.375,0.71875 -0.375,1.625 0,0.90625 0.375,1.625 0.375,0.70313 1,1.09375 0.625,0.39063 1.32813,0.39063 z m 6.81952,-8.6875 q -0.40625,0 -0.70313,-0.28125 -0.28125,-0.29688 -0.28125,-0.70313 0,-0.40625 0.28125,-0.67187 0.29688,-0.28125 0.70313,-0.28125 0.39062,0 0.67187,0.28125 0.29688,0.26562 0.29688,0.67187 0,0.40625 -0.28125,0.70313 -0.28125,0.28125 -0.6875,0.28125 z m -0.67188,1.5 h 1.34375 v 8.15625 h -1.34375 z m 7.17853,8.40625 q -1.1875,0 -2.14062,-0.5625 -0.9375,-0.5625 -1.46875,-1.54688 -0.51563,-0.98437 -0.51563,-2.21875 0,-1.23437 0.51563,-2.21875 0.53125,-1 1.46875,-1.5625 0.95312,-0.5625 2.14062,-0.5625 1.32813,0 2.23438,0.625 0.90625,0.60938 1.28125,1.64063 l -1.23438,0.51562 q -0.29687,-0.76562 -0.90625,-1.15625 -0.59375,-0.39062 -1.4375,-0.39062 -0.71875,0 -1.34375,0.39062 -0.625,0.39063 -1,1.10938 -0.375,0.70312 -0.375,1.60937 0,0.90625 0.375,1.60938 0.375,0.70312 1,1.10937 0.625,0.39063 1.34375,0.39063 0.85938,0 1.48438,-0.40625 0.625,-0.40625 0.9375,-1.14063 l 1.20312,0.51563 q -0.40625,1.01562 -1.32812,1.64062 -0.92188,0.60938 -2.23438,0.60938 z m 8.17352,-0.125 q -0.5,0 -0.92187,-0.15625 -0.42188,-0.15625 -0.70313,-0.4375 -0.32812,-0.29688 -0.48437,-0.6875 -0.15625,-0.40625 -0.15625,-0.98438 v -4.78125 h -1.42188 v -1.23437 h 1.42188 v -2.3125 h 1.35937 v 2.3125 h 1.98438 v 1.23437 h -1.98438 v 4.4375 q 0,0.67188 0.25,1 0.3125,0.34375 0.89063,0.34375 0.45312,0 0.89062,-0.26562 v 1.32812 q -0.23437,0.10938 -0.48437,0.15625 -0.25,0.0469 -0.64063,0.0469 z m 3.5279,-9.78125 q -0.40625,0 -0.70313,-0.28125 -0.28125,-0.29688 -0.28125,-0.70313 0,-0.40625 0.28125,-0.67187 0.29688,-0.28125 0.70313,-0.28125 0.39062,0 0.67187,0.28125 0.29688,0.26562 0.29688,0.67187 0,0.40625 -0.28125,0.70313 -0.28125,0.28125 -0.6875,0.28125 z m -0.67188,1.5 h 1.34375 v 8.15625 h -1.34375 z m 7.24097,8.40625 q -1.20313,0 -2.17188,-0.5625 -0.95312,-0.57813 -1.48437,-1.5625 -0.53125,-1 -0.53125,-2.20313 0,-1.20312 0.53125,-2.1875 0.53125,-1 1.48437,-1.57812 0.96875,-0.57813 2.17188,-0.57813 1.20312,0 2.15625,0.57813 0.96875,0.57812 1.5,1.57812 0.53125,0.98438 0.53125,2.1875 0,1.20313 -0.53125,2.20313 -0.53125,0.98437 -1.5,1.5625 -0.95313,0.5625 -2.15625,0.5625 z m 0,-1.21875 q 0.75,0 1.39062,-0.375 0.65625,-0.39063 1.04688,-1.09375 0.39062,-0.70313 0.39062,-1.64063 0,-0.95312 -0.39062,-1.65625 -0.39063,-0.70312 -1.04688,-1.07812 -0.64062,-0.375 -1.39062,-0.375 -0.75,0 -1.40625,0.375 -0.65625,0.375 -1.04688,1.07812 -0.39062,0.70313 -0.39062,1.65625 0,0.9375 0.39062,1.64063 0.39063,0.70312 1.04688,1.09375 0.65625,0.375 1.40625,0.375 z m 5.78607,-7.1875 h 1.28125 v 1.20312 h 0.0781 q 0.32812,-0.60937 1.0625,-1.03125 0.73437,-0.4375 1.57812,-0.4375 1.46875,0 2.23438,0.85938 0.78125,0.85937 0.78125,2.32812 v 5.23438 h -1.35938 v -5.03125 q 0,-1.125 -0.54687,-1.64063 -0.54688,-0.51562 -1.48438,-0.51562 -0.65625,0 -1.1875,0.375 -0.51562,0.35937 -0.79687,0.96875 -0.28125,0.59375 -0.28125,1.25 v 4.59375 h -1.35938 z m 11.81976,8.40625 q -1.3125,0 -2.20312,-0.60938 -0.875,-0.60937 -1.23438,-1.57812 l 1.20313,-0.54688 q 0.3125,0.73438 0.90625,1.14063 0.60937,0.40625 1.32812,0.40625 0.76563,0 1.3125,-0.3125 0.54688,-0.3125 0.54688,-0.89063 0,-0.51562 -0.4375,-0.82812 -0.4375,-0.3125 -1.35938,-0.53125 l -1,-0.26563 q -0.96875,-0.23437 -1.59375,-0.8125 -0.625,-0.57812 -0.625,-1.48437 0,-0.70313 0.42188,-1.23438 0.42187,-0.54687 1.125,-0.82812 0.70312,-0.29688 1.53125,-0.29688 1.0625,0 1.90625,0.46875 0.84375,0.46875 1.1875,1.29688 l -1.17188,0.54687 q -0.54687,-1.09375 -1.9375,-1.09375 -0.67187,0 -1.1875,0.3125 -0.5,0.3125 -0.5,0.79688 0,0.45312 0.34375,0.73437 0.35938,0.26563 1.0625,0.45313 l 1.1875,0.29687 q 1.20313,0.3125 1.8125,0.90625 0.60938,0.59375 0.60938,1.46875 0,0.75 -0.4375,1.3125 -0.4375,0.5625 -1.17188,0.875 -0.73437,0.29688 -1.625,0.29688 z"
       id="path49"
       inkscape:connector-curvature="0"
       style="fill:#000000;fill-rule:nonzero" />
    <path
       d="m 474.80052,204.11811 c 0,-7.73199 1.04463,-14 2.33324,-14 h 70.02644 c 1.28861,0 2.33324,-6.26801 2.33324,-14 v 0 c 0,7.73199 1.04462,14 2.33323,14 h 70.02644 v 0 c 1.28861,0 2.33324,6.26801 2.33324,14 z"
       id="path51"
       inkscape:connector-curvature="0"
       style="fill:#000000;fill-opacity:0;fill-rule:evenodd" />
    <path
       d="m 474.80052,204.11811 c 0,-7.73199 1.04463,-14 2.33324,-14 h 70.02644 c 1.28861,0 2.33324,-6.26801 2.33324,-14 v 0 c 0,7.73199 1.04462,14 2.33323,14 h 70.02644 v 0 c 1.28861,0 2.33324,6.26801 2.33324,14"
       id="path53"
       inkscape:connector-curvature="0"
       style="fill:#000000;fill-opacity:0;fill-rule:evenodd" />
    <path
       d="m 479.94296,203.98253 c 0,-7.65841 1.96481,-13.86677 4.38852,-13.86677 h 131.71075 c 2.42371,0 4.38853,-6.20836 4.38853,-13.86676 v 0 c 0,7.6584 1.9648,13.86676 4.3885,13.86676 h 131.71075 v 0 c 2.42371,0 4.38853,6.20836 4.38853,13.86677"
       id="path55"
       inkscape:connector-curvature="0"
       style="fill-rule:evenodd;stroke:#000000;stroke-width:1.36490703;stroke-linecap:butt;stroke-linejoin:round" />
    <path
       d="M 25.821522,141.12074 H 153.82152 v 38.20472 H 25.821522 Z"
       id="path57"
       inkscape:connector-curvature="0"
       style="fill:#000000;fill-opacity:0;fill-rule:evenodd" />
    <path
       d="m 580.26244,155.32449 h -3.20313 v -1.29688 h 7.76563 v 1.29688 h -3.20313 v 10.15625 h -1.35937 z m 6.01465,-1.29688 h 1.35937 v 3.375 l -0.0781,1.125 h 0.0781 q 0.32813,-0.625 1.04688,-1.04687 0.73437,-0.42188 1.60937,-0.42188 1.48438,0 2.26563,0.875 0.78125,0.875 0.78125,2.3125 v 5.23438 h -1.35938 v -5.03125 q 0,-1.09375 -0.5625,-1.625 -0.5625,-0.53125 -1.45312,-0.53125 -0.64063,0 -1.1875,0.39062 -0.53125,0.375 -0.84375,0.98438 -0.29688,0.60937 -0.29688,1.26562 v 4.54688 h -1.35937 z m 9.82089,1.79688 q -0.40625,0 -0.70312,-0.28125 -0.28125,-0.29688 -0.28125,-0.70313 0,-0.40625 0.28125,-0.67187 0.29687,-0.28125 0.70312,-0.28125 0.39063,0 0.67188,0.28125 0.29687,0.26562 0.29687,0.67187 0,0.40625 -0.28125,0.70313 -0.28125,0.28125 -0.6875,0.28125 z m -0.67187,1.5 h 1.34375 v 8.15625 h -1.34375 z m 6.33476,8.40625 q -1.3125,0 -2.20312,-0.60938 -0.875,-0.60937 -1.23438,-1.57812 l 1.20313,-0.54688 q 0.3125,0.73438 0.90625,1.14063 0.60937,0.40625 1.32812,0.40625 0.76563,0 1.3125,-0.3125 0.54688,-0.3125 0.54688,-0.89063 0,-0.51562 -0.4375,-0.82812 -0.4375,-0.3125 -1.35938,-0.53125 l -1,-0.26563 q -0.96875,-0.23437 -1.59375,-0.8125 -0.625,-0.57812 -0.625,-1.48437 0,-0.70313 0.42188,-1.23438 0.42187,-0.54687 1.125,-0.82812 0.70312,-0.29688 1.53125,-0.29688 1.0625,0 1.90625,0.46875 0.84375,0.46875 1.1875,1.29688 l -1.17188,0.54687 q -0.54687,-1.09375 -1.9375,-1.09375 -0.67187,0 -1.1875,0.3125 -0.5,0.3125 -0.5,0.79688 0,0.45312 0.34375,0.73437 0.35938,0.26563 1.0625,0.45313 l 1.1875,0.29687 q 1.20313,0.3125 1.8125,0.90625 0.60938,0.59375 0.60938,1.46875 0,0.75 -0.4375,1.3125 -0.4375,0.5625 -1.17188,0.875 -0.73437,0.29688 -1.625,0.29688 z m 3.70863,-0.25 z m 8.41514,0.25 q -1.1875,0 -2.14063,-0.5625 -0.9375,-0.5625 -1.46875,-1.54688 -0.51562,-0.98437 -0.51562,-2.21875 0,-1.23437 0.51562,-2.21875 0.53125,-1 1.46875,-1.5625 0.95313,-0.5625 2.14063,-0.5625 1.32812,0 2.23437,0.625 0.90625,0.60938 1.28125,1.64063 l -1.23437,0.51562 q -0.29688,-0.76562 -0.90625,-1.15625 -0.59375,-0.39062 -1.4375,-0.39062 -0.71875,0 -1.34375,0.39062 -0.625,0.39063 -1,1.10938 -0.375,0.70312 -0.375,1.60937 0,0.90625 0.375,1.60938 0.375,0.70312 1,1.10937 0.625,0.39063 1.34375,0.39063 0.85937,0 1.48437,-0.40625 0.625,-0.40625 0.9375,-1.14063 l 1.20313,0.51563 q -0.40625,1.01562 -1.32813,1.64062 -0.92187,0.60938 -2.23437,0.60938 z m 8.79852,0 q -1.20313,0 -2.17188,-0.5625 -0.95312,-0.57813 -1.48437,-1.5625 -0.53125,-1 -0.53125,-2.20313 0,-1.20312 0.53125,-2.1875 0.53125,-1 1.48437,-1.57812 0.96875,-0.57813 2.17188,-0.57813 1.20312,0 2.15625,0.57813 0.96875,0.57812 1.5,1.57812 0.53125,0.98438 0.53125,2.1875 0,1.20313 -0.53125,2.20313 -0.53125,0.98437 -1.5,1.5625 -0.95313,0.5625 -2.15625,0.5625 z m 0,-1.21875 q 0.75,0 1.39062,-0.375 0.65625,-0.39063 1.04688,-1.09375 0.39062,-0.70313 0.39062,-1.64063 0,-0.95312 -0.39062,-1.65625 -0.39063,-0.70312 -1.04688,-1.07812 -0.64062,-0.375 -1.39062,-0.375 -0.75,0 -1.40625,0.375 -0.65625,0.375 -1.04688,1.07812 -0.39062,0.70313 -0.39062,1.65625 0,0.9375 0.39062,1.64063 0.39063,0.70312 1.04688,1.09375 0.65625,0.375 1.40625,0.375 z m 8.73915,1.21875 q -1.46875,0 -2.25,-0.85938 -0.78125,-0.85937 -0.78125,-2.42187 v -5.125 h 1.35938 v 4.92187 q 0,1.17188 0.53125,1.71875 0.53125,0.54688 1.42187,0.54688 0.6875,0 1.21875,-0.375 0.54688,-0.375 0.84375,-0.95313 0.29688,-0.59375 0.29688,-1.25 v -4.60937 h 1.35937 v 8.15625 h -1.29687 v -1.1875 h -0.0625 q -0.34375,0.60937 -1.07813,1.03125 -0.73437,0.40625 -1.5625,0.40625 z m 6.02289,-8.40625 h 1.28125 v 1.3125 h 0.0781 q 0.23438,-0.67188 0.92188,-1.10938 0.6875,-0.45312 1.4375,-0.45312 0.5625,0 0.96875,0.17187 v 1.46875 q -0.51563,-0.26562 -1.15625,-0.26562 -0.59375,0 -1.09375,0.34375 -0.5,0.32812 -0.79688,0.90625 -0.28125,0.5625 -0.28125,1.21875 v 4.5625 h -1.35937 z m 8.84376,8.40625 q -1.3125,0 -2.20312,-0.60938 -0.875,-0.60937 -1.23438,-1.57812 l 1.20313,-0.54688 q 0.3125,0.73438 0.90625,1.14063 0.60937,0.40625 1.32812,0.40625 0.76563,0 1.3125,-0.3125 0.54688,-0.3125 0.54688,-0.89063 0,-0.51562 -0.4375,-0.82812 -0.4375,-0.3125 -1.35938,-0.53125 l -1,-0.26563 q -0.96875,-0.23437 -1.59375,-0.8125 -0.625,-0.57812 -0.625,-1.48437 0,-0.70313 0.42188,-1.23438 0.42187,-0.54687 1.125,-0.82812 0.70312,-0.29688 1.53125,-0.29688 1.0625,0 1.90625,0.46875 0.84375,0.46875 1.1875,1.29688 l -1.17188,0.54687 q -0.54687,-1.09375 -1.9375,-1.09375 -0.67187,0 -1.1875,0.3125 -0.5,0.3125 -0.5,0.79688 0,0.45312 0.34375,0.73437 0.35938,0.26563 1.0625,0.45313 l 1.1875,0.29687 q 1.20313,0.3125 1.8125,0.90625 0.60938,0.59375 0.60938,1.46875 0,0.75 -0.4375,1.3125 -0.4375,0.5625 -1.17188,0.875 -0.73437,0.29688 -1.625,0.29688 z m 8.34926,0 q -1.17187,0 -2.10937,-0.54688 -0.92188,-0.5625 -1.4375,-1.54687 -0.51563,-0.98438 -0.51563,-2.21875 0,-1.1875 0.48438,-2.17188 0.48437,-1 1.375,-1.59375 0.90625,-0.59375 2.09375,-0.59375 1.20312,0 2.07811,0.54688 0.875,0.53125 1.34375,1.48437 0.48438,0.9375 0.48438,2.15625 0,0.23438 -0.0469,0.40625 h -6.45311 q 0.0469,0.9375 0.4375,1.57813 0.40625,0.64062 1.01562,0.96875 0.625,0.3125 1.29688,0.3125 1.56249,0 2.42186,-1.48438 l 1.14063,0.5625 q -0.51563,1 -1.42188,1.57813 -0.90624,0.5625 -2.18749,0.5625 z m 2.34374,-5.1875 q -0.0312,-0.51563 -0.28125,-1.03125 -0.25,-0.51563 -0.81249,-0.85938 -0.54687,-0.35937 -1.375,-0.35937 -0.96875,0 -1.64062,0.625 -0.65625,0.60937 -0.85938,1.625 z"
       id="path59"
       inkscape:connector-curvature="0"
       style="fill:#000000;fill-rule:nonzero" />
    <path
       d="m 164.82939,285.48819 h 28.25197"
       id="path61"
       inkscape:connector-curvature="0"
       style="fill:#000000;fill-opacity:0;fill-rule:evenodd" />
    <path
       d="m 164.82939,285.48819 h 22.25197"
       id="path63"
       inkscape:connector-curvature="0"
       style="fill-rule:evenodd;stroke:#000000;stroke-width:1;stroke-linecap:butt;stroke-linejoin:round" />
    <path
       d="m 187.08136,287.13992 4.5381,-1.65173 -4.5381,-1.65174 z"
       id="path65"
       inkscape:connector-curvature="0"
       style="fill:#000000;fill-rule:evenodd;stroke:#000000;stroke-width:1;stroke-linecap:butt" />
    <path
       d="m 308.07153,285.48819 h 28.25195"
       id="path67"
       inkscape:connector-curvature="0"
       style="fill:#000000;fill-opacity:0;fill-rule:evenodd" />
    <path
       d="m 308.07153,285.48819 h 22.25195"
       id="path69"
       inkscape:connector-curvature="0"
       style="fill-rule:evenodd;stroke:#000000;stroke-width:1;stroke-linecap:butt;stroke-linejoin:round" />
    <path
       d="m 330.3235,287.13992 4.53812,-1.65173 -4.53812,-1.65174 z"
       id="path71"
       inkscape:connector-curvature="0"
       style="fill:#000000;fill-rule:evenodd;stroke:#000000;stroke-width:1;stroke-linecap:butt" />
    <path
       d="m 451.31366,285.48819 h 28.25195"
       id="path73"
       inkscape:connector-curvature="0"
       style="fill:#000000;fill-opacity:0;fill-rule:evenodd" />
    <path
       d="m 451.31366,285.48819 h 22.25195"
       id="path75"
       inkscape:connector-curvature="0"
       style="fill-rule:evenodd;stroke:#000000;stroke-width:1;stroke-linecap:butt;stroke-linejoin:round" />
    <path
       d="m 473.5656,287.13992 4.53812,-1.65173 -4.53812,-1.65174 z"
       id="path77"
       inkscape:connector-curvature="0"
       style="fill:#000000;fill-rule:evenodd;stroke:#000000;stroke-width:1;stroke-linecap:butt" />
    <path
       d="m 607.56366,285.48819 h 28.25195"
       id="path79"
       inkscape:connector-curvature="0"
       style="fill:#000000;fill-opacity:0;fill-rule:evenodd" />
    <path
       d="m 607.56366,285.48819 h 22.25195"
       id="path81"
       inkscape:connector-curvature="0"
       style="fill-rule:evenodd;stroke:#000000;stroke-width:1;stroke-linecap:butt;stroke-linejoin:round" />
    <path
       d="m 629.8156,287.13992 4.53809,-1.65173 -4.53809,-1.65174 z"
       id="path83"
       inkscape:connector-curvature="0"
       style="fill:#000000;fill-rule:evenodd;stroke:#000000;stroke-width:1;stroke-linecap:butt" />
    <path
       d="m 89.821526,217.99213 v 23.65355"
       id="path113"
       inkscape:connector-curvature="0"
       style="fill:#000000;fill-opacity:0;fill-rule:evenodd" />
  </g>
</svg>
