<?xml version="1.0" encoding="UTF-8" standalone="no"?>
<!-- Created with Inkscape (http://www.inkscape.org/) -->

<svg
   xmlns:dc="http://purl.org/dc/elements/1.1/"
   xmlns:cc="http://creativecommons.org/ns#"
   xmlns:rdf="http://www.w3.org/1999/02/22-rdf-syntax-ns#"
   xmlns:svg="http://www.w3.org/2000/svg"
   xmlns="http://www.w3.org/2000/svg"
   xmlns:sodipodi="http://sodipodi.sourceforge.net/DTD/sodipodi-0.dtd"
   xmlns:inkscape="http://www.inkscape.org/namespaces/inkscape"
   width="198.4375mm"
   height="35.456257mm"
   viewBox="0 0 198.4375 35.456257"
   version="1.1"
   id="svg3263"
   inkscape:version="0.92.3 (2405546, 2018-03-11)"
   sodipodi:docname="ml-process-simple.svg">
  <defs
     id="defs3257" />
  <sodipodi:namedview
     id="base"
     pagecolor="#ffffff"
     bordercolor="#666666"
     borderopacity="1.0"
     inkscape:pageopacity="0.0"
     inkscape:pageshadow="2"
     inkscape:zoom="0.91406178"
     inkscape:cx="333.32547"
     inkscape:cy="20.250215"
     inkscape:document-units="mm"
     inkscape:current-layer="layer1"
     showgrid="false"
     inkscape:window-width="1920"
     inkscape:window-height="1056"
     inkscape:window-x="1920"
     inkscape:window-y="0"
     inkscape:window-maximized="1"
     fit-margin-top="0"
     fit-margin-left="0"
     fit-margin-right="0"
     fit-margin-bottom="0" />
  <metadata
     id="metadata3260">
    <rdf:RDF>
      <cc:Work
         rdf:about="">
        <dc:format>image/svg+xml</dc:format>
        <dc:type
           rdf:resource="http://purl.org/dc/dcmitype/StillImage" />
        <dc:title></dc:title>
      </cc:Work>
    </rdf:RDF>
  </metadata>
  <g
     inkscape:label="Layer 1"
     inkscape:groupmode="layer"
     id="layer1"
     transform="translate(-233.99763,112.25985)">
    <path
       d="m 234.12992,-112.12756 h 39.69167 v 35.191672 h -39.69167 z"
       id="path1890"
       style="fill:#fdc8f3;fill-opacity:1;fill-rule:evenodd;stroke:none;stroke-width:0.26458332;stroke-linecap:square;stroke-miterlimit:10"
       inkscape:connector-curvature="0" />
    <path
       d="m 234.12992,-112.12756 h 39.69167 v 35.191672 h -39.69167 z"
       id="path1892"
       inkscape:connector-curvature="0"
       style="fill:none;fill-rule:evenodd;stroke:#000000;stroke-width:0.26458332;stroke-linecap:butt;stroke-linejoin:round;stroke-miterlimit:10" />
    <path
       d="m 243.09373,-100.52189 v -3.00964 h 0.84749 q 0.39274,0 0.69453,0.17364 0.30179,0.17363 0.46716,0.49609 0.16536,0.31833 0.16536,0.73174 v 0.1943 q 0,0.42581 -0.16536,0.74828 -0.16123,0.31832 -0.46716,0.49196 -0.30592,0.16949 -0.71106,0.17363 z m 0.39687,-2.68304 v 2.35644 h 0.41755 q 0.45889,0 0.71107,-0.28525 0.25631,-0.28526 0.25631,-0.81029 v -0.17776 q 0,-0.51263 -0.23978,-0.79375 -0.23978,-0.28526 -0.68213,-0.28939 z m 3.24735,2.72438 q -0.45475,0 -0.74001,-0.29766 -0.28525,-0.30179 -0.28525,-0.80201 v -0.0703 q 0,-0.33072 0.12402,-0.59117 0.12816,-0.26459 0.35554,-0.40928 0.23151,-0.14883 0.49609,-0.14883 0.43822,0 0.678,0.28939 0.24391,0.28525 0.24391,0.81855 v 0.16124 h -1.51722 q 0.008,0.33072 0.1943,0.53329 0.18604,0.20258 0.47129,0.20258 0.20257,0 0.34313,-0.0827 0.14056,-0.0827 0.24392,-0.21911 l 0.23564,0.1819 q -0.28112,0.43408 -0.84336,0.43408 z m -0.0496,-2.00505 q -0.23151,0 -0.38861,0.1695 -0.15709,0.16537 -0.1943,0.47129 h 1.12035 v -0.0289 q -0.0165,-0.29352 -0.1571,-0.45061 -0.14056,-0.16124 -0.38034,-0.16124 z m 1.55236,1.96371 v -1.94303 h -0.35553 v -0.29353 h 0.35553 v -0.23151 q 0,-0.35967 0.19017,-0.55397 0.1943,-0.19844 0.5457,-0.19844 0.1323,0 0.26045,0.0372 l -0.0207,0.31006 q -0.0951,-0.0207 -0.2067,-0.0207 -0.18604,0 -0.28939,0.11162 -0.0992,0.10749 -0.0992,0.31006 v 0.23565 h 0.47956 v 0.29352 h -0.47956 v 1.94303 z m 1.69706,0 h -0.38448 v -2.23656 h 0.38448 z m -0.41342,-2.83187 q 0,-0.091 0.0537,-0.15296 0.0579,-0.0661 0.1695,-0.0661 0.11162,0 0.1695,0.0661 0.0579,0.062 0.0579,0.15709 0,0.091 -0.0579,0.15297 -0.0579,0.062 -0.1695,0.062 -0.11162,0 -0.1695,-0.062 -0.0537,-0.062 -0.0537,-0.1571 z m 1.387,0.59531 0.0124,0.28112 q 0.25632,-0.32246 0.66973,-0.32246 0.70693,0 0.7152,0.79789 v 1.48001 h -0.38447 v -1.48001 q 0,-0.24392 -0.11162,-0.35967 -0.10749,-0.11576 -0.33487,-0.11576 -0.18603,0 -0.32659,0.0992 -0.14056,0.0992 -0.21911,0.26045 v 1.59577 h -0.38447 v -2.23656 z m 2.90215,2.2779 q -0.45475,0 -0.74001,-0.29766 -0.28525,-0.30179 -0.28525,-0.80201 v -0.0703 q 0,-0.33072 0.12402,-0.59117 0.12816,-0.26459 0.35554,-0.40928 0.23151,-0.14883 0.49609,-0.14883 0.43822,0 0.67799,0.28939 0.24392,0.28525 0.24392,0.81855 v 0.16124 h -1.51722 q 0.008,0.33072 0.1943,0.53329 0.18604,0.20258 0.47129,0.20258 0.20257,0 0.34313,-0.0827 0.14056,-0.0827 0.24391,-0.21911 l 0.23565,0.1819 q -0.28112,0.43408 -0.84336,0.43408 z m -0.0496,-2.00505 q -0.23151,0 -0.38861,0.1695 -0.15709,0.16537 -0.1943,0.47129 h 1.12034 v -0.0289 q -0.0165,-0.29352 -0.15709,-0.45061 -0.14056,-0.16124 -0.38034,-0.16124 z m 3.79098,1.96371 q -0.0331,-0.0661 -0.0537,-0.23565 -0.26458,0.27699 -0.63665,0.27699 -0.33073,0 -0.54157,-0.18604 -0.21084,-0.19017 -0.21084,-0.47542 0,-0.3514 0.26458,-0.54157 0.26459,-0.1943 0.74828,-0.1943 h 0.37207 v -0.17777 q 0,-0.19844 -0.11989,-0.31832 -0.11989,-0.11989 -0.35554,-0.11989 -0.20257,0 -0.34313,0.10335 -0.13642,0.10335 -0.13642,0.25218 h -0.38447 q 0,-0.1695 0.11575,-0.32246 0.11989,-0.1571 0.32246,-0.24805 0.20671,-0.091 0.45062,-0.091 0.38447,0 0.60358,0.19431 0.21911,0.19016 0.22738,0.52916 v 1.0294 q 0,0.31006 0.0786,0.49196 v 0.0331 z m -0.63252,-0.29352 q 0.17777,0 0.339,-0.0909 0.16123,-0.0951 0.23564,-0.24392 v -0.45888 h -0.30179 q -0.7028,0 -0.7028,0.41341 0,0.17777 0.11989,0.28112 0.11989,0.0992 0.31006,0.0992 z m 3.17707,-2.71612 0.98392,2.45567 0.98392,-2.45567 h 0.51263 v 3.00964 h -0.39688 v -1.17409 l 0.0372,-1.26504 -0.98805,2.43913 h -0.30179 l -0.98805,-2.43086 0.0413,1.25677 v 1.17409 h -0.39688 v -3.00964 z m 3.58014,2.68304 h 1.42627 v 0.3266 h -1.82314 v -3.00964 h 0.39687 z"
       id="path1894"
       inkscape:connector-curvature="0"
       style="fill:#000000;fill-rule:nonzero;stroke:none;stroke-width:0.26458332;stroke-linecap:square;stroke-miterlimit:10" />
    <path
       d="m 244.32879,-96.590348 q 0,0.51263 -0.23564,0.82683 -0.23151,0.31005 -0.62839,0.31005 -0.40927,0 -0.64078,-0.26044 v 1.079 h -0.38448 v -3.09645 h 0.3514 l 0.0165,0.24804 q 0.23564,-0.28938 0.64906,-0.28938 0.40514,0 0.63665,0.30592 0.23564,0.30179 0.23564,0.84336 z m -0.38033,-0.0413 q 0,-0.38034 -0.16123,-0.59945 -0.16123,-0.2191 -0.44235,-0.2191 -0.34727,0 -0.5209,0.31005 v 1.06661 q 0.1695,0.30592 0.52503,0.30592 0.27285,0 0.43408,-0.21497 0.16537,-0.21911 0.16537,-0.64906 z m 1.94923,-0.75654 q -0.0868,-0.0165 -0.19017,-0.0165 -0.3762,0 -0.50849,0.32246 v 1.5875 h -0.38448 v -2.23655 h 0.37207 l 0.008,0.25631 q 0.18604,-0.29765 0.5333,-0.29765 0.11162,0 0.1695,0.0289 z m 0.25012,0.75241 q 0,-0.3266 0.12815,-0.58705 0.12816,-0.26458 0.35967,-0.40514 0.23151,-0.14469 0.52503,-0.14469 0.45889,0 0.74001,0.31832 0.28112,0.31419 0.28112,0.83923 v 0.0248 q 0,0.32659 -0.12402,0.58704 -0.12403,0.26045 -0.35967,0.40515 -0.23151,0.14469 -0.5333,0.14469 -0.45476,0 -0.73587,-0.31419 -0.28112,-0.31833 -0.28112,-0.83923 z m 0.38447,0.0455 q 0,0.37207 0.1695,0.59945 0.17363,0.22324 0.46302,0.22324 0.29352,0 0.46302,-0.22737 0.17363,-0.22738 0.17363,-0.64079 0,-0.36794 -0.17776,-0.59532 -0.17364,-0.22737 -0.46303,-0.22737 -0.28112,0 -0.45475,0.22737 -0.17363,0.22325 -0.17363,0.64079 z m 4.02249,0 q 0,0.51263 -0.23564,0.82683 -0.23565,0.31005 -0.63252,0.31005 -0.42168,0 -0.65319,-0.30179 l -0.0207,0.26045 h -0.3514 v -3.175 h 0.38447 v 1.18236 q 0.23151,-0.28525 0.63666,-0.28525 0.40927,0 0.64078,0.31005 0.23151,0.30593 0.23151,0.83923 z m -0.38034,-0.0413 q 0,-0.39274 -0.15296,-0.60358 -0.14883,-0.21497 -0.43408,-0.21497 -0.3762,0 -0.54157,0.3514 v 0.96738 q 0.17363,0.3514 0.5457,0.3514 0.27699,0 0.42995,-0.21084 0.15296,-0.21498 0.15296,-0.64079 z m 1.27951,1.13688 h -0.38447 v -3.175 h 0.38447 z m 1.53996,0.0413 q -0.45475,0 -0.74001,-0.29765 -0.28525,-0.30179 -0.28525,-0.80202 v -0.0703 q 0,-0.33073 0.12402,-0.59118 0.12816,-0.26458 0.35554,-0.40928 0.23151,-0.14882 0.49609,-0.14882 0.43822,0 0.678,0.28938 0.24391,0.28526 0.24391,0.81856 v 0.16123 h -1.51722 q 0.008,0.33073 0.1943,0.5333 0.18604,0.20257 0.47129,0.20257 0.20257,0 0.34313,-0.0827 0.14056,-0.0827 0.24392,-0.21911 l 0.23564,0.1819 q -0.28112,0.43408 -0.84336,0.43408 z m -0.0496,-2.00504 q -0.23151,0 -0.38861,0.1695 -0.15709,0.16536 -0.1943,0.47129 h 1.12035 v -0.0289 q -0.0165,-0.29353 -0.1571,-0.45062 -0.14056,-0.16123 -0.38034,-0.16123 z m 1.72186,-0.27285 0.0124,0.24804 q 0.24391,-0.28938 0.66146,-0.28938 0.47129,0 0.64079,0.35966 0.11162,-0.16123 0.28938,-0.26044 0.17777,-0.0992 0.42168,-0.0992 0.73588,0 0.74828,0.77721 v 1.50068 h -0.38034 v -1.47588 q 0,-0.23977 -0.11162,-0.35966 -0.10749,-0.11989 -0.36794,-0.11989 -0.21084,0 -0.3514,0.12815 -0.14056,0.12816 -0.16536,0.34314 v 1.48414 h -0.38447 v -1.46761 q 0,-0.48782 -0.47543,-0.48782 -0.3762,0 -0.51676,0.32246 v 1.63297 h -0.38034 v -2.23655 z m 5.77949,2.23655 q -0.0331,-0.0661 -0.0537,-0.23564 -0.26458,0.27698 -0.63665,0.27698 -0.33073,0 -0.54157,-0.18603 -0.21084,-0.19017 -0.21084,-0.47542 0,-0.3514 0.26458,-0.54157 0.26459,-0.19431 0.74828,-0.19431 h 0.37207 v -0.17776 q 0,-0.19844 -0.11989,-0.31833 -0.11989,-0.11989 -0.35554,-0.11989 -0.20257,0 -0.34313,0.10335 -0.13642,0.10336 -0.13642,0.25218 h -0.38448 q 0,-0.1695 0.11576,-0.32246 0.11989,-0.15709 0.32246,-0.24804 0.2067,-0.091 0.45062,-0.091 0.38447,0 0.60358,0.1943 0.21911,0.19017 0.22737,0.52917 v 1.02939 q 0,0.31006 0.0786,0.49196 v 0.0331 z m -0.63252,-0.29352 q 0.17777,0 0.339,-0.091 0.16123,-0.0951 0.23564,-0.24391 v -0.45889 h -0.30179 q -0.70279,0 -0.70279,0.41341 0,0.17777 0.11988,0.28112 0.11989,0.0992 0.31006,0.0992 z m 1.91823,-1.94303 0.0124,0.28112 q 0.25632,-0.32246 0.66973,-0.32246 0.70693,0 0.7152,0.79788 v 1.48001 h -0.38447 v -1.48001 q 0,-0.24391 -0.11162,-0.35967 -0.10749,-0.11575 -0.33487,-0.11575 -0.18603,0 -0.32659,0.0992 -0.14056,0.0992 -0.21911,0.26044 v 1.59577 h -0.38447 v -2.23655 z m 1.88102,1.09967 q 0,-0.51676 0.24392,-0.82682 0.24391,-0.31419 0.63665,-0.31419 0.39274,0 0.62425,0.26871 v -1.16582 h 0.38034 v 3.175 h -0.3514 l -0.0165,-0.23978 q -0.23151,0.28112 -0.64079,0.28112 -0.38861,0 -0.63252,-0.31832 -0.24391,-0.31833 -0.24391,-0.83096 z m 0.38034,0.0413 q 0,0.38034 0.1571,0.59532 0.15709,0.21497 0.43408,0.21497 0.3638,0 0.5333,-0.3266 v -1.02526 q -0.17363,-0.31832 -0.52917,-0.31832 -0.28112,0 -0.43821,0.2191 -0.1571,0.21498 -0.1571,0.64079 z"
       id="path1896"
       inkscape:connector-curvature="0"
       style="fill:#000000;fill-rule:nonzero;stroke:none;stroke-width:0.26458332;stroke-linecap:square;stroke-miterlimit:10" />
    <path
       d="m 246.76069,-91.563258 q 0,0.51263 -0.23565,0.82682 -0.23151,0.31006 -0.62838,0.31006 -0.40928,0 -0.64079,-0.26045 v 1.079 h -0.38447 v -3.09645 h 0.3514 l 0.0165,0.24805 q 0.23564,-0.28939 0.64905,-0.28939 0.40515,0 0.63666,0.30592 0.23564,0.30179 0.23564,0.84336 z m -0.38034,-0.0413 q 0,-0.38034 -0.16123,-0.59945 -0.16123,-0.21911 -0.44235,-0.21911 -0.34727,0 -0.5209,0.31006 v 1.0666 q 0.1695,0.30592 0.52503,0.30592 0.27285,0 0.43408,-0.21497 0.16537,-0.21911 0.16537,-0.64905 z m 1.94924,-0.75655 q -0.0868,-0.0165 -0.19017,-0.0165 -0.37621,0 -0.5085,0.32247 v 1.5875 h -0.38447 v -2.23656 h 0.37207 l 0.008,0.25632 q 0.18603,-0.29766 0.5333,-0.29766 0.11162,0 0.1695,0.0289 z m 0.25011,0.75241 q 0,-0.32659 0.12816,-0.58704 0.12815,-0.26459 0.35966,-0.40515 0.23152,-0.14469 0.52504,-0.14469 0.45888,0 0.74,0.31833 0.28112,0.31419 0.28112,0.83922 v 0.0248 q 0,0.3266 -0.12402,0.58705 -0.12402,0.26045 -0.35967,0.40514 -0.23151,0.14469 -0.5333,0.14469 -0.45475,0 -0.73587,-0.31419 -0.28112,-0.31832 -0.28112,-0.83922 z m 0.38447,0.0455 q 0,0.37207 0.1695,0.59944 0.17363,0.22324 0.46302,0.22324 0.29352,0 0.46302,-0.22737 0.17364,-0.22738 0.17364,-0.64079 0,-0.36793 -0.17777,-0.59531 -0.17363,-0.22738 -0.46302,-0.22738 -0.28112,0 -0.45476,0.22738 -0.17363,0.22324 -0.17363,0.64079 z m 4.01836,0 q 0,0.51263 -0.23564,0.82682 -0.23151,0.31006 -0.62839,0.31006 -0.40928,0 -0.64079,-0.26045 v 1.079 h -0.38447 v -3.09645 h 0.3514 l 0.0165,0.24805 q 0.23564,-0.28939 0.64906,-0.28939 0.40514,0 0.63665,0.30592 0.23564,0.30179 0.23564,0.84336 z m -0.38034,-0.0413 q 0,-0.38034 -0.16123,-0.59945 -0.16123,-0.21911 -0.44235,-0.21911 -0.34726,0 -0.5209,0.31006 v 1.0666 q 0.1695,0.30592 0.52504,0.30592 0.27285,0 0.43408,-0.21497 0.16536,-0.21911 0.16536,-0.64905 z m 0.76688,-0.004 q 0,-0.3266 0.12816,-0.58705 0.12816,-0.26458 0.35967,-0.40514 0.23151,-0.14469 0.52503,-0.14469 0.45889,0 0.74001,0.31832 0.28112,0.3142 0.28112,0.83923 v 0.0248 q 0,0.3266 -0.12403,0.58705 -0.12402,0.26044 -0.35967,0.40514 -0.23151,0.14469 -0.5333,0.14469 -0.45475,0 -0.73587,-0.31419 -0.28112,-0.31833 -0.28112,-0.83923 z m 0.38447,0.0455 q 0,0.37207 0.1695,0.59945 0.17364,0.22324 0.46302,0.22324 0.29353,0 0.46302,-0.22737 0.17364,-0.22738 0.17364,-0.64079 0,-0.36794 -0.17777,-0.59531 -0.17363,-0.22738 -0.46302,-0.22738 -0.28112,0 -0.45475,0.22738 -0.17364,0.22324 -0.17364,0.64078 z m 3.43132,0.50023 q 0,-0.15296 -0.11576,-0.23978 -0.11575,-0.0868 -0.40927,-0.14883 -0.28939,-0.062 -0.45889,-0.14882 -0.1695,-0.0868 -0.25218,-0.20671 -0.0827,-0.11989 -0.0827,-0.28525 0,-0.27285 0.23151,-0.46302 0.23564,-0.19017 0.59531,-0.19017 0.38034,0 0.61598,0.19844 0.23978,0.1943 0.23978,0.50022 h -0.38447 q 0,-0.15709 -0.13643,-0.26871 -0.13229,-0.11576 -0.33486,-0.11576 -0.2067,0 -0.32659,0.0909 -0.11576,0.091 -0.11576,0.23564 0,0.14056 0.10749,0.21085 0.11162,0.0703 0.39687,0.13642 0.28526,0.062 0.46302,0.15296 0.17777,0.0868 0.26459,0.21084 0.0868,0.12403 0.0868,0.30593 0,0.29765 -0.23978,0.47955 -0.23978,0.1819 -0.62425,0.1819 -0.26872,0 -0.47543,-0.0951 -0.2067,-0.0951 -0.32246,-0.26458 -0.11575,-0.17363 -0.11575,-0.37207 h 0.38033 q 0.0124,0.1943 0.15297,0.30592 0.14469,0.11162 0.38034,0.11162 0.2191,0 0.34726,-0.0868 0.13229,-0.0868 0.13229,-0.23565 z m 1.81074,0.63665 q -0.45475,0 -0.74,-0.29765 -0.28526,-0.30179 -0.28526,-0.80202 v -0.0703 q 0,-0.33073 0.12402,-0.59118 0.12816,-0.26458 0.35554,-0.40927 0.23151,-0.14883 0.49609,-0.14883 0.43822,0 0.678,0.28939 0.24391,0.28525 0.24391,0.81855 v 0.16123 h -1.51722 q 0.008,0.33073 0.1943,0.5333 0.18604,0.20257 0.47129,0.20257 0.20257,0 0.34313,-0.0827 0.14056,-0.0827 0.24392,-0.21911 l 0.23564,0.1819 q -0.28112,0.43408 -0.84336,0.43408 z m -0.0496,-2.00504 q -0.23151,0 -0.38861,0.1695 -0.15709,0.16536 -0.1943,0.47129 h 1.12035 v -0.0289 q -0.0165,-0.29352 -0.1571,-0.45062 -0.14056,-0.16123 -0.38034,-0.16123 z m 3.79098,1.9637 q -0.0331,-0.0661 -0.0537,-0.23564 -0.26458,0.27698 -0.63665,0.27698 -0.33073,0 -0.54157,-0.18603 -0.21084,-0.19017 -0.21084,-0.47542 0,-0.3514 0.26459,-0.54157 0.26458,-0.19431 0.74827,-0.19431 h 0.37207 v -0.17776 q 0,-0.19844 -0.11989,-0.31833 -0.11989,-0.11989 -0.35553,-0.11989 -0.20257,0 -0.34313,0.10335 -0.13643,0.10336 -0.13643,0.25219 h -0.38447 q 0,-0.1695 0.11575,-0.32246 0.11989,-0.1571 0.32246,-0.24805 0.20671,-0.091 0.45062,-0.091 0.38448,0 0.60358,0.1943 0.21911,0.19017 0.22738,0.52917 v 1.02939 q 0,0.31006 0.0786,0.49196 v 0.0331 z m -0.63252,-0.29352 q 0.17777,0 0.339,-0.0909 0.16123,-0.0951 0.23565,-0.24391 v -0.45889 h -0.3018 q -0.70279,0 -0.70279,0.41341 0,0.17777 0.11989,0.28112 0.11988,0.0992 0.31005,0.0992 z"
       id="path1898"
       inkscape:connector-curvature="0"
       style="fill:#000000;fill-rule:nonzero;stroke:none;stroke-width:0.26458332;stroke-linecap:square;stroke-miterlimit:10" />
    <path
       d="m 248.00816,-86.035948 q 0,-0.15297 -0.11576,-0.23978 -0.11575,-0.0868 -0.40927,-0.14883 -0.28939,-0.062 -0.45889,-0.14883 -0.1695,-0.0868 -0.25218,-0.2067 -0.0827,-0.11989 -0.0827,-0.28526 0,-0.27285 0.23151,-0.46302 0.23564,-0.19017 0.59531,-0.19017 0.38034,0 0.61598,0.19844 0.23978,0.1943 0.23978,0.50023 h -0.38447 q 0,-0.1571 -0.13642,-0.26872 -0.1323,-0.11576 -0.33487,-0.11576 -0.2067,0 -0.32659,0.091 -0.11576,0.0909 -0.11576,0.23565 0,0.14056 0.10749,0.21084 0.11162,0.0703 0.39687,0.13643 0.28526,0.062 0.46302,0.15296 0.17777,0.0868 0.26459,0.21084 0.0868,0.12402 0.0868,0.30592 0,0.29766 -0.23978,0.47956 -0.23978,0.1819 -0.62425,0.1819 -0.26872,0 -0.47543,-0.0951 -0.2067,-0.0951 -0.32246,-0.26458 -0.11575,-0.17363 -0.11575,-0.37207 h 0.38034 q 0.0124,0.19431 0.15296,0.30593 0.14469,0.11162 0.38034,0.11162 0.21911,0 0.34726,-0.0868 0.13229,-0.0868 0.13229,-0.23564 z m 0.78135,-0.54571 q 0,-0.32659 0.12815,-0.58704 0.12816,-0.26458 0.35967,-0.40514 0.23151,-0.1447 0.52503,-0.1447 0.45889,0 0.74001,0.31833 0.28112,0.31419 0.28112,0.83922 v 0.0248 q 0,0.3266 -0.12402,0.58705 -0.12403,0.26045 -0.35967,0.40514 -0.23151,0.1447 -0.5333,0.1447 -0.45475,0 -0.73587,-0.3142 -0.28112,-0.31832 -0.28112,-0.83922 z m 0.38447,0.0455 q 0,0.37207 0.1695,0.59945 0.17363,0.22324 0.46302,0.22324 0.29352,0 0.46302,-0.22738 0.17363,-0.22738 0.17363,-0.64079 0,-0.36793 -0.17776,-0.59531 -0.17364,-0.22738 -0.46303,-0.22738 -0.28112,0 -0.45475,0.22738 -0.17363,0.22324 -0.17363,0.64079 z m 2.54661,1.09554 h -0.38447 v -3.175 h 0.38447 z m 1.99058,-0.22324 q -0.22324,0.26458 -0.65319,0.26458 -0.35967,0 -0.5457,-0.20671 -0.18604,-0.21084 -0.19017,-0.61598 v -1.45521 h 0.38447 v 1.44281 q 0,0.50849 0.41341,0.50849 0.43822,0 0.58291,-0.32659 v -1.62471 h 0.38034 v 2.23656 h -0.3638 z m 1.47381,-2.55489 v 0.54157 h 0.41755 v 0.29353 h -0.41755 v 1.38906 q 0,0.13229 0.0537,0.20257 0.0579,0.0661 0.19017,0.0661 0.0661,0 0.1819,-0.0248 v 0.31006 q -0.14883,0.0413 -0.29352,0.0413 -0.25631,0 -0.38861,-0.15296 -0.12815,-0.1571 -0.12815,-0.44235 v -1.38906 h -0.40515 v -0.29352 h 0.40515 v -0.54157 z m 1.27951,2.77813 h -0.38447 v -2.23656 h 0.38447 z m -0.41341,-2.83187 q 0,-0.091 0.0537,-0.15296 0.0579,-0.0661 0.1695,-0.0661 0.11162,0 0.1695,0.0661 0.0579,0.062 0.0579,0.15709 0,0.091 -0.0579,0.15297 -0.0579,0.062 -0.1695,0.062 -0.11162,0 -0.1695,-0.062 -0.0537,-0.062 -0.0537,-0.1571 z m 0.92397,1.69085 q 0,-0.32659 0.12816,-0.58704 0.12816,-0.26458 0.35967,-0.40514 0.23151,-0.1447 0.52503,-0.1447 0.45889,0 0.74001,0.31833 0.28112,0.31419 0.28112,0.83922 v 0.0248 q 0,0.3266 -0.12402,0.58705 -0.12403,0.26045 -0.35967,0.40514 -0.23151,0.1447 -0.5333,0.1447 -0.45476,0 -0.73588,-0.3142 -0.28112,-0.31832 -0.28112,-0.83922 z m 0.38448,0.0455 q 0,0.37207 0.1695,0.59945 0.17363,0.22324 0.46302,0.22324 0.29352,0 0.46302,-0.22738 0.17363,-0.22738 0.17363,-0.64079 0,-0.36793 -0.17777,-0.59531 -0.17363,-0.22738 -0.46302,-0.22738 -0.28112,0 -0.45475,0.22738 -0.17363,0.22324 -0.17363,0.64079 z m 2.49287,-1.14102 0.0124,0.28112 q 0.25631,-0.32246 0.66972,-0.32246 0.70694,0 0.71521,0.79789 v 1.48001 h -0.38448 v -1.48001 q 0,-0.24392 -0.11162,-0.35967 -0.10748,-0.11576 -0.33486,-0.11576 -0.18603,0 -0.32659,0.0992 -0.14056,0.0992 -0.21911,0.26045 v 1.59577 h -0.38447 v -2.23656 z"
       id="path1900"
       inkscape:connector-curvature="0"
       style="fill:#000000;fill-rule:nonzero;stroke:none;stroke-width:0.26458332;stroke-linecap:square;stroke-miterlimit:10" />
    <path
       d="m 281.29606,-112.12756 h 30.42501 v 35.191672 h -30.42501 z"
       id="path1902"
       inkscape:connector-curvature="0"
       style="fill:#ffe599;fill-rule:evenodd;stroke:none;stroke-width:0.26458332;stroke-linecap:square;stroke-miterlimit:10" />
    <path
       d="m 281.29606,-112.12756 h 30.42501 v 35.191672 h -30.42501 z"
       id="path1904"
       inkscape:connector-curvature="0"
       style="fill:none;fill-rule:evenodd;stroke:#000000;stroke-width:0.26458332;stroke-linecap:butt;stroke-linejoin:round;stroke-miterlimit:10" />
    <path
       d="m 289.85367,-96.449788 q -0.0537,0.47543 -0.3514,0.73588 -0.29766,0.26044 -0.78961,0.26044 -0.53331,0 -0.85577,-0.38033 -0.31832,-0.38448 -0.31832,-1.02527 v -0.28938 q 0,-0.42168 0.14883,-0.74001 0.14882,-0.31833 0.42167,-0.48782 0.27699,-0.1695 0.64079,-0.1695 0.47956,0 0.76895,0.26871 0.28938,0.26459 0.33486,0.74001 h -0.39687 q -0.0537,-0.35967 -0.22738,-0.5209 -0.1695,-0.16123 -0.47956,-0.16123 -0.38034,0 -0.59944,0.28112 -0.21498,0.28112 -0.21498,0.79788 v 0.29353 q 0,0.48782 0.20257,0.77721 0.20671,0.28939 0.57465,0.28939 0.33072,0 0.50849,-0.14883 0.17777,-0.14883 0.23565,-0.5209 z m 0.38241,-0.18603 q 0,-0.3266 0.12815,-0.58705 0.12816,-0.26458 0.35967,-0.40514 0.23151,-0.14469 0.52504,-0.14469 0.45888,0 0.74,0.31832 0.28112,0.31419 0.28112,0.83923 v 0.0248 q 0,0.32659 -0.12402,0.58704 -0.12403,0.26045 -0.35967,0.40515 -0.23151,0.14469 -0.5333,0.14469 -0.45475,0 -0.73587,-0.31419 -0.28112,-0.31833 -0.28112,-0.83923 z m 0.38447,0.0455 q 0,0.37207 0.1695,0.59945 0.17363,0.22324 0.46302,0.22324 0.29352,0 0.46302,-0.22737 0.17363,-0.22738 0.17363,-0.64079 0,-0.36794 -0.17776,-0.59532 -0.17364,-0.22737 -0.46302,-0.22737 -0.28112,0 -0.45476,0.22737 -0.17363,0.22325 -0.17363,0.64079 z m 2.49287,-1.14101 0.0124,0.28112 q 0.25631,-0.32246 0.66973,-0.32246 0.70693,0 0.7152,0.79788 v 1.48001 h -0.38447 v -1.48001 q 0,-0.24391 -0.11163,-0.35967 -0.10748,-0.11575 -0.33486,-0.11575 -0.18604,0 -0.3266,0.0992 -0.14056,0.0992 -0.2191,0.26044 v 1.59577 h -0.38448 v -2.23655 z m 3.27422,1.64124 q 0,-0.15296 -0.11576,-0.23978 -0.11575,-0.0868 -0.40927,-0.14883 -0.28939,-0.062 -0.45889,-0.14882 -0.1695,-0.0868 -0.25218,-0.20671 -0.0827,-0.11989 -0.0827,-0.28525 0,-0.27285 0.23151,-0.46302 0.23564,-0.19017 0.59531,-0.19017 0.38034,0 0.61598,0.19843 0.23978,0.19431 0.23978,0.50023 h -0.38447 q 0,-0.1571 -0.13643,-0.26872 -0.13229,-0.11575 -0.33486,-0.11575 -0.2067,0 -0.32659,0.091 -0.11576,0.091 -0.11576,0.23564 0,0.14056 0.10749,0.21084 0.11162,0.0703 0.39687,0.13643 0.28526,0.062 0.46302,0.15296 0.17777,0.0868 0.26459,0.21084 0.0868,0.12402 0.0868,0.30593 0,0.29765 -0.23978,0.47955 -0.23978,0.1819 -0.62425,0.1819 -0.26872,0 -0.47543,-0.0951 -0.2067,-0.0951 -0.32246,-0.26458 -0.11575,-0.17364 -0.11575,-0.37207 h 0.38034 q 0.0124,0.1943 0.15296,0.30592 0.14469,0.11162 0.38034,0.11162 0.2191,0 0.34726,-0.0868 0.13229,-0.0868 0.13229,-0.23565 z m 1.40146,-2.18281 v 0.54157 h 0.41755 v 0.29352 h -0.41755 v 1.38906 q 0,0.13229 0.0537,0.20257 0.0579,0.0661 0.19018,0.0661 0.0661,0 0.1819,-0.0248 v 0.31006 q -0.14883,0.0413 -0.29353,0.0413 -0.25631,0 -0.3886,-0.15296 -0.12816,-0.1571 -0.12816,-0.44236 v -1.38906 h -0.40514 v -0.29352 h 0.40514 v -0.54157 z m 1.94511,0.8847 q -0.0868,-0.0165 -0.19017,-0.0165 -0.3762,0 -0.5085,0.32246 v 1.5875 h -0.38447 v -2.23655 h 0.37207 l 0.008,0.25631 q 0.18604,-0.29765 0.5333,-0.29765 0.11162,0 0.1695,0.0289 z m 1.73013,1.67018 q -0.22325,0.26458 -0.65319,0.26458 -0.35967,0 -0.54571,-0.2067 -0.18603,-0.21084 -0.19017,-0.61598 v -1.45521 h 0.38448 v 1.4428 q 0,0.5085 0.41341,0.5085 0.43821,0 0.58291,-0.3266 v -1.6247 h 0.38034 v 2.23655 h -0.36381 z m 1.85001,-0.0496 q 0.20671,0 0.35967,-0.12402 0.15296,-0.12403 0.1695,-0.31006 h 0.35967 q -0.008,0.1943 -0.13229,0.36794 -0.11989,0.17363 -0.3266,0.27698 -0.20257,0.10335 -0.42995,0.10335 -0.45475,0 -0.7276,-0.30592 -0.26872,-0.30593 -0.26872,-0.83509 v -0.062 q 0,-0.3266 0.11989,-0.57878 0.11989,-0.25631 0.34313,-0.39687 0.22738,-0.14056 0.5333,-0.14056 0.37621,0 0.62425,0.22737 0.24805,0.22324 0.26459,0.58291 h -0.35967 q -0.0165,-0.21911 -0.16536,-0.35553 -0.14883,-0.14056 -0.36381,-0.14056 -0.29352,0 -0.45475,0.21084 -0.1571,0.2067 -0.1571,0.60358 v 0.0744 q 0,0.38448 0.1571,0.59532 0.16123,0.2067 0.45475,0.2067 z m 1.83968,-2.50527 v 0.54157 h 0.41755 v 0.29352 h -0.41755 v 1.38906 q 0,0.13229 0.0537,0.20257 0.0579,0.0661 0.19017,0.0661 0.0661,0 0.1819,-0.0248 v 0.31006 q -0.14882,0.0413 -0.29352,0.0413 -0.25631,0 -0.38861,-0.15296 -0.12815,-0.1571 -0.12815,-0.44236 v -1.38906 h -0.40515 v -0.29352 h 0.40515 v -0.54157 z"
       id="path1906"
       inkscape:connector-curvature="0"
       style="fill:#000000;fill-rule:nonzero;stroke:none;stroke-width:0.26458332;stroke-linecap:square;stroke-miterlimit:10" />
    <path
       d="m 285.82188,-91.029958 0.52089,-1.67432 h 0.40928 l -0.8971,2.58382 q -0.21084,0.55811 -0.66559,0.55811 l -0.0703,-0.008 -0.1447,-0.0248 v -0.31006 l 0.10335,0.008 q 0.19431,0 0.30179,-0.0785 0.11163,-0.0786 0.1819,-0.28939 l 0.0827,-0.22738 -0.79788,-2.21175 h 0.41755 z m 1.17202,-0.57878 q 0,-0.3266 0.12815,-0.58704 0.12816,-0.26459 0.35967,-0.40515 0.23151,-0.14469 0.52504,-0.14469 0.45888,0 0.74,0.31833 0.28112,0.31419 0.28112,0.83922 v 0.0248 q 0,0.3266 -0.12402,0.58705 -0.12402,0.26045 -0.35967,0.40514 -0.23151,0.14469 -0.5333,0.14469 -0.45475,0 -0.73587,-0.31419 -0.28112,-0.31833 -0.28112,-0.83923 z m 0.38447,0.0455 q 0,0.37207 0.1695,0.59945 0.17363,0.22324 0.46302,0.22324 0.29352,0 0.46302,-0.22737 0.17363,-0.22738 0.17363,-0.64079 0,-0.36794 -0.17776,-0.59531 -0.17364,-0.22738 -0.46302,-0.22738 -0.28112,0 -0.45476,0.22738 -0.17363,0.22324 -0.17363,0.64078 z m 3.50986,0.8723 q -0.22324,0.26459 -0.65319,0.26459 -0.35967,0 -0.5457,-0.20671 -0.18604,-0.21084 -0.19017,-0.61598 v -1.45521 h 0.38447 v 1.44281 q 0,0.50849 0.41341,0.50849 0.43822,0 0.58292,-0.32659 v -1.62471 h 0.38033 v 2.23656 h -0.3638 z m 2.03606,-1.67018 q -0.0868,-0.0165 -0.19017,-0.0165 -0.37621,0 -0.5085,0.32247 v 1.5875 h -0.38447 v -2.23656 h 0.37207 l 0.008,0.25631 q 0.18603,-0.29765 0.5333,-0.29765 0.11162,0 0.1695,0.0289 z m 1.30638,0.75654 q 0,-0.51676 0.24391,-0.82682 0.24391,-0.31419 0.63665,-0.31419 0.39274,0 0.62425,0.26872 v -1.16582 h 0.38034 v 3.175 h -0.3514 l -0.0165,-0.23978 q -0.23151,0.28112 -0.64079,0.28112 -0.3886,0 -0.63252,-0.31833 -0.24391,-0.31833 -0.24391,-0.83096 z m 0.38033,0.0413 q 0,0.38034 0.1571,0.59532 0.1571,0.21497 0.43408,0.21497 0.3638,0 0.5333,-0.32659 v -1.02526 q -0.17363,-0.31833 -0.52916,-0.31833 -0.28112,0 -0.43822,0.21911 -0.1571,0.21497 -0.1571,0.64078 z m 3.47886,1.09555 q -0.0331,-0.0661 -0.0537,-0.23565 -0.26458,0.27699 -0.63665,0.27699 -0.33073,0 -0.54157,-0.18604 -0.21084,-0.19017 -0.21084,-0.47542 0,-0.3514 0.26458,-0.54157 0.26458,-0.1943 0.74828,-0.1943 h 0.37207 v -0.17777 q 0,-0.19844 -0.11989,-0.31833 -0.11989,-0.11989 -0.35554,-0.11989 -0.20257,0 -0.34313,0.10336 -0.13643,0.10335 -0.13643,0.25218 h -0.38447 q 0,-0.1695 0.11576,-0.32247 0.11989,-0.15709 0.32246,-0.24804 0.20671,-0.091 0.45062,-0.091 0.38447,0 0.60358,0.1943 0.21911,0.19017 0.22738,0.52917 v 1.02939 q 0,0.31006 0.0785,0.49196 v 0.0331 z m -0.63252,-0.29353 q 0.17777,0 0.339,-0.091 0.16123,-0.0951 0.23565,-0.24391 v -0.45889 h -0.3018 q -0.7028,0 -0.7028,0.41341 0,0.17777 0.11989,0.28112 0.11989,0.0992 0.31006,0.0992 z m 2.07533,-2.4846 v 0.54157 h 0.41755 v 0.29352 h -0.41755 v 1.38906 q 0,0.1323 0.0537,0.20257 0.0579,0.0661 0.19017,0.0661 0.0661,0 0.1819,-0.0248 v 0.31006 q -0.14883,0.0413 -0.29352,0.0413 -0.25631,0 -0.38861,-0.15296 -0.12816,-0.1571 -0.12816,-0.44235 v -1.38906 h -0.40514 v -0.29353 h 0.40514 v -0.54157 z m 2.24276,2.77813 q -0.0331,-0.0661 -0.0537,-0.23565 -0.26459,0.27699 -0.63666,0.27699 -0.33072,0 -0.54157,-0.18604 -0.21083,-0.19017 -0.21083,-0.47542 0,-0.3514 0.26458,-0.54157 0.26458,-0.1943 0.74827,-0.1943 h 0.37207 v -0.17777 q 0,-0.19844 -0.11989,-0.31833 -0.11989,-0.11989 -0.35553,-0.11989 -0.20257,0 -0.34313,0.10336 -0.13643,0.10335 -0.13643,0.25218 h -0.38447 q 0,-0.1695 0.11575,-0.32247 0.1199,-0.15709 0.32247,-0.24804 0.2067,-0.091 0.45062,-0.091 0.38447,0 0.60358,0.1943 0.2191,0.19017 0.22737,0.52917 v 1.02939 q 0,0.31006 0.0785,0.49196 v 0.0331 z m -0.63252,-0.29353 q 0.17777,0 0.339,-0.091 0.16123,-0.0951 0.23564,-0.24391 v -0.45889 h -0.30179 q -0.7028,0 -0.7028,0.41341 0,0.17777 0.11989,0.28112 0.11989,0.0992 0.31006,0.0992 z m 2.85667,-0.30179 q 0,-0.15296 -0.11575,-0.23978 -0.11576,-0.0868 -0.40928,-0.14882 -0.28939,-0.062 -0.45889,-0.14883 -0.16949,-0.0868 -0.25218,-0.20671 -0.0827,-0.11989 -0.0827,-0.28525 0,-0.27285 0.23151,-0.46302 0.23565,-0.19017 0.59532,-0.19017 0.38034,0 0.61598,0.19843 0.23978,0.19431 0.23978,0.50023 h -0.38447 q 0,-0.15709 -0.13643,-0.26871 -0.13229,-0.11576 -0.33486,-0.11576 -0.20671,0 -0.3266,0.091 -0.11575,0.0909 -0.11575,0.23565 0,0.14056 0.10748,0.21083 0.11162,0.0703 0.39688,0.13643 0.28525,0.062 0.46302,0.15296 0.17777,0.0868 0.26458,0.21084 0.0868,0.12403 0.0868,0.30593 0,0.29765 -0.23978,0.47956 -0.23978,0.1819 -0.62425,0.1819 -0.26872,0 -0.47542,-0.0951 -0.20671,-0.0951 -0.32246,-0.26458 -0.11576,-0.17364 -0.11576,-0.37207 h 0.38034 q 0.0124,0.1943 0.15296,0.30592 0.1447,0.11162 0.38034,0.11162 0.21911,0 0.34727,-0.0868 0.13229,-0.0868 0.13229,-0.23565 z m 1.81074,0.63666 q -0.45475,0 -0.74,-0.29766 -0.28526,-0.30179 -0.28526,-0.80202 v -0.0703 q 0,-0.33073 0.12403,-0.59118 0.12816,-0.26458 0.35553,-0.40927 0.23151,-0.14883 0.49609,-0.14883 0.43822,0 0.678,0.28939 0.24391,0.28525 0.24391,0.81855 v 0.16123 h -1.51722 q 0.008,0.33073 0.19431,0.5333 0.18603,0.20257 0.47129,0.20257 0.20257,0 0.34313,-0.0827 0.14056,-0.0827 0.24391,-0.21911 l 0.23564,0.1819 q -0.28112,0.43409 -0.84336,0.43409 z m -0.0496,-2.00505 q -0.23151,0 -0.3886,0.1695 -0.1571,0.16536 -0.1943,0.47129 h 1.12034 v -0.0289 q -0.0165,-0.29352 -0.1571,-0.45062 -0.14056,-0.16123 -0.38034,-0.16123 z m 1.88309,-0.81442 v 0.54157 h 0.41755 v 0.29352 h -0.41755 v 1.38906 q 0,0.1323 0.0537,0.20257 0.0579,0.0661 0.19017,0.0661 0.0661,0 0.18191,-0.0248 v 0.31006 q -0.14883,0.0413 -0.29353,0.0413 -0.25631,0 -0.3886,-0.15296 -0.12816,-0.1571 -0.12816,-0.44235 v -1.38906 h -0.40514 v -0.29353 h 0.40514 v -0.54157 z"
       id="path1908"
       inkscape:connector-curvature="0"
       style="fill:#000000;fill-rule:nonzero;stroke:none;stroke-width:0.26458332;stroke-linecap:square;stroke-miterlimit:10" />
    <path
       d="m 319.19554,-112.12756 h 30.42501 v 35.191672 h -30.42501 z"
       id="path1910"
       inkscape:connector-curvature="0"
       style="fill:#ffe599;fill-rule:evenodd;stroke:none;stroke-width:0.26458332;stroke-linecap:square;stroke-miterlimit:10" />
    <path
       d="m 319.19554,-112.12756 h 30.42501 v 35.191672 h -30.42501 z"
       id="path1912"
       inkscape:connector-curvature="0"
       style="fill:none;fill-rule:evenodd;stroke:#000000;stroke-width:0.26458332;stroke-linecap:butt;stroke-linejoin:round;stroke-miterlimit:10" />
    <path
       d="m 326.93563,-98.177848 h -0.96738 v 2.68304 h -0.39688 v -2.68304 h -0.96325 v -0.32659 h 2.32751 z m 1.46761,0.78962 q -0.0868,-0.0165 -0.19017,-0.0165 -0.3762,0 -0.50849,0.32246 v 1.5875 h -0.38448 v -2.23655 h 0.37207 l 0.008,0.25631 q 0.18604,-0.29765 0.5333,-0.29765 0.11162,0 0.1695,0.0289 z m 1.73013,1.89342 q -0.0331,-0.0661 -0.0538,-0.23564 -0.26458,0.27698 -0.63665,0.27698 -0.33073,0 -0.54157,-0.18603 -0.21084,-0.19017 -0.21084,-0.47542 0,-0.3514 0.26458,-0.54157 0.26458,-0.19431 0.74828,-0.19431 h 0.37207 v -0.17776 q 0,-0.19844 -0.11989,-0.31833 -0.11989,-0.11989 -0.35554,-0.11989 -0.20257,0 -0.34313,0.10335 -0.13642,0.10336 -0.13642,0.25218 h -0.38448 q 0,-0.1695 0.11576,-0.32246 0.11989,-0.15709 0.32246,-0.24804 0.20671,-0.091 0.45062,-0.091 0.38447,0 0.60358,0.1943 0.21911,0.19017 0.22738,0.52917 v 1.02939 q 0,0.31006 0.0785,0.49196 v 0.0331 z m -0.63252,-0.29352 q 0.17777,0 0.339,-0.091 0.16123,-0.0951 0.23564,-0.24391 v -0.45889 h -0.30179 q -0.7028,0 -0.7028,0.41341 0,0.17777 0.11989,0.28112 0.11989,0.0992 0.31006,0.0992 z m 1.91823,-1.94303 0.0124,0.28112 q 0.25631,-0.32246 0.66972,-0.32246 0.70694,0 0.7152,0.79788 v 1.48001 h -0.38447 v -1.48001 q 0,-0.24391 -0.11162,-0.35967 -0.10749,-0.11575 -0.33486,-0.11575 -0.18604,0 -0.3266,0.0992 -0.14056,0.0992 -0.2191,0.26044 v 1.59577 h -0.38448 v -2.23655 z m 3.27422,1.64124 q 0,-0.15296 -0.11576,-0.23978 -0.11575,-0.0868 -0.40927,-0.14883 -0.28939,-0.062 -0.45889,-0.14882 -0.1695,-0.0868 -0.25218,-0.20671 -0.0827,-0.11989 -0.0827,-0.28525 0,-0.27285 0.23151,-0.46302 0.23564,-0.19017 0.59531,-0.19017 0.38034,0 0.61598,0.19843 0.23978,0.19431 0.23978,0.50023 h -0.38447 q 0,-0.1571 -0.13643,-0.26872 -0.13229,-0.11575 -0.33486,-0.11575 -0.20671,0 -0.3266,0.091 -0.11575,0.091 -0.11575,0.23564 0,0.14056 0.10748,0.21084 0.11163,0.0703 0.39688,0.13643 0.28526,0.062 0.46302,0.15296 0.17777,0.0868 0.26459,0.21084 0.0868,0.12402 0.0868,0.30593 0,0.29765 -0.23977,0.47955 -0.23978,0.1819 -0.62426,0.1819 -0.26872,0 -0.47542,-0.0951 -0.20671,-0.0951 -0.32246,-0.26458 -0.11576,-0.17364 -0.11576,-0.37207 h 0.38034 q 0.0124,0.1943 0.15296,0.30592 0.1447,0.11162 0.38034,0.11162 0.21911,0 0.34727,-0.0868 0.13229,-0.0868 0.13229,-0.23565 z m 1.07074,0.59531 v -1.94303 h -0.35554 v -0.29352 h 0.35554 v -0.23151 q 0,-0.35967 0.19017,-0.55397 0.1943,-0.19844 0.5457,-0.19844 0.13229,0 0.26045,0.0372 l -0.0207,0.31006 q -0.0951,-0.0207 -0.2067,-0.0207 -0.18604,0 -0.28939,0.11162 -0.0992,0.10749 -0.0992,0.31006 v 0.23565 h 0.47956 v 0.29352 h -0.47956 v 1.94303 z m 1.18028,-1.14101 q 0,-0.3266 0.12816,-0.58705 0.12816,-0.26458 0.35967,-0.40514 0.23151,-0.14469 0.52503,-0.14469 0.45889,0 0.74001,0.31832 0.28112,0.31419 0.28112,0.83923 v 0.0248 q 0,0.32659 -0.12402,0.58704 -0.12403,0.26045 -0.35967,0.40515 -0.23151,0.14469 -0.5333,0.14469 -0.45476,0 -0.73588,-0.31419 -0.28112,-0.31833 -0.28112,-0.83923 z m 0.38448,0.0455 q 0,0.37207 0.1695,0.59945 0.17363,0.22324 0.46302,0.22324 0.29352,0 0.46302,-0.22737 0.17363,-0.22738 0.17363,-0.64079 0,-0.36794 -0.17777,-0.59532 -0.17363,-0.22737 -0.46302,-0.22737 -0.28112,0 -0.45475,0.22737 -0.17363,0.22325 -0.17363,0.64079 z m 3.2122,-0.79788 q -0.0868,-0.0165 -0.19016,-0.0165 -0.37621,0 -0.5085,0.32246 v 1.5875 h -0.38447 v -2.23655 h 0.37207 l 0.008,0.25631 q 0.18604,-0.29765 0.5333,-0.29765 0.11162,0 0.1695,0.0289 z m 0.70901,-0.34313 0.0124,0.24804 q 0.24392,-0.28938 0.66146,-0.28938 0.47129,0 0.64079,0.35966 0.11162,-0.16123 0.28939,-0.26044 0.17777,-0.0992 0.42168,-0.0992 0.73587,0 0.74827,0.77721 v 1.50068 h -0.38034 v -1.47588 q 0,-0.23977 -0.11162,-0.35966 -0.10748,-0.11989 -0.36793,-0.11989 -0.21084,0 -0.3514,0.12815 -0.14056,0.12816 -0.16537,0.34314 v 1.48414 h -0.38447 v -1.46761 q 0,-0.48782 -0.47542,-0.48782 -0.37621,0 -0.51677,0.32246 v 1.63297 h -0.38034 v -2.23655 z"
       id="path1914"
       inkscape:connector-curvature="0"
       style="fill:#000000;fill-rule:nonzero;stroke:none;stroke-width:0.26458332;stroke-linecap:square;stroke-miterlimit:10" />
    <path
       d="m 330.41862,-91.604598 q 0,-0.51677 0.24392,-0.82683 0.24391,-0.31419 0.63665,-0.31419 0.39274,0 0.62425,0.26872 v -1.16582 h 0.38034 v 3.175 h -0.3514 l -0.0165,-0.23978 q -0.23151,0.28112 -0.64079,0.28112 -0.3886,0 -0.63252,-0.31833 -0.24391,-0.31833 -0.24391,-0.83096 z m 0.38034,0.0413 q 0,0.38034 0.1571,0.59531 0.1571,0.21497 0.43408,0.21497 0.3638,0 0.5333,-0.32659 v -1.02526 q -0.17363,-0.31833 -0.52916,-0.31833 -0.28112,0 -0.43822,0.21911 -0.1571,0.21497 -0.1571,0.64079 z m 3.47886,1.09554 q -0.0331,-0.0661 -0.0537,-0.23565 -0.26459,0.27699 -0.63666,0.27699 -0.33073,0 -0.54156,-0.18604 -0.21085,-0.19017 -0.21085,-0.47542 0,-0.3514 0.26459,-0.54157 0.26458,-0.1943 0.74827,-0.1943 h 0.37208 v -0.17777 q 0,-0.19844 -0.11989,-0.31833 -0.11989,-0.11989 -0.35554,-0.11989 -0.20257,0 -0.34313,0.10336 -0.13643,0.10335 -0.13643,0.25218 h -0.38447 q 0,-0.1695 0.11576,-0.32246 0.11988,-0.1571 0.32246,-0.24805 0.2067,-0.091 0.45061,-0.091 0.38448,0 0.60359,0.1943 0.21911,0.19017 0.22738,0.52917 v 1.02939 q 0,0.31006 0.0785,0.49196 v 0.0331 z m -0.63252,-0.29353 q 0.17777,0 0.339,-0.091 0.16123,-0.0951 0.23565,-0.24391 v -0.45889 h -0.3018 q -0.7028,0 -0.7028,0.41342 0,0.17776 0.11989,0.28112 0.11989,0.0992 0.31006,0.0992 z m 2.07533,-2.4846 v 0.54157 h 0.41755 v 0.29352 h -0.41755 v 1.38906 q 0,0.1323 0.0537,0.20258 0.0579,0.0661 0.19017,0.0661 0.0662,0 0.1819,-0.0248 v 0.31006 q -0.14882,0.0413 -0.29352,0.0413 -0.25631,0 -0.38861,-0.15296 -0.12815,-0.1571 -0.12815,-0.44235 v -1.38906 h -0.40515 v -0.29353 h 0.40515 v -0.54157 z m 2.24276,2.77813 q -0.0331,-0.0661 -0.0538,-0.23565 -0.26458,0.27699 -0.63665,0.27699 -0.33073,0 -0.54157,-0.18604 -0.21084,-0.19017 -0.21084,-0.47542 0,-0.3514 0.26458,-0.54157 0.26459,-0.1943 0.74828,-0.1943 h 0.37207 v -0.17777 q 0,-0.19844 -0.11989,-0.31833 -0.11989,-0.11989 -0.35553,-0.11989 -0.20258,0 -0.34314,0.10336 -0.13642,0.10335 -0.13642,0.25218 h -0.38447 q 0,-0.1695 0.11575,-0.32246 0.11989,-0.1571 0.32246,-0.24805 0.20671,-0.091 0.45062,-0.091 0.38447,0 0.60358,0.1943 0.21911,0.19017 0.22738,0.52917 v 1.02939 q 0,0.31006 0.0786,0.49196 v 0.0331 z m -0.63252,-0.29353 q 0.17776,0 0.339,-0.091 0.16122,-0.0951 0.23564,-0.24391 v -0.45889 h -0.30179 q -0.7028,0 -0.7028,0.41342 0,0.17776 0.11989,0.28112 0.11989,0.0992 0.31006,0.0992 z"
       id="path1916"
       inkscape:connector-curvature="0"
       style="fill:#000000;fill-rule:nonzero;stroke:none;stroke-width:0.26458332;stroke-linecap:square;stroke-miterlimit:10" />
    <path
       d="m 357.09503,-112.12756 h 33.86667 v 35.191672 h -33.86667 z"
       id="path1918"
       inkscape:connector-curvature="0"
       style="fill:#cfe2f3;fill-rule:evenodd;stroke:none;stroke-width:0.26458332;stroke-linecap:square;stroke-miterlimit:10" />
    <path
       d="m 357.09503,-112.12756 h 33.86667 v 35.191672 h -33.86667 z"
       id="path1920"
       inkscape:connector-curvature="0"
       style="fill:none;fill-rule:evenodd;stroke:#000000;stroke-width:0.26458332;stroke-linecap:butt;stroke-linejoin:round;stroke-miterlimit:10" />
    <path
       d="m 363.55665,-95.664298 h -0.96738 v 2.68303 h -0.39688 v -2.68303 h -0.96325 v -0.3266 h 2.32751 z m 1.46761,0.78961 q -0.0868,-0.0165 -0.19017,-0.0165 -0.3762,0 -0.5085,0.32246 v 1.5875 h -0.38447 v -2.23655 h 0.37207 l 0.008,0.25631 q 0.18604,-0.29765 0.53331,-0.29765 0.11162,0 0.16949,0.0289 z m 1.73013,1.89342 q -0.0331,-0.0661 -0.0538,-0.23564 -0.26458,0.27699 -0.63665,0.27699 -0.33073,0 -0.54157,-0.18604 -0.21084,-0.19017 -0.21084,-0.47542 0,-0.3514 0.26458,-0.54157 0.26459,-0.19431 0.74828,-0.19431 h 0.37207 v -0.17776 q 0,-0.19844 -0.11989,-0.31833 -0.11989,-0.11989 -0.35554,-0.11989 -0.20257,0 -0.34313,0.10335 -0.13642,0.10336 -0.13642,0.25219 h -0.38447 q 0,-0.1695 0.11575,-0.32246 0.11989,-0.1571 0.32246,-0.24805 0.20671,-0.0909 0.45062,-0.0909 0.38447,0 0.60358,0.1943 0.21911,0.19017 0.22738,0.52917 v 1.02939 q 0,0.31006 0.0785,0.49196 v 0.0331 z m -0.63252,-0.29352 q 0.17776,0 0.33899,-0.0909 0.16123,-0.0951 0.23565,-0.24391 v -0.45889 h -0.30179 q -0.7028,0 -0.7028,0.41341 0,0.17777 0.11989,0.28112 0.11989,0.0992 0.31006,0.0992 z m 1.97197,0.29352 h -0.38447 v -2.23655 h 0.38447 z m -0.41341,-2.83186 q 0,-0.091 0.0537,-0.15297 0.0579,-0.0661 0.1695,-0.0661 0.11162,0 0.1695,0.0661 0.0579,0.062 0.0579,0.1571 0,0.091 -0.0579,0.15296 -0.0579,0.062 -0.1695,0.062 -0.11162,0 -0.1695,-0.062 -0.0537,-0.062 -0.0537,-0.15709 z m 1.38699,0.59531 0.0124,0.28112 q 0.25632,-0.32246 0.66973,-0.32246 0.70693,0 0.7152,0.79788 v 1.48001 h -0.38447 v -1.48001 q 0,-0.24391 -0.11163,-0.35967 -0.10748,-0.11575 -0.33486,-0.11575 -0.18603,0 -0.32659,0.0992 -0.14056,0.0992 -0.21911,0.26045 v 1.59576 h -0.38448 v -2.23655 z m 4.40077,2.23655 q -0.0331,-0.0661 -0.0538,-0.23564 -0.26458,0.27699 -0.63665,0.27699 -0.33073,0 -0.54157,-0.18604 -0.21084,-0.19017 -0.21084,-0.47542 0,-0.3514 0.26458,-0.54157 0.26459,-0.19431 0.74828,-0.19431 h 0.37207 v -0.17776 q 0,-0.19844 -0.11989,-0.31833 -0.11989,-0.11989 -0.35553,-0.11989 -0.20257,0 -0.34313,0.10335 -0.13643,0.10336 -0.13643,0.25219 h -0.38447 q 0,-0.1695 0.11575,-0.32246 0.11989,-0.1571 0.32246,-0.24805 0.20671,-0.0909 0.45062,-0.0909 0.38448,0 0.60358,0.1943 0.21911,0.19017 0.22738,0.52917 v 1.02939 q 0,0.31006 0.0785,0.49196 v 0.0331 z m -0.63252,-0.29352 q 0.17777,0 0.339,-0.0909 0.16123,-0.0951 0.23564,-0.24391 v -0.45889 h -0.30179 q -0.7028,0 -0.7028,0.41341 0,0.17777 0.11989,0.28112 0.11989,0.0992 0.31006,0.0992 z m 2.96209,-1.94303 0.0124,0.24805 q 0.24391,-0.28939 0.66146,-0.28939 0.47129,0 0.64078,0.35966 0.11163,-0.16122 0.28939,-0.26044 0.17777,-0.0992 0.42168,-0.0992 0.73587,0 0.74828,0.77721 v 1.50068 h -0.38034 v -1.47587 q 0,-0.23978 -0.11162,-0.35967 -0.10749,-0.11989 -0.36794,-0.11989 -0.21084,0 -0.3514,0.12816 -0.14056,0.12815 -0.16536,0.34313 v 1.48414 h -0.38448 v -1.46761 q 0,-0.48782 -0.47542,-0.48782 -0.3762,0 -0.51676,0.32246 v 1.63297 h -0.38034 v -2.23655 z m 3.25148,1.09554 q 0,-0.3266 0.12816,-0.58705 0.12816,-0.26458 0.35967,-0.40514 0.23151,-0.14469 0.52503,-0.14469 0.45889,0 0.74001,0.31832 0.28112,0.3142 0.28112,0.83923 v 0.0248 q 0,0.3266 -0.12403,0.58705 -0.12402,0.26044 -0.35967,0.40514 -0.23151,0.14469 -0.53329,0.14469 -0.45476,0 -0.73588,-0.31419 -0.28112,-0.31833 -0.28112,-0.83922 z m 0.38447,0.0455 q 0,0.37207 0.1695,0.59944 0.17364,0.22324 0.46303,0.22324 0.29352,0 0.46302,-0.22737 0.17363,-0.22738 0.17363,-0.64079 0,-0.36794 -0.17777,-0.59531 -0.17363,-0.22738 -0.46302,-0.22738 -0.28112,0 -0.45475,0.22738 -0.17364,0.22324 -0.17364,0.64079 z m 2.03812,-0.0413 q 0,-0.51676 0.24392,-0.82682 0.24391,-0.31419 0.63665,-0.31419 0.39274,0 0.62425,0.26871 v -1.16582 h 0.38034 v 3.175 h -0.3514 l -0.0165,-0.23977 q -0.23151,0.28112 -0.64078,0.28112 -0.38861,0 -0.63252,-0.31833 -0.24392,-0.31833 -0.24392,-0.83096 z m 0.38034,0.0413 q 0,0.38033 0.1571,0.59531 0.1571,0.21497 0.43408,0.21497 0.3638,0 0.5333,-0.32659 v -1.02527 q -0.17363,-0.31832 -0.52916,-0.31832 -0.28112,0 -0.43822,0.21911 -0.1571,0.21497 -0.1571,0.64079 z m 3.02824,1.13688 q -0.45475,0 -0.74001,-0.29766 -0.28525,-0.30179 -0.28525,-0.80202 v -0.0703 q 0,-0.33073 0.12402,-0.59118 0.12816,-0.26458 0.35554,-0.40927 0.23151,-0.14883 0.49609,-0.14883 0.43822,0 0.678,0.28939 0.24391,0.28525 0.24391,0.81855 v 0.16123 h -1.51722 q 0.008,0.33073 0.1943,0.5333 0.18604,0.20257 0.47129,0.20257 0.20257,0 0.34313,-0.0827 0.14056,-0.0827 0.24391,-0.21911 l 0.23565,0.1819 q -0.28112,0.43409 -0.84336,0.43409 z m -0.0496,-2.00505 q -0.23151,0 -0.3886,0.1695 -0.1571,0.16536 -0.19431,0.47129 h 1.12035 v -0.0289 q -0.0165,-0.29352 -0.1571,-0.45062 -0.14056,-0.16123 -0.38034,-0.16123 z m 1.77974,1.9637 h -0.38447 v -3.175 h 0.38447 z"
       id="path1922"
       inkscape:connector-curvature="0"
       style="fill:#000000;fill-rule:nonzero;stroke:none;stroke-width:0.26458332;stroke-linecap:square;stroke-miterlimit:10" />
    <path
       d="m 398.43617,-112.12756 h 33.86667 v 35.191672 h -33.86667 z"
       id="path1924"
       inkscape:connector-curvature="0"
       style="fill:#cfe2f3;fill-rule:evenodd;stroke:none;stroke-width:0.26458332;stroke-linecap:square;stroke-miterlimit:10" />
    <path
       d="m 398.43617,-112.12756 h 33.86667 v 35.191672 h -33.86667 z"
       id="path1926"
       inkscape:connector-curvature="0"
       style="fill:none;fill-rule:evenodd;stroke:#000000;stroke-width:0.26458332;stroke-linecap:butt;stroke-linejoin:round;stroke-miterlimit:10" />
    <path
       d="m 404.33451,-101.01798 v 2.046382 q 0,0.42582 -0.26871,0.69867 -0.26459,0.26871 -0.71934,0.30179 l -0.10335,0.004 q -0.4961,0 -0.78962,-0.26458 -0.29352,-0.26872 -0.29766,-0.73587 v -2.050522 h 0.39275 v 2.038112 q 0,0.3266 0.17776,0.5085 0.1819,0.17777 0.51677,0.17777 0.33486,0 0.51263,-0.17777 0.1819,-0.1819 0.1819,-0.5085 v -2.038112 z m 1.86862,2.414322 q 0,-0.15297 -0.11575,-0.23978 -0.11576,-0.0868 -0.40928,-0.14883 -0.28939,-0.062 -0.45888,-0.14883 -0.1695,-0.0868 -0.25219,-0.2067 -0.0827,-0.11989 -0.0827,-0.28526 0,-0.27285 0.23151,-0.463022 0.23565,-0.19017 0.59531,-0.19017 0.38034,0 0.61599,0.19844 0.23978,0.194302 0.23978,0.500232 h -0.38448 q 0,-0.1571 -0.13642,-0.26872 -0.13229,-0.11575 -0.33487,-0.11575 -0.2067,0 -0.32659,0.091 -0.11576,0.0909 -0.11576,0.23564 0,0.14056 0.10749,0.21084 0.11162,0.0703 0.39688,0.13643 0.28525,0.062 0.46302,0.15296 0.17776,0.0868 0.26458,0.21084 0.0868,0.12402 0.0868,0.30592 0,0.29766 -0.23978,0.47956 -0.23978,0.1819 -0.62425,0.1819 -0.26872,0 -0.47543,-0.0951 -0.2067,-0.0951 -0.32246,-0.26459 -0.11575,-0.17363 -0.11575,-0.37207 h 0.38034 q 0.0124,0.19431 0.15296,0.30593 0.14469,0.11162 0.38034,0.11162 0.2191,0 0.34726,-0.0868 0.13229,-0.0868 0.13229,-0.23564 z m 1.81075,0.63665 q -0.45476,0 -0.74001,-0.29765 -0.28525,-0.3018 -0.28525,-0.80202 v -0.0703 q 0,-0.33073 0.12402,-0.59118 0.12816,-0.26458 0.35553,-0.409282 0.23151,-0.14883 0.4961,-0.14883 0.43821,0 0.67799,0.289392 0.24391,0.28526 0.24391,0.81856 v 0.16123 h -1.51722 q 0.008,0.33073 0.19431,0.5333 0.18603,0.20257 0.47129,0.20257 0.20257,0 0.34313,-0.0827 0.14056,-0.0827 0.24391,-0.21911 l 0.23565,0.1819 q -0.28112,0.43408 -0.84336,0.43408 z m -0.0496,-2.00504 q -0.23151,0 -0.38861,0.1695 -0.1571,0.16536 -0.1943,0.47128 h 1.12034 v -0.0289 q -0.0165,-0.29352 -0.15709,-0.45061 -0.14056,-0.16123 -0.38034,-0.16123 z m 2.93108,-0.814422 v 0.54156 h 0.41755 v 0.293532 h -0.41755 v 1.38906 q 0,0.13229 0.0538,0.20257 0.0579,0.0661 0.19017,0.0661 0.0661,0 0.1819,-0.0248 v 0.31006 q -0.14883,0.0414 -0.29353,0.0414 -0.25631,0 -0.3886,-0.15297 -0.12816,-0.15709 -0.12816,-0.44235 v -1.38906 h -0.40514 v -0.293522 h 0.40514 v -0.54157 z m 1.24644,0.810282 q 0.25218,-0.310062 0.66146,-0.310062 0.70693,0 0.7152,0.797892 v 1.48001 h -0.38447 v -1.48001 q 0,-0.24392 -0.11162,-0.35967 -0.10749,-0.11576 -0.33487,-0.11576 -0.18603,0 -0.32659,0.0992 -0.14056,0.0992 -0.21911,0.26045 v 1.59577 h -0.38447 v -3.175002 h 0.38447 z m 2.87734,2.00918 q -0.45475,0 -0.74,-0.29765 -0.28526,-0.3018 -0.28526,-0.80202 v -0.0703 q 0,-0.33073 0.12403,-0.59118 0.12816,-0.26458 0.35553,-0.409282 0.23151,-0.14883 0.49609,-0.14883 0.43822,0 0.678,0.289392 0.24391,0.28526 0.24391,0.81856 v 0.16123 h -1.51722 q 0.008,0.33073 0.19431,0.5333 0.18603,0.20257 0.47129,0.20257 0.20257,0 0.34313,-0.0827 0.14056,-0.0827 0.24391,-0.21911 l 0.23564,0.1819 q -0.28112,0.43408 -0.84336,0.43408 z m -0.0496,-2.00504 q -0.23151,0 -0.3886,0.1695 -0.1571,0.16536 -0.19431,0.47128 h 1.12035 v -0.0289 q -0.0165,-0.29352 -0.1571,-0.45061 -0.14056,-0.16123 -0.38034,-0.16123 z m 2.76986,-0.272862 0.0124,0.248052 q 0.24391,-0.289392 0.66146,-0.289392 0.47129,0 0.64078,0.359672 0.11163,-0.161232 0.28939,-0.260452 0.17777,-0.0992 0.42168,-0.0992 0.73587,0 0.74828,0.777222 v 1.50068 h -0.38034 v -1.47588 q 0,-0.23978 -0.11162,-0.35967 -0.10749,-0.11989 -0.36794,-0.11989 -0.21084,0 -0.3514,0.12816 -0.14056,0.12816 -0.16536,0.34313 v 1.48415 h -0.38447 v -1.46761 q 0,-0.48783 -0.47543,-0.48783 -0.3762,0 -0.51676,0.32246 v 1.63298 h -0.38034 v -2.236562 z m 3.25148,1.095552 q 0,-0.3266 0.12816,-0.58705 0.12816,-0.264582 0.35967,-0.405142 0.23151,-0.1447 0.52503,-0.1447 0.45889,0 0.74001,0.318332 0.28112,0.31419 0.28112,0.83922 v 0.0248 q 0,0.32659 -0.12403,0.58704 -0.12402,0.26045 -0.35966,0.40514 -0.23152,0.1447 -0.53331,0.1447 -0.45475,0 -0.73587,-0.31419 -0.28112,-0.31833 -0.28112,-0.83923 z m 0.38447,0.0455 q 0,0.37207 0.1695,0.59945 0.17364,0.22324 0.46302,0.22324 0.29353,0 0.46302,-0.22738 0.17364,-0.22737 0.17364,-0.64078 0,-0.36794 -0.17777,-0.59532 -0.17363,-0.22737 -0.46302,-0.22737 -0.28112,0 -0.45475,0.22737 -0.17364,0.22324 -0.17364,0.64079 z m 2.03812,-0.0413 q 0,-0.51677 0.24392,-0.82682 0.24391,-0.314202 0.63665,-0.314202 0.39274,0 0.62425,0.26872 v -1.16582 h 0.38034 v 3.175002 h -0.3514 l -0.0165,-0.23978 q -0.23151,0.28112 -0.64079,0.28112 -0.3886,0 -0.63251,-0.31833 -0.24392,-0.31832 -0.24392,-0.83095 z m 0.38034,0.0413 q 0,0.38034 0.1571,0.59531 0.15709,0.21498 0.43408,0.21498 0.3638,0 0.5333,-0.3266 v -1.02526 q -0.17363,-0.31833 -0.52917,-0.31833 -0.28112,0 -0.43821,0.21911 -0.1571,0.21498 -0.1571,0.64079 z m 3.02824,1.13688 q -0.45475,0 -0.74001,-0.29765 -0.28525,-0.3018 -0.28525,-0.80202 v -0.0703 q 0,-0.33073 0.12402,-0.59118 0.12816,-0.26458 0.35554,-0.409282 0.23151,-0.14883 0.49609,-0.14883 0.43822,0 0.678,0.289392 0.24391,0.28526 0.24391,0.81856 v 0.16123 h -1.51722 q 0.008,0.33073 0.1943,0.5333 0.18604,0.20257 0.47129,0.20257 0.20257,0 0.34313,-0.0827 0.14056,-0.0827 0.24392,-0.21911 l 0.23564,0.1819 q -0.28112,0.43408 -0.84336,0.43408 z m -0.0496,-2.00504 q -0.23151,0 -0.3886,0.1695 -0.1571,0.16536 -0.19431,0.47128 h 1.12035 v -0.0289 q -0.0165,-0.29352 -0.1571,-0.45061 -0.14056,-0.16123 -0.38034,-0.16123 z m 1.77974,1.9637 h -0.38448 v -3.175002 h 0.38448 z"
       id="path1928"
       inkscape:connector-curvature="0"
       style="fill:#000000;fill-rule:nonzero;stroke:none;stroke-width:0.26458332;stroke-linecap:square;stroke-miterlimit:10" />
    <path
       d="m 408.55649,-95.759388 v 0.54157 h 0.41754 v 0.29352 h -0.41754 v 1.38906 q 0,0.13229 0.0537,0.20257 0.0579,0.0661 0.19017,0.0661 0.0661,0 0.1819,-0.0248 v 0.31006 q -0.14883,0.0413 -0.29352,0.0413 -0.25632,0 -0.38861,-0.15297 -0.12815,-0.15709 -0.12815,-0.44234 v -1.38907 h -0.40515 v -0.29352 h 0.40515 v -0.54157 z m 0.76274,1.63711 q 0,-0.3266 0.12816,-0.58705 0.12816,-0.26458 0.35967,-0.40514 0.23151,-0.14469 0.52503,-0.14469 0.45889,0 0.74,0.31832 0.28112,0.3142 0.28112,0.83923 v 0.0248 q 0,0.3266 -0.12402,0.58704 -0.12402,0.26045 -0.35967,0.40515 -0.23151,0.14469 -0.5333,0.14469 -0.45475,0 -0.73587,-0.31419 -0.28112,-0.31833 -0.28112,-0.83923 z m 0.38447,0.0455 q 0,0.37207 0.1695,0.59945 0.17363,0.22324 0.46302,0.22324 0.29353,0 0.46302,-0.22738 0.17364,-0.22737 0.17364,-0.64078 0,-0.36794 -0.17777,-0.59531 -0.17363,-0.22738 -0.46302,-0.22738 -0.28112,0 -0.45475,0.22738 -0.17364,0.22324 -0.17364,0.64078 z m 3.53674,-1.14101 0.0124,0.24804 q 0.24391,-0.28938 0.66146,-0.28938 0.47129,0 0.64079,0.35966 0.11162,-0.16123 0.28938,-0.26045 0.17777,-0.0992 0.42168,-0.0992 0.73588,0 0.74828,0.77721 v 1.50068 h -0.38034 v -1.47588 q 0,-0.23977 -0.11162,-0.35966 -0.10749,-0.11989 -0.36794,-0.11989 -0.21084,0 -0.3514,0.12816 -0.14056,0.12815 -0.16536,0.34313 v 1.48414 h -0.38448 v -1.46761 q 0,-0.48782 -0.47542,-0.48782 -0.3762,0 -0.51676,0.32246 v 1.63297 h -0.38034 v -2.23655 z m 4.73149,2.23655 q -0.0331,-0.0661 -0.0537,-0.23564 -0.26458,0.27699 -0.63666,0.27699 -0.33072,0 -0.54156,-0.18604 -0.21084,-0.19017 -0.21084,-0.47542 0,-0.3514 0.26458,-0.54157 0.26458,-0.19431 0.74828,-0.19431 h 0.37207 v -0.17776 q 0,-0.19844 -0.11989,-0.31833 -0.11989,-0.11989 -0.35554,-0.11989 -0.20257,0 -0.34313,0.10335 -0.13643,0.10336 -0.13643,0.25218 h -0.38447 q 0,-0.16949 0.11576,-0.32246 0.11989,-0.15709 0.32246,-0.24804 0.2067,-0.0909 0.45062,-0.0909 0.38447,0 0.60358,0.1943 0.21911,0.19017 0.22737,0.52917 v 1.02939 q 0,0.31006 0.0786,0.49196 v 0.0331 z m -0.63252,-0.29352 q 0.17777,0 0.339,-0.0909 0.16123,-0.0951 0.23565,-0.24391 v -0.45889 h -0.3018 q -0.7028,0 -0.7028,0.41341 0,0.17777 0.1199,0.28112 0.11988,0.0992 0.31005,0.0992 z m 2.17868,-0.74414 -0.23978,0.25218 v 0.78548 h -0.38033 v -3.175 h 0.38033 v 1.91823 l 0.20671,-0.24391 0.69453,-0.73587 h 0.46715 l -0.87229,0.93431 0.97151,1.30224 h -0.44648 z m 2.45153,1.07901 q -0.45475,0 -0.74,-0.29766 -0.28526,-0.30179 -0.28526,-0.80202 v -0.0703 q 0,-0.33073 0.12402,-0.59118 0.12816,-0.26458 0.35554,-0.40928 0.23151,-0.14882 0.49609,-0.14882 0.43822,0 0.678,0.28938 0.24391,0.28526 0.24391,0.81856 v 0.16123 h -1.51722 q 0.008,0.33073 0.1943,0.5333 0.18604,0.20257 0.47129,0.20257 0.20257,0 0.34313,-0.0827 0.14056,-0.0827 0.24392,-0.21911 l 0.23564,0.1819 q -0.28112,0.43409 -0.84336,0.43409 z m -0.0496,-2.00505 q -0.23151,0 -0.38861,0.1695 -0.15709,0.16536 -0.1943,0.47129 h 1.12035 v -0.0289 q -0.0165,-0.29352 -0.1571,-0.45062 -0.14056,-0.16123 -0.38034,-0.16123 z"
       id="path1930"
       inkscape:connector-curvature="0"
       style="fill:#000000;fill-rule:nonzero;stroke:none;stroke-width:0.26458332;stroke-linecap:square;stroke-miterlimit:10" />
    <path
       d="m 407.03617,-89.049718 q 0,0.51263 -0.23565,0.82682 -0.23151,0.31006 -0.62838,0.31006 -0.40928,0 -0.64079,-0.26045 v 1.079 h -0.38447 v -3.09645 h 0.3514 l 0.0165,0.24805 q 0.23565,-0.28939 0.64906,-0.28939 0.40514,0 0.63665,0.30593 0.23565,0.30179 0.23565,0.84336 z m -0.38034,-0.0413 q 0,-0.38034 -0.16123,-0.59945 -0.16123,-0.21911 -0.44235,-0.21911 -0.34727,0 -0.5209,0.31006 v 1.0666 q 0.1695,0.30593 0.52503,0.30593 0.27285,0 0.43408,-0.21498 0.16537,-0.2191 0.16537,-0.64905 z m 1.94923,-0.75655 q -0.0868,-0.0165 -0.19016,-0.0165 -0.37621,0 -0.5085,0.32246 v 1.5875 h -0.38447 v -2.23656 h 0.37207 l 0.008,0.25632 q 0.18604,-0.29766 0.5333,-0.29766 0.11162,0 0.1695,0.0289 z m 1.27951,1.93477 q -0.45475,0 -0.74,-0.29766 -0.28526,-0.30179 -0.28526,-0.80202 v -0.0703 q 0,-0.33073 0.12403,-0.59118 0.12815,-0.26459 0.35553,-0.40928 0.23151,-0.14883 0.49609,-0.14883 0.43822,0 0.678,0.28939 0.24391,0.28525 0.24391,0.81855 v 0.16123 h -1.51722 q 0.008,0.33073 0.1943,0.53331 0.18604,0.20257 0.47129,0.20257 0.20258,0 0.34314,-0.0827 0.14056,-0.0827 0.24391,-0.2191 l 0.23564,0.1819 q -0.28112,0.43408 -0.84336,0.43408 z m -0.0496,-2.00505 q -0.23151,0 -0.3886,0.1695 -0.1571,0.16537 -0.19431,0.47129 h 1.12035 v -0.0289 q -0.0165,-0.29352 -0.1571,-0.45062 -0.14056,-0.16123 -0.38034,-0.16123 z m 1.27124,0.82683 q 0,-0.51677 0.24392,-0.82683 0.24391,-0.31419 0.63665,-0.31419 0.39274,0 0.62425,0.26872 v -1.16582 h 0.38034 v 3.175 h -0.3514 l -0.0165,-0.23978 q -0.23151,0.28112 -0.64079,0.28112 -0.3886,0 -0.63251,-0.31833 -0.24392,-0.31833 -0.24392,-0.83096 z m 0.38034,0.0413 q 0,0.38034 0.1571,0.59531 0.15709,0.21497 0.43408,0.21497 0.3638,0 0.5333,-0.32659 v -1.02526 q -0.17363,-0.31833 -0.52917,-0.31833 -0.28112,0 -0.43821,0.21911 -0.1571,0.21497 -0.1571,0.64079 z m 2.51561,1.09554 h -0.38447 v -2.23656 h 0.38447 z m -0.41341,-2.83187 q 0,-0.0909 0.0537,-0.15296 0.0579,-0.0661 0.1695,-0.0661 0.11162,0 0.1695,0.0661 0.0579,0.062 0.0579,0.15709 0,0.0909 -0.0579,0.15297 -0.0579,0.062 -0.1695,0.062 -0.11162,0 -0.1695,-0.062 -0.0537,-0.062 -0.0537,-0.1571 z m 1.9203,2.55902 q 0.2067,0 0.35966,-0.12403 0.15297,-0.12402 0.1695,-0.31005 h 0.35967 q -0.008,0.1943 -0.13229,0.36793 -0.11989,0.17363 -0.3266,0.27699 -0.20257,0.10335 -0.42994,0.10335 -0.45476,0 -0.72761,-0.30593 -0.26872,-0.30592 -0.26872,-0.83509 v -0.062 q 0,-0.32659 0.11989,-0.57877 0.11989,-0.25632 0.34313,-0.39688 0.22738,-0.14056 0.53331,-0.14056 0.3762,0 0.62425,0.22738 0.24804,0.22324 0.26458,0.58291 h -0.35967 q -0.0165,-0.21911 -0.16536,-0.35554 -0.14883,-0.14056 -0.3638,-0.14056 -0.29353,0 -0.45476,0.21084 -0.15709,0.20671 -0.15709,0.60358 v 0.0744 q 0,0.38447 0.15709,0.59531 0.16123,0.20671 0.45476,0.20671 z m 1.83968,-2.50528 v 0.54157 h 0.41754 v 0.29352 h -0.41754 v 1.38907 q 0,0.13229 0.0537,0.20257 0.0579,0.0661 0.19017,0.0661 0.0661,0 0.1819,-0.0248 v 0.31006 q -0.14883,0.0413 -0.29352,0.0413 -0.25632,0 -0.38861,-0.15296 -0.12816,-0.1571 -0.12816,-0.44235 v -1.38906 h -0.40514 v -0.29352 h 0.40514 v -0.54157 z m 1.2795,2.77813 h -0.38447 v -2.23656 h 0.38447 z m -0.41341,-2.83187 q 0,-0.0909 0.0537,-0.15296 0.0579,-0.0661 0.1695,-0.0661 0.11162,0 0.1695,0.0661 0.0579,0.062 0.0579,0.15709 0,0.0909 -0.0579,0.15297 -0.0579,0.062 -0.1695,0.062 -0.11162,0 -0.1695,-0.062 -0.0537,-0.062 -0.0537,-0.1571 z m 0.92398,1.69085 q 0,-0.32659 0.12815,-0.58704 0.12816,-0.26459 0.35967,-0.40515 0.23151,-0.14469 0.52504,-0.14469 0.45888,0 0.74,0.31833 0.28112,0.31419 0.28112,0.83922 v 0.0248 q 0,0.32659 -0.12402,0.58704 -0.12402,0.26045 -0.35967,0.40514 -0.23151,0.1447 -0.5333,0.1447 -0.45475,0 -0.73587,-0.3142 -0.28112,-0.31832 -0.28112,-0.83922 z m 0.38447,0.0455 q 0,0.37207 0.1695,0.59944 0.17363,0.22325 0.46302,0.22325 0.29352,0 0.46302,-0.22738 0.17363,-0.22738 0.17363,-0.64079 0,-0.36793 -0.17776,-0.59531 -0.17364,-0.22738 -0.46302,-0.22738 -0.28112,0 -0.45476,0.22738 -0.17363,0.22324 -0.17363,0.64079 z m 2.49287,-1.14102 0.0124,0.28112 q 0.25632,-0.32246 0.66973,-0.32246 0.70693,0 0.7152,0.79788 v 1.48002 H 423.029 v -1.48002 q 0,-0.24391 -0.11162,-0.35966 -0.10749,-0.11576 -0.33487,-0.11576 -0.18603,0 -0.32659,0.0992 -0.14056,0.0992 -0.21911,0.26045 v 1.59577 h -0.38447 v -2.23656 z m 3.27422,1.64124 q 0,-0.15296 -0.11575,-0.23977 -0.11576,-0.0868 -0.40928,-0.14883 -0.28939,-0.062 -0.45889,-0.14883 -0.1695,-0.0868 -0.25218,-0.20671 -0.0827,-0.11988 -0.0827,-0.28525 0,-0.27285 0.23151,-0.46302 0.23564,-0.19017 0.59531,-0.19017 0.38034,0 0.61598,0.19844 0.23978,0.1943 0.23978,0.50023 h -0.38447 q 0,-0.1571 -0.13643,-0.26872 -0.13229,-0.11576 -0.33486,-0.11576 -0.20671,0 -0.32659,0.091 -0.11576,0.091 -0.11576,0.23565 0,0.14056 0.10749,0.21084 0.11162,0.0703 0.39687,0.13642 0.28526,0.062 0.46302,0.15297 0.17777,0.0868 0.26459,0.21084 0.0868,0.12402 0.0868,0.30592 0,0.29766 -0.23978,0.47956 -0.23978,0.1819 -0.62425,0.1819 -0.26872,0 -0.47542,-0.0951 -0.20671,-0.0951 -0.32246,-0.26459 -0.11576,-0.17363 -0.11576,-0.37207 h 0.38034 q 0.0124,0.1943 0.15296,0.30593 0.1447,0.11162 0.38034,0.11162 0.21911,0 0.34727,-0.0868 0.13229,-0.0868 0.13229,-0.23565 z"
       id="path1932"
       inkscape:connector-curvature="0"
       style="fill:#000000;fill-rule:nonzero;stroke:none;stroke-width:0.26458332;stroke-linecap:square;stroke-miterlimit:10" />
    <path
       d="m 273.82158,-94.531718 h 7.475"
       id="path1944"
       inkscape:connector-curvature="0"
       style="fill:#000000;fill-opacity:0;fill-rule:evenodd;stroke:none;stroke-width:0.26458332;stroke-linecap:square;stroke-miterlimit:10" />
    <path
       d="m 273.82158,-94.531718 h 5.8875"
       id="path1946"
       inkscape:connector-curvature="0"
       style="fill:none;fill-rule:evenodd;stroke:#000000;stroke-width:0.26458332;stroke-linecap:butt;stroke-linejoin:round;stroke-miterlimit:10" />
    <path
       d="m 279.70908,-94.094698 1.20071,-0.43702 -1.20071,-0.43703 z"
       id="path1948"
       inkscape:connector-curvature="0"
       style="fill:#000000;fill-rule:evenodd;stroke:#000000;stroke-width:0.26458332;stroke-linecap:butt;stroke-miterlimit:10" />
    <path
       d="m 311.72107,-94.531718 h 7.47499"
       id="path1950"
       inkscape:connector-curvature="0"
       style="fill:#000000;fill-opacity:0;fill-rule:evenodd;stroke:none;stroke-width:0.26458332;stroke-linecap:square;stroke-miterlimit:10" />
    <path
       d="m 311.72107,-94.531718 h 5.88749"
       id="path1952"
       inkscape:connector-curvature="0"
       style="fill:none;fill-rule:evenodd;stroke:#000000;stroke-width:0.26458332;stroke-linecap:butt;stroke-linejoin:round;stroke-miterlimit:10" />
    <path
       d="m 317.60857,-94.094698 1.20071,-0.43702 -1.20071,-0.43703 z"
       id="path1954"
       inkscape:connector-curvature="0"
       style="fill:#000000;fill-rule:evenodd;stroke:#000000;stroke-width:0.26458332;stroke-linecap:butt;stroke-miterlimit:10" />
    <path
       d="m 349.62055,-94.531718 h 7.47499"
       id="path1956"
       inkscape:connector-curvature="0"
       style="fill:#000000;fill-opacity:0;fill-rule:evenodd;stroke:none;stroke-width:0.26458332;stroke-linecap:square;stroke-miterlimit:10" />
    <path
       d="m 349.62055,-94.531718 h 5.88749"
       id="path1958"
       inkscape:connector-curvature="0"
       style="fill:none;fill-rule:evenodd;stroke:#000000;stroke-width:0.26458332;stroke-linecap:butt;stroke-linejoin:round;stroke-miterlimit:10" />
    <path
       d="m 355.50804,-94.094698 1.20071,-0.43702 -1.20071,-0.43703 z"
       id="path1960"
       inkscape:connector-curvature="0"
       style="fill:#000000;fill-rule:evenodd;stroke:#000000;stroke-width:0.26458332;stroke-linecap:butt;stroke-miterlimit:10" />
    <path
       d="m 390.9617,-94.531718 h 7.47499"
       id="path1962"
       inkscape:connector-curvature="0"
       style="fill:#000000;fill-opacity:0;fill-rule:evenodd;stroke:none;stroke-width:0.26458332;stroke-linecap:square;stroke-miterlimit:10" />
    <path
       d="m 390.9617,-94.531718 h 5.88749"
       id="path1964"
       inkscape:connector-curvature="0"
       style="fill:none;fill-rule:evenodd;stroke:#000000;stroke-width:0.26458332;stroke-linecap:butt;stroke-linejoin:round;stroke-miterlimit:10" />
    <path
       d="m 396.84919,-94.094698 1.2007,-0.43702 -1.2007,-0.43703 z"
       id="path1966"
       inkscape:connector-curvature="0"
       style="fill:#000000;fill-rule:evenodd;stroke:#000000;stroke-width:0.26458332;stroke-linecap:butt;stroke-miterlimit:10" />
    <path
       d="m 336.06221,-62.385888 0.13334,-14.55"
       id="path2002"
       inkscape:connector-curvature="0"
       style="fill:#000000;fill-opacity:0;fill-rule:evenodd;stroke:none;stroke-width:0.26458332;stroke-linecap:square;stroke-miterlimit:10" />
    <path
       d="m 298.15701,-62.385888 0.13333,-14.55"
       id="path2008"
       inkscape:connector-curvature="0"
       style="fill:#000000;fill-opacity:0;fill-rule:evenodd;stroke:none;stroke-width:0.26458332;stroke-linecap:square;stroke-miterlimit:10" />
  </g>
</svg>
