<svg version="1.1" viewBox="0.0 0.0 431.65354330708664 447.28608923884514" fill="none" stroke="none" stroke-linecap="square" stroke-miterlimit="10" xmlns:xlink="http://www.w3.org/1999/xlink" xmlns="http://www.w3.org/2000/svg"><clipPath id="p.0"><path d="m0 0l431.65353 0l0 447.2861l-431.65353 0l0 -447.2861z" clip-rule="nonzero"/></clipPath><g clip-path="url(#p.0)"><path fill="#000000" fill-opacity="0.0" d="m0 0l431.65353 0l0 447.2861l-431.65353 0z" fill-rule="evenodd"/><path fill="#cfe2f3" d="m59.335957 50.527557l0 0c0 -14.629021 12.44437 -26.488188 27.795277 -26.488188l0 0c7.371765 0 14.441605 2.7907124 19.654228 7.758211c5.2126236 4.967499 8.141045 11.704872 8.141045 18.729977l0 0c0 14.629021 -12.444366 26.48819 -27.795273 26.48819l0 0c-15.350906 0 -27.795277 -11.859169 -27.795277 -26.48819z" fill-rule="evenodd"/><path stroke="#000000" stroke-width="1.0" stroke-linejoin="round" stroke-linecap="butt" d="m59.335957 50.527557l0 0c0 -14.629021 12.44437 -26.488188 27.795277 -26.488188l0 0c7.371765 0 14.441605 2.7907124 19.654228 7.758211c5.2126236 4.967499 8.141045 11.704872 8.141045 18.729977l0 0c0 14.629021 -12.444366 26.48819 -27.795273 26.48819l0 0c-15.350906 0 -27.795277 -11.859169 -27.795277 -26.48819z" fill-rule="evenodd"/><path fill="#000000" d="m79.14928 57.44756l3.53125 -5.03125l-3.265625 -4.640625l2.046875 0l1.484375 2.265625q0.421875 0.640625 0.671875 1.078125q0.40625 -0.59375 0.734375 -1.0625l1.640625 -2.28125l1.953125 0l-3.34375 4.546875l3.59375 5.125l-2.015625 0l-1.984375 -3.0l-0.515625 -0.8125l-2.546875 3.8125l-1.984375 0z" fill-rule="nonzero"/><path fill="#000000" d="m92.9774 64.44756l-1.09375 0l0 -6.968754q-0.40625 0.375 -1.046875 0.75q-0.640625 0.375 -1.140625 0.578125l0 -1.0625q0.90625 -0.4375 1.59375 -1.046875q0.6875 -0.609375 0.96875 -1.1875l0.71875 0l0 8.937504z" fill-rule="nonzero"/><path fill="#cfe2f3" d="m59.335957 126.52756l0 0c0 -14.629021 12.44437 -26.48819 27.795277 -26.48819l0 0c7.371765 0 14.441605 2.790718 19.654228 7.758217c5.2126236 4.967499 8.141045 11.704872 8.141045 18.729973l0 0c0 14.629028 -12.444366 26.48819 -27.795273 26.48819l0 0c-15.350906 0 -27.795277 -11.859161 -27.795277 -26.48819z" fill-rule="evenodd"/><path stroke="#000000" stroke-width="1.0" stroke-linejoin="round" stroke-linecap="butt" d="m59.335957 126.52756l0 0c0 -14.629021 12.44437 -26.48819 27.795277 -26.48819l0 0c7.371765 0 14.441605 2.790718 19.654228 7.758217c5.2126236 4.967499 8.141045 11.704872 8.141045 18.729973l0 0c0 14.629028 -12.444366 26.48819 -27.795273 26.48819l0 0c-15.350906 0 -27.795277 -11.859161 -27.795277 -26.48819z" fill-rule="evenodd"/><path fill="#000000" d="m79.14928 133.44756l3.53125 -5.03125l-3.265625 -4.640625l2.046875 0l1.484375 2.265625q0.421875 0.640625 0.671875 1.078125q0.40625 -0.59375 0.734375 -1.0625l1.640625 -2.28125l1.953125 0l-3.34375 4.546875l3.59375 5.125l-2.015625 0l-1.984375 -3.0l-0.515625 -0.8125l-2.546875 3.8125l-1.984375 0z" fill-rule="nonzero"/><path fill="#000000" d="m94.6024 139.40068l0 1.046875l-5.890625 0q-0.015625 -0.390625 0.125 -0.765625q0.234375 -0.59375 0.71875 -1.171875q0.5 -0.59375 1.4375 -1.359375q1.453125 -1.1875 1.953125 -1.875q0.515625 -0.703125 0.515625 -1.3125q0 -0.65625 -0.46875 -1.09375q-0.453125 -0.453125 -1.203125 -0.453125q-0.796875 0 -1.265625 0.46875q-0.46875 0.46875 -0.484375 1.3125l-1.125 -0.109375q0.125 -1.265625 0.875 -1.921875q0.75 -0.65625 2.015625 -0.65625q1.28125 0 2.03125 0.71875q0.75 0.703125 0.75 1.75q0 0.53125 -0.21875 1.046875q-0.21875 0.515625 -0.734375 1.09375q-0.5 0.5625 -1.671875 1.5625q-0.984375 0.828125 -1.265625 1.125q-0.28125 0.296875 -0.46875 0.59375l4.375 0z" fill-rule="nonzero"/><path fill="#cfe2f3" d="m59.335957 202.52756l0 0c0 -14.629028 12.44437 -26.48819 27.795277 -26.48819l0 0c7.371765 0 14.441605 2.7907104 19.654228 7.758209c5.2126236 4.967499 8.141045 11.70488 8.141045 18.72998l0 0c0 14.629028 -12.444366 26.48819 -27.795273 26.48819l0 0c-15.350906 0 -27.795277 -11.859161 -27.795277 -26.48819z" fill-rule="evenodd"/><path stroke="#000000" stroke-width="1.0" stroke-linejoin="round" stroke-linecap="butt" d="m59.335957 202.52756l0 0c0 -14.629028 12.44437 -26.48819 27.795277 -26.48819l0 0c7.371765 0 14.441605 2.7907104 19.654228 7.758209c5.2126236 4.967499 8.141045 11.70488 8.141045 18.72998l0 0c0 14.629028 -12.444366 26.48819 -27.795273 26.48819l0 0c-15.350906 0 -27.795277 -11.859161 -27.795277 -26.48819z" fill-rule="evenodd"/><path fill="#000000" d="m79.14928 209.44756l3.53125 -5.03125l-3.265625 -4.640625l2.046875 0l1.484375 2.265625q0.421875 0.640625 0.671875 1.078125q0.40625 -0.59375 0.734375 -1.0625l1.640625 -2.28125l1.953125 0l-3.34375 4.546875l3.59375 5.125l-2.015625 0l-1.984375 -3.0l-0.515625 -0.8125l-2.546875 3.8125l-1.984375 0z" fill-rule="nonzero"/><path fill="#000000" d="m88.8524 214.1038l1.09375 -0.15625q0.1875 0.9375 0.640625 1.34375q0.453125 0.40625 1.109375 0.40625q0.765625 0 1.296875 -0.53125q0.53125 -0.53125 0.53125 -1.328125q0 -0.75 -0.5 -1.234375q-0.484375 -0.5 -1.234375 -0.5q-0.3125 0 -0.78125 0.125l0.125 -0.953125q0.109375 0.015625 0.171875 0.015625q0.703125 0 1.265625 -0.359375q0.5625 -0.375 0.5625 -1.140625q0 -0.59375 -0.40625 -0.984375q-0.40625 -0.40625 -1.0625 -0.40625q-0.625 0 -1.0625 0.40625q-0.421875 0.40625 -0.546875 1.203125l-1.09375 -0.1875q0.203125 -1.109375 0.90625 -1.703125q0.71875 -0.609375 1.78125 -0.609375q0.71875 0 1.328125 0.3125q0.625 0.3125 0.953125 0.859375q0.328125 0.53125 0.328125 1.140625q0 0.578125 -0.3125 1.0625q-0.3125 0.46875 -0.921875 0.734375q0.796875 0.1875 1.234375 0.765625q0.4375 0.578125 0.4375 1.4375q0 1.15625 -0.859375 1.96875q-0.84375 0.8125 -2.140625 0.8125q-1.171875 0 -1.953125 -0.6875q-0.78125 -0.703125 -0.890625 -1.8125z" fill-rule="nonzero"/><path fill="#cfe2f3" d="m59.335957 278.52756l0 0c0 -14.629028 12.44437 -26.48819 27.795277 -26.48819l0 0c7.371765 0 14.441605 2.7907104 19.654228 7.758209c5.2126236 4.967499 8.141045 11.7048645 8.141045 18.72998l0 0c0 14.629028 -12.444366 26.48819 -27.795273 26.48819l0 0c-15.350906 0 -27.795277 -11.859161 -27.795277 -26.48819z" fill-rule="evenodd"/><path stroke="#000000" stroke-width="1.0" stroke-linejoin="round" stroke-linecap="butt" d="m59.335957 278.52756l0 0c0 -14.629028 12.44437 -26.48819 27.795277 -26.48819l0 0c7.371765 0 14.441605 2.7907104 19.654228 7.758209c5.2126236 4.967499 8.141045 11.7048645 8.141045 18.72998l0 0c0 14.629028 -12.444366 26.48819 -27.795273 26.48819l0 0c-15.350906 0 -27.795277 -11.859161 -27.795277 -26.48819z" fill-rule="evenodd"/><path fill="#000000" d="m79.14928 285.44757l3.53125 -5.03125l-3.265625 -4.640625l2.046875 0l1.484375 2.265625q0.421875 0.640625 0.671875 1.078125q0.40625 -0.59375 0.734375 -1.0625l1.640625 -2.28125l1.953125 0l-3.34375 4.546875l3.59375 5.125l-2.015625 0l-1.984375 -3.0l-0.515625 -0.8125l-2.546875 3.8125l-1.984375 0z" fill-rule="nonzero"/><path fill="#000000" d="m92.3524 292.44757l0 -2.125l-3.859375 0l0 -1.015625l4.0625 -5.765625l0.890625 0l0 5.765625l1.203125 0l0 1.015625l-1.203125 0l0 2.125l-1.09375 0zm0 -3.140625l0 -4.0l-2.78125 4.0l2.78125 0z" fill-rule="nonzero"/><path fill="#cfe2f3" d="m59.335957 354.52756l0 0c0 -14.629028 12.44437 -26.48819 27.795277 -26.48819l0 0c7.371765 0 14.441605 2.7907104 19.654228 7.758209c5.2126236 4.967499 8.141045 11.7048645 8.141045 18.72998l0 0c0 14.629028 -12.444366 26.48819 -27.795273 26.48819l0 0c-15.350906 0 -27.795277 -11.859161 -27.795277 -26.48819z" fill-rule="evenodd"/><path stroke="#000000" stroke-width="1.0" stroke-linejoin="round" stroke-linecap="butt" d="m59.335957 354.52756l0 0c0 -14.629028 12.44437 -26.48819 27.795277 -26.48819l0 0c7.371765 0 14.441605 2.7907104 19.654228 7.758209c5.2126236 4.967499 8.141045 11.7048645 8.141045 18.72998l0 0c0 14.629028 -12.444366 26.48819 -27.795273 26.48819l0 0c-15.350906 0 -27.795277 -11.859161 -27.795277 -26.48819z" fill-rule="evenodd"/><path fill="#000000" d="m79.14928 361.44757l3.53125 -5.03125l-3.265625 -4.640625l2.046875 0l1.484375 2.265625q0.421875 0.640625 0.671875 1.078125q0.40625 -0.59375 0.734375 -1.0625l1.640625 -2.28125l1.953125 0l-3.34375 4.546875l3.59375 5.125l-2.015625 0l-1.984375 -3.0l-0.515625 -0.8125l-2.546875 3.8125l-1.984375 0z" fill-rule="nonzero"/><path fill="#000000" d="m88.8524 366.11945l1.140625 -0.09375q0.140625 0.828125 0.59375 1.25q0.46875 0.421875 1.125 0.421875q0.796875 0 1.34375 -0.59375q0.546875 -0.59375 0.546875 -1.578125q0 -0.9375 -0.53125 -1.46875q-0.53125 -0.546875 -1.375 -0.546875q-0.53125 0 -0.953125 0.25q-0.421875 0.234375 -0.671875 0.609375l-1.03125 -0.125l0.875 -4.578125l4.421875 0l0 1.046875l-3.546875 0l-0.484375 2.390625q0.796875 -0.5625 1.6875 -0.5625q1.15625 0 1.953125 0.8125q0.8125 0.8125 0.8125 2.078125q0 1.203125 -0.703125 2.09375q-0.859375 1.078125 -2.34375 1.078125q-1.21875 0 -1.984375 -0.671875q-0.765625 -0.6875 -0.875 -1.8125z" fill-rule="nonzero"/><path fill="#fff2cc" d="m187.33595 126.52756l0 0c0 -14.629021 12.444366 -26.48819 27.795288 -26.48819l0 0c7.371765 0 14.441589 2.790718 19.65422 7.758217c5.212631 4.967499 8.141052 11.704872 8.141052 18.729973l0 0c0 14.629028 -12.444366 26.48819 -27.795273 26.48819l0 0c-15.350922 0 -27.795288 -11.859161 -27.795288 -26.48819z" fill-rule="evenodd"/><path stroke="#000000" stroke-width="1.0" stroke-linejoin="round" stroke-linecap="butt" d="m187.33595 126.52756l0 0c0 -14.629021 12.444366 -26.48819 27.795288 -26.48819l0 0c7.371765 0 14.441589 2.790718 19.65422 7.758217c5.212631 4.967499 8.141052 11.704872 8.141052 18.729973l0 0c0 14.629028 -12.444366 26.48819 -27.795273 26.48819l0 0c-15.350922 0 -27.795288 -11.859161 -27.795288 -26.48819z" fill-rule="evenodd"/><path fill="#000000" d="m207.71924 133.44756l0 -13.359375l1.640625 0l0 4.796875q1.140625 -1.328125 2.890625 -1.328125q1.078125 0 1.859375 0.421875q0.796875 0.421875 1.140625 1.171875q0.34375 0.75 0.34375 2.171875l0 6.125l-1.640625 0l0 -6.125q0 -1.234375 -0.53125 -1.796875q-0.53125 -0.5625 -1.515625 -0.5625q-0.71875 0 -1.359375 0.390625q-0.640625 0.375 -0.921875 1.015625q-0.265625 0.640625 -0.265625 1.78125l0 5.296875l-1.640625 0z" fill-rule="nonzero"/><path fill="#000000" d="m221.5012 140.44756l-1.09375 0l0 -6.96875q-0.40625 0.375 -1.046875 0.75q-0.640625 0.375 -1.140625 0.578125l0 -1.0625q0.90625 -0.4375 1.59375 -1.046875q0.6875 -0.609375 0.96875 -1.1875l0.71875 0l0 8.9375z" fill-rule="nonzero"/><path fill="#fff2cc" d="m187.33595 202.52756l0 0c0 -14.629028 12.444366 -26.48819 27.795288 -26.48819l0 0c7.371765 0 14.441589 2.7907104 19.65422 7.758209c5.212631 4.967499 8.141052 11.70488 8.141052 18.72998l0 0c0 14.629028 -12.444366 26.48819 -27.795273 26.48819l0 0c-15.350922 0 -27.795288 -11.859161 -27.795288 -26.48819z" fill-rule="evenodd"/><path stroke="#000000" stroke-width="1.0" stroke-linejoin="round" stroke-linecap="butt" d="m187.33595 202.52756l0 0c0 -14.629028 12.444366 -26.48819 27.795288 -26.48819l0 0c7.371765 0 14.441589 2.7907104 19.65422 7.758209c5.212631 4.967499 8.141052 11.70488 8.141052 18.72998l0 0c0 14.629028 -12.444366 26.48819 -27.795273 26.48819l0 0c-15.350922 0 -27.795288 -11.859161 -27.795288 -26.48819z" fill-rule="evenodd"/><path fill="#000000" d="m207.71924 209.44756l0 -13.359375l1.640625 0l0 4.796875q1.140625 -1.328125 2.890625 -1.328125q1.078125 0 1.859375 0.421875q0.796875 0.421875 1.140625 1.171875q0.34375 0.75 0.34375 2.171875l0 6.125l-1.640625 0l0 -6.125q0 -1.234375 -0.53125 -1.796875q-0.53125 -0.5625 -1.515625 -0.5625q-0.71875 0 -1.359375 0.390625q-0.640625 0.375 -0.921875 1.015625q-0.265625 0.640625 -0.265625 1.78125l0 5.296875l-1.640625 0z" fill-rule="nonzero"/><path fill="#000000" d="m223.1262 215.40068l0 1.046875l-5.890625 0q-0.015625 -0.390625 0.125 -0.765625q0.234375 -0.59375 0.71875 -1.171875q0.5 -0.59375 1.4375 -1.359375q1.453125 -1.1875 1.953125 -1.875q0.515625 -0.703125 0.515625 -1.3125q0 -0.65625 -0.46875 -1.09375q-0.453125 -0.453125 -1.203125 -0.453125q-0.796875 0 -1.265625 0.46875q-0.46875 0.46875 -0.484375 1.3125l-1.125 -0.109375q0.125 -1.265625 0.875 -1.921875q0.75 -0.65625 2.015625 -0.65625q1.28125 0 2.03125 0.71875q0.75 0.703125 0.75 1.75q0 0.53125 -0.21875 1.046875q-0.21875 0.515625 -0.734375 1.09375q-0.5 0.5625 -1.671875 1.5625q-0.984375 0.828125 -1.265625 1.125q-0.28125 0.296875 -0.46875 0.59375l4.375 0z" fill-rule="nonzero"/><path fill="#fff2cc" d="m187.33595 278.52756l0 0c0 -14.629028 12.444366 -26.48819 27.795288 -26.48819l0 0c7.371765 0 14.441589 2.7907104 19.65422 7.758209c5.212631 4.967499 8.141052 11.7048645 8.141052 18.72998l0 0c0 14.629028 -12.444366 26.48819 -27.795273 26.48819l0 0c-15.350922 0 -27.795288 -11.859161 -27.795288 -26.48819z" fill-rule="evenodd"/><path stroke="#000000" stroke-width="1.0" stroke-linejoin="round" stroke-linecap="butt" d="m187.33595 278.52756l0 0c0 -14.629028 12.444366 -26.48819 27.795288 -26.48819l0 0c7.371765 0 14.441589 2.7907104 19.65422 7.758209c5.212631 4.967499 8.141052 11.7048645 8.141052 18.72998l0 0c0 14.629028 -12.444366 26.48819 -27.795273 26.48819l0 0c-15.350922 0 -27.795288 -11.859161 -27.795288 -26.48819z" fill-rule="evenodd"/><path fill="#000000" d="m207.71924 285.44757l0 -13.359375l1.640625 0l0 4.796875q1.140625 -1.328125 2.890625 -1.328125q1.078125 0 1.859375 0.421875q0.796875 0.421875 1.140625 1.171875q0.34375 0.75 0.34375 2.171875l0 6.125l-1.640625 0l0 -6.125q0 -1.234375 -0.53125 -1.796875q-0.53125 -0.5625 -1.515625 -0.5625q-0.71875 0 -1.359375 0.390625q-0.640625 0.375 -0.921875 1.015625q-0.265625 0.640625 -0.265625 1.78125l0 5.296875l-1.640625 0z" fill-rule="nonzero"/><path fill="#000000" d="m217.3762 290.10382l1.09375 -0.15625q0.1875 0.9375 0.640625 1.34375q0.453125 0.40625 1.109375 0.40625q0.765625 0 1.296875 -0.53125q0.53125 -0.53125 0.53125 -1.328125q0 -0.75 -0.5 -1.234375q-0.484375 -0.5 -1.234375 -0.5q-0.3125 0 -0.78125 0.125l0.125 -0.953125q0.109375 0.015625 0.171875 0.015625q0.703125 0 1.265625 -0.359375q0.5625 -0.375 0.5625 -1.140625q0 -0.59375 -0.40625 -0.984375q-0.40625 -0.40625 -1.0625 -0.40625q-0.625 0 -1.0625 0.40625q-0.421875 0.40625 -0.546875 1.203125l-1.09375 -0.1875q0.203125 -1.109375 0.90625 -1.703125q0.71875 -0.609375 1.78125 -0.609375q0.71875 0 1.328125 0.3125q0.625 0.3125 0.953125 0.859375q0.328125 0.53125 0.328125 1.140625q0 0.578125 -0.3125 1.0625q-0.3125 0.46875 -0.921875 0.734375q0.796875 0.1875 1.234375 0.765625q0.4375 0.578125 0.4375 1.4375q0 1.15625 -0.859375 1.96875q-0.84375 0.8125 -2.140625 0.8125q-1.171875 0 -1.953125 -0.6875q-0.78125 -0.703125 -0.890625 -1.8125z" fill-rule="nonzero"/><path fill="#d9d2e9" d="m307.33597 50.527557l0 0c0 -14.629021 12.444366 -26.488188 27.795258 -26.488188l0 0c7.371765 0 14.44162 2.7907124 19.654236 7.758211c5.212616 4.967499 8.141052 11.704872 8.141052 18.729977l0 0c0 14.629021 -12.444366 26.48819 -27.795288 26.48819l0 0c-15.350891 0 -27.795258 -11.859169 -27.795258 -26.48819z" fill-rule="evenodd"/><path stroke="#000000" stroke-width="1.0" stroke-linejoin="round" stroke-linecap="butt" d="m307.33597 50.527557l0 0c0 -14.629021 12.444366 -26.488188 27.795258 -26.488188l0 0c7.371765 0 14.44162 2.7907124 19.654236 7.758211c5.212616 4.967499 8.141052 11.704872 8.141052 18.729977l0 0c0 14.629021 -12.444366 26.48819 -27.795288 26.48819l0 0c-15.350891 0 -27.795258 -11.859169 -27.795258 -26.48819z" fill-rule="evenodd"/><path fill="#000000" d="m327.1493 57.44756l3.53125 -5.03125l-3.265625 -4.640625l2.046875 0l1.484375 2.265625q0.421875 0.640625 0.671875 1.078125q0.40625 -0.59375 0.734375 -1.0625l1.640625 -2.28125l1.953125 0l-3.34375 4.546875l3.59375 5.125l-2.015625 0l-1.984375 -3.0l-0.515625 -0.8125l-2.546875 3.8125l-1.984375 0zm7.2760315 -11.1028595l-1.859375 0l-1.0 -1.546875l-1.03125 1.546875l-1.875 0l1.96875 -2.546875l1.75 0l2.046875 2.546875z" fill-rule="nonzero"/><path fill="#000000" d="m340.97742 64.44756l-1.09375 0l0 -6.968754q-0.40625 0.375 -1.046875 0.75q-0.640625 0.375 -1.140625 0.578125l0 -1.0625q0.90625 -0.4375 1.59375 -1.046875q0.6875 -0.609375 0.96875 -1.1875l0.71875 0l0 8.937504z" fill-rule="nonzero"/><path fill="#d9d2e9" d="m307.33597 126.52756l0 0c0 -14.629021 12.444366 -26.48819 27.795258 -26.48819l0 0c7.371765 0 14.44162 2.790718 19.654236 7.758217c5.212616 4.967499 8.141052 11.704872 8.141052 18.729973l0 0c0 14.629028 -12.444366 26.48819 -27.795288 26.48819l0 0c-15.350891 0 -27.795258 -11.859161 -27.795258 -26.48819z" fill-rule="evenodd"/><path stroke="#000000" stroke-width="1.0" stroke-linejoin="round" stroke-linecap="butt" d="m307.33597 126.52756l0 0c0 -14.629021 12.444366 -26.48819 27.795258 -26.48819l0 0c7.371765 0 14.44162 2.790718 19.654236 7.758217c5.212616 4.967499 8.141052 11.704872 8.141052 18.729973l0 0c0 14.629028 -12.444366 26.48819 -27.795288 26.48819l0 0c-15.350891 0 -27.795258 -11.859161 -27.795258 -26.48819z" fill-rule="evenodd"/><path fill="#000000" d="m327.1493 133.44756l3.53125 -5.03125l-3.265625 -4.640625l2.046875 0l1.484375 2.265625q0.421875 0.640625 0.671875 1.078125q0.40625 -0.59375 0.734375 -1.0625l1.640625 -2.28125l1.953125 0l-3.34375 4.546875l3.59375 5.125l-2.015625 0l-1.984375 -3.0l-0.515625 -0.8125l-2.546875 3.8125l-1.984375 0zm7.2760315 -11.1028595l-1.859375 0l-1.0 -1.546875l-1.03125 1.546875l-1.875 0l1.96875 -2.546875l1.75 0l2.046875 2.546875z" fill-rule="nonzero"/><path fill="#000000" d="m342.60242 139.40068l0 1.046875l-5.890625 0q-0.015625 -0.390625 0.125 -0.765625q0.234375 -0.59375 0.71875 -1.171875q0.5 -0.59375 1.4375 -1.359375q1.453125 -1.1875 1.953125 -1.875q0.515625 -0.703125 0.515625 -1.3125q0 -0.65625 -0.46875 -1.09375q-0.453125 -0.453125 -1.203125 -0.453125q-0.796875 0 -1.265625 0.46875q-0.46875 0.46875 -0.484375 1.3125l-1.125 -0.109375q0.125 -1.265625 0.875 -1.921875q0.75 -0.65625 2.015625 -0.65625q1.28125 0 2.03125 0.71875q0.75 0.703125 0.75 1.75q0 0.53125 -0.21875 1.046875q-0.21875 0.515625 -0.734375 1.09375q-0.5 0.5625 -1.671875 1.5625q-0.984375 0.828125 -1.265625 1.125q-0.28125 0.296875 -0.46875 0.59375l4.375 0z" fill-rule="nonzero"/><path fill="#d9d2e9" d="m307.33597 202.52756l0 0c0 -14.629028 12.444366 -26.48819 27.795258 -26.48819l0 0c7.371765 0 14.44162 2.7907104 19.654236 7.758209c5.212616 4.967499 8.141052 11.70488 8.141052 18.72998l0 0c0 14.629028 -12.444366 26.48819 -27.795288 26.48819l0 0c-15.350891 0 -27.795258 -11.859161 -27.795258 -26.48819z" fill-rule="evenodd"/><path stroke="#000000" stroke-width="1.0" stroke-linejoin="round" stroke-linecap="butt" d="m307.33597 202.52756l0 0c0 -14.629028 12.444366 -26.48819 27.795258 -26.48819l0 0c7.371765 0 14.44162 2.7907104 19.654236 7.758209c5.212616 4.967499 8.141052 11.70488 8.141052 18.72998l0 0c0 14.629028 -12.444366 26.48819 -27.795288 26.48819l0 0c-15.350891 0 -27.795258 -11.859161 -27.795258 -26.48819z" fill-rule="evenodd"/><path fill="#000000" d="m327.1493 209.44756l3.53125 -5.03125l-3.265625 -4.640625l2.046875 0l1.484375 2.265625q0.421875 0.640625 0.671875 1.078125q0.40625 -0.59375 0.734375 -1.0625l1.640625 -2.28125l1.953125 0l-3.34375 4.546875l3.59375 5.125l-2.015625 0l-1.984375 -3.0l-0.515625 -0.8125l-2.546875 3.8125l-1.984375 0zm7.2760315 -11.1028595l-1.859375 0l-1.0 -1.546875l-1.03125 1.546875l-1.875 0l1.96875 -2.546875l1.75 0l2.046875 2.546875z" fill-rule="nonzero"/><path fill="#000000" d="m336.85242 214.1038l1.09375 -0.15625q0.1875 0.9375 0.640625 1.34375q0.453125 0.40625 1.109375 0.40625q0.765625 0 1.296875 -0.53125q0.53125 -0.53125 0.53125 -1.328125q0 -0.75 -0.5 -1.234375q-0.484375 -0.5 -1.234375 -0.5q-0.3125 0 -0.78125 0.125l0.125 -0.953125q0.109375 0.015625 0.171875 0.015625q0.703125 0 1.265625 -0.359375q0.5625 -0.375 0.5625 -1.140625q0 -0.59375 -0.40625 -0.984375q-0.40625 -0.40625 -1.0625 -0.40625q-0.625 0 -1.0625 0.40625q-0.421875 0.40625 -0.546875 1.203125l-1.09375 -0.1875q0.203125 -1.109375 0.90625 -1.703125q0.71875 -0.609375 1.78125 -0.609375q0.71875 0 1.328125 0.3125q0.625 0.3125 0.953125 0.859375q0.328125 0.53125 0.328125 1.140625q0 0.578125 -0.3125 1.0625q-0.3125 0.46875 -0.921875 0.734375q0.796875 0.1875 1.234375 0.765625q0.4375 0.578125 0.4375 1.4375q0 1.15625 -0.859375 1.96875q-0.84375 0.8125 -2.140625 0.8125q-1.171875 0 -1.953125 -0.6875q-0.78125 -0.703125 -0.890625 -1.8125z" fill-rule="nonzero"/><path fill="#d9d2e9" d="m307.33597 278.52756l0 0c0 -14.629028 12.444366 -26.48819 27.795258 -26.48819l0 0c7.371765 0 14.44162 2.7907104 19.654236 7.758209c5.212616 4.967499 8.141052 11.7048645 8.141052 18.72998l0 0c0 14.629028 -12.444366 26.48819 -27.795288 26.48819l0 0c-15.350891 0 -27.795258 -11.859161 -27.795258 -26.48819z" fill-rule="evenodd"/><path stroke="#000000" stroke-width="1.0" stroke-linejoin="round" stroke-linecap="butt" d="m307.33597 278.52756l0 0c0 -14.629028 12.444366 -26.48819 27.795258 -26.48819l0 0c7.371765 0 14.44162 2.7907104 19.654236 7.758209c5.212616 4.967499 8.141052 11.7048645 8.141052 18.72998l0 0c0 14.629028 -12.444366 26.48819 -27.795288 26.48819l0 0c-15.350891 0 -27.795258 -11.859161 -27.795258 -26.48819z" fill-rule="evenodd"/><path fill="#000000" d="m327.1493 285.44757l3.53125 -5.03125l-3.265625 -4.640625l2.046875 0l1.484375 2.265625q0.421875 0.640625 0.671875 1.078125q0.40625 -0.59375 0.734375 -1.0625l1.640625 -2.28125l1.953125 0l-3.34375 4.546875l3.59375 5.125l-2.015625 0l-1.984375 -3.0l-0.515625 -0.8125l-2.546875 3.8125l-1.984375 0zm7.2760315 -11.102875l-1.859375 0l-1.0 -1.546875l-1.03125 1.546875l-1.875 0l1.96875 -2.546875l1.75 0l2.046875 2.546875z" fill-rule="nonzero"/><path fill="#000000" d="m340.35242 292.44757l0 -2.125l-3.859375 0l0 -1.015625l4.0625 -5.765625l0.890625 0l0 5.765625l1.203125 0l0 1.015625l-1.203125 0l0 2.125l-1.09375 0zm0 -3.140625l0 -4.0l-2.78125 4.0l2.78125 0z" fill-rule="nonzero"/><path fill="#d9d2e9" d="m307.33597 354.52756l0 0c0 -14.629028 12.444366 -26.48819 27.795258 -26.48819l0 0c7.371765 0 14.44162 2.7907104 19.654236 7.758209c5.212616 4.967499 8.141052 11.7048645 8.141052 18.72998l0 0c0 14.629028 -12.444366 26.48819 -27.795288 26.48819l0 0c-15.350891 0 -27.795258 -11.859161 -27.795258 -26.48819z" fill-rule="evenodd"/><path stroke="#000000" stroke-width="1.0" stroke-linejoin="round" stroke-linecap="butt" d="m307.33597 354.52756l0 0c0 -14.629028 12.444366 -26.48819 27.795258 -26.48819l0 0c7.371765 0 14.44162 2.7907104 19.654236 7.758209c5.212616 4.967499 8.141052 11.7048645 8.141052 18.72998l0 0c0 14.629028 -12.444366 26.48819 -27.795288 26.48819l0 0c-15.350891 0 -27.795258 -11.859161 -27.795258 -26.48819z" fill-rule="evenodd"/><path fill="#000000" d="m327.1493 361.44757l3.53125 -5.03125l-3.265625 -4.640625l2.046875 0l1.484375 2.265625q0.421875 0.640625 0.671875 1.078125q0.40625 -0.59375 0.734375 -1.0625l1.640625 -2.28125l1.953125 0l-3.34375 4.546875l3.59375 5.125l-2.015625 0l-1.984375 -3.0l-0.515625 -0.8125l-2.546875 3.8125l-1.984375 0zm7.2760315 -11.102875l-1.859375 0l-1.0 -1.546875l-1.03125 1.546875l-1.875 0l1.96875 -2.546875l1.75 0l2.046875 2.546875z" fill-rule="nonzero"/><path fill="#000000" d="m336.85242 366.11945l1.140625 -0.09375q0.140625 0.828125 0.59375 1.25q0.46875 0.421875 1.125 0.421875q0.796875 0 1.34375 -0.59375q0.546875 -0.59375 0.546875 -1.578125q0 -0.9375 -0.53125 -1.46875q-0.53125 -0.546875 -1.375 -0.546875q-0.53125 0 -0.953125 0.25q-0.421875 0.234375 -0.671875 0.609375l-1.03125 -0.125l0.875 -4.578125l4.421875 0l0 1.046875l-3.546875 0l-0.484375 2.390625q0.796875 -0.5625 1.6875 -0.5625q1.15625 0 1.953125 0.8125q0.8125 0.8125 0.8125 2.078125q0 1.203125 -0.703125 2.09375q-0.859375 1.078125 -2.34375 1.078125q-1.21875 0 -1.984375 -0.671875q-0.765625 -0.6875 -0.875 -1.8125z" fill-rule="nonzero"/><path fill="#000000" fill-opacity="0.0" d="m114.926506 50.527557l72.40945 76.0" fill-rule="evenodd"/><path stroke="#000000" stroke-width="1.0" stroke-linejoin="round" stroke-linecap="butt" d="m114.926506 50.527557l72.40945 76.0" fill-rule="evenodd"/><path fill="#000000" fill-opacity="0.0" d="m114.926506 50.527557l72.40945 152.0" fill-rule="evenodd"/><path stroke="#000000" stroke-width="1.0" stroke-linejoin="round" stroke-linecap="butt" d="m114.926506 50.527557l72.40945 152.0" fill-rule="evenodd"/><path fill="#000000" fill-opacity="0.0" d="m114.926506 50.527557l72.40945 228.0" fill-rule="evenodd"/><path stroke="#000000" stroke-width="1.0" stroke-linejoin="round" stroke-linecap="butt" d="m114.926506 50.527557l72.40945 228.0" fill-rule="evenodd"/><path fill="#000000" fill-opacity="0.0" d="m114.926506 126.52756l72.40945 0" fill-rule="evenodd"/><path stroke="#000000" stroke-width="1.0" stroke-linejoin="round" stroke-linecap="butt" d="m114.926506 126.52756l72.40945 0" fill-rule="evenodd"/><path fill="#000000" fill-opacity="0.0" d="m114.926506 126.52756l72.40945 76.0" fill-rule="evenodd"/><path stroke="#000000" stroke-width="1.0" stroke-linejoin="round" stroke-linecap="butt" d="m114.926506 126.52756l72.40945 76.0" fill-rule="evenodd"/><path fill="#000000" fill-opacity="0.0" d="m114.926506 126.52756l72.40945 152.0" fill-rule="evenodd"/><path stroke="#000000" stroke-width="1.0" stroke-linejoin="round" stroke-linecap="butt" d="m114.926506 126.52756l72.40945 152.0" fill-rule="evenodd"/><path fill="#000000" fill-opacity="0.0" d="m114.926506 202.52756l72.40945 -76.0" fill-rule="evenodd"/><path stroke="#000000" stroke-width="1.0" stroke-linejoin="round" stroke-linecap="butt" d="m114.926506 202.52756l72.40945 -76.0" fill-rule="evenodd"/><path fill="#000000" fill-opacity="0.0" d="m114.926506 202.52756l72.40945 0" fill-rule="evenodd"/><path stroke="#000000" stroke-width="1.0" stroke-linejoin="round" stroke-linecap="butt" d="m114.926506 202.52756l72.40945 0" fill-rule="evenodd"/><path fill="#000000" fill-opacity="0.0" d="m114.926506 202.52756l72.40945 76.0" fill-rule="evenodd"/><path stroke="#000000" stroke-width="1.0" stroke-linejoin="round" stroke-linecap="butt" d="m114.926506 202.52756l72.40945 76.0" fill-rule="evenodd"/><path fill="#000000" fill-opacity="0.0" d="m114.926506 278.52756l72.40945 -152.0" fill-rule="evenodd"/><path stroke="#000000" stroke-width="1.0" stroke-linejoin="round" stroke-linecap="butt" d="m114.926506 278.52756l72.40945 -152.0" fill-rule="evenodd"/><path fill="#000000" fill-opacity="0.0" d="m114.926506 278.52756l72.40945 -76.0" fill-rule="evenodd"/><path stroke="#000000" stroke-width="1.0" stroke-linejoin="round" stroke-linecap="butt" d="m114.926506 278.52756l72.40945 -76.0" fill-rule="evenodd"/><path fill="#000000" fill-opacity="0.0" d="m114.926506 278.52756l72.40945 0" fill-rule="evenodd"/><path stroke="#000000" stroke-width="1.0" stroke-linejoin="round" stroke-linecap="butt" d="m114.926506 278.52756l72.40945 0" fill-rule="evenodd"/><path fill="#000000" fill-opacity="0.0" d="m114.926506 354.52756l72.40945 -228.0" fill-rule="evenodd"/><path stroke="#000000" stroke-width="1.0" stroke-linejoin="round" stroke-linecap="butt" d="m114.926506 354.52756l72.40945 -228.0" fill-rule="evenodd"/><path fill="#000000" fill-opacity="0.0" d="m114.926506 354.52756l72.40945 -152.0" fill-rule="evenodd"/><path stroke="#000000" stroke-width="1.0" stroke-linejoin="round" stroke-linecap="butt" d="m114.926506 354.52756l72.40945 -152.0" fill-rule="evenodd"/><path fill="#000000" fill-opacity="0.0" d="m114.926506 354.52756l72.40945 -76.0" fill-rule="evenodd"/><path stroke="#000000" stroke-width="1.0" stroke-linejoin="round" stroke-linecap="butt" d="m114.926506 354.52756l72.40945 -76.0" fill-rule="evenodd"/><path fill="#000000" fill-opacity="0.0" d="m242.92651 126.52756l64.409454 -76.0" fill-rule="evenodd"/><path stroke="#000000" stroke-width="1.0" stroke-linejoin="round" stroke-linecap="butt" d="m242.92651 126.52756l64.409454 -76.0" fill-rule="evenodd"/><path fill="#000000" fill-opacity="0.0" d="m242.92651 126.52756l64.409454 0" fill-rule="evenodd"/><path stroke="#000000" stroke-width="1.0" stroke-linejoin="round" stroke-linecap="butt" d="m242.92651 126.52756l64.409454 0" fill-rule="evenodd"/><path fill="#000000" fill-opacity="0.0" d="m242.92651 126.52756l64.409454 76.0" fill-rule="evenodd"/><path stroke="#000000" stroke-width="1.0" stroke-linejoin="round" stroke-linecap="butt" d="m242.92651 126.52756l64.409454 76.0" fill-rule="evenodd"/><path fill="#000000" fill-opacity="0.0" d="m242.92651 126.52756l64.409454 152.0" fill-rule="evenodd"/><path stroke="#000000" stroke-width="1.0" stroke-linejoin="round" stroke-linecap="butt" d="m242.92651 126.52756l64.409454 152.0" fill-rule="evenodd"/><path fill="#000000" fill-opacity="0.0" d="m242.92651 126.52756l64.409454 228.0" fill-rule="evenodd"/><path stroke="#000000" stroke-width="1.0" stroke-linejoin="round" stroke-linecap="butt" d="m242.92651 126.52756l64.409454 228.0" fill-rule="evenodd"/><path fill="#000000" fill-opacity="0.0" d="m242.92651 202.52756l64.409454 -152.0" fill-rule="evenodd"/><path stroke="#000000" stroke-width="1.0" stroke-linejoin="round" stroke-linecap="butt" d="m242.92651 202.52756l64.409454 -152.0" fill-rule="evenodd"/><path fill="#000000" fill-opacity="0.0" d="m242.92651 202.52756l64.409454 -76.0" fill-rule="evenodd"/><path stroke="#000000" stroke-width="1.0" stroke-linejoin="round" stroke-linecap="butt" d="m242.92651 202.52756l64.409454 -76.0" fill-rule="evenodd"/><path fill="#000000" fill-opacity="0.0" d="m242.92651 202.52756l64.409454 0" fill-rule="evenodd"/><path stroke="#000000" stroke-width="1.0" stroke-linejoin="round" stroke-linecap="butt" d="m242.92651 202.52756l64.409454 0" fill-rule="evenodd"/><path fill="#000000" fill-opacity="0.0" d="m242.92651 202.52756l64.409454 76.0" fill-rule="evenodd"/><path stroke="#000000" stroke-width="1.0" stroke-linejoin="round" stroke-linecap="butt" d="m242.92651 202.52756l64.409454 76.0" fill-rule="evenodd"/><path fill="#000000" fill-opacity="0.0" d="m242.92651 202.52756l64.409454 152.0" fill-rule="evenodd"/><path stroke="#000000" stroke-width="1.0" stroke-linejoin="round" stroke-linecap="butt" d="m242.92651 202.52756l64.409454 152.0" fill-rule="evenodd"/><path fill="#000000" fill-opacity="0.0" d="m242.92651 278.52756l64.409454 -228.0" fill-rule="evenodd"/><path stroke="#000000" stroke-width="1.0" stroke-linejoin="round" stroke-linecap="butt" d="m242.92651 278.52756l64.409454 -228.0" fill-rule="evenodd"/><path fill="#000000" fill-opacity="0.0" d="m242.92651 278.52756l64.409454 -152.0" fill-rule="evenodd"/><path stroke="#000000" stroke-width="1.0" stroke-linejoin="round" stroke-linecap="butt" d="m242.92651 278.52756l64.409454 -152.0" fill-rule="evenodd"/><path fill="#000000" fill-opacity="0.0" d="m242.92651 278.52756l64.409454 -76.0" fill-rule="evenodd"/><path stroke="#000000" stroke-width="1.0" stroke-linejoin="round" stroke-linecap="butt" d="m242.92651 278.52756l64.409454 -76.0" fill-rule="evenodd"/><path fill="#000000" fill-opacity="0.0" d="m242.92651 278.52756l64.409454 0" fill-rule="evenodd"/><path stroke="#000000" stroke-width="1.0" stroke-linejoin="round" stroke-linecap="butt" d="m242.92651 278.52756l64.409454 0" fill-rule="evenodd"/><path fill="#000000" fill-opacity="0.0" d="m242.92651 278.52756l64.409454 76.0" fill-rule="evenodd"/><path stroke="#000000" stroke-width="1.0" stroke-linejoin="round" stroke-linecap="butt" d="m242.92651 278.52756l64.409454 76.0" fill-rule="evenodd"/></g></svg>